<svg width="100" height="61" viewBox="0 0 100 61" fill="none" xmlns="http://www.w3.org/2000/svg">
<g id="Icon">
<g id="Group">
<path id="Vector" d="M94.1452 57.0065C92.9099 57.0065 91.9004 55.997 91.9004 54.7616C91.9004 53.5263 92.9099 52.5168 94.1452 52.5168C95.3806 52.5168 96.3901 53.5263 96.3901 54.7616C96.3901 55.997 95.3806 57.0065 94.1452 57.0065ZM94.1452 53.8451C93.6405 53.8451 93.2287 54.2569 93.2287 54.7616C93.2287 55.2664 93.6405 55.6782 94.1452 55.6782C94.65 55.6782 95.0618 55.2664 95.0618 54.7616C95.0618 54.2569 94.65 53.8451 94.1452 53.8451Z" fill="#FFE86E"/>
<path id="Vector_2" d="M8.80104 15.0716C8.80104 15.9483 8.09703 16.6523 7.22035 16.6523C6.34366 16.6523 5.63965 15.9483 5.63965 15.0716C5.63965 14.1949 6.34366 13.4909 7.22035 13.4909C8.09703 13.4909 8.80104 14.2082 8.80104 15.0716Z" fill="#FFE86E"/>
<path id="Vector_3" d="M97.2615 16.1943L95.1294 14.0621L92.9973 16.1942L95.1294 18.3264L97.2615 16.1943Z" fill="#231F20"/>
<path id="Vector_4" d="M6.10449 54.3631L5.17469 53.42L4.05891 54.5358L2.94309 53.42L2 54.3631L3.11578 55.4789L2 56.5947L2.94309 57.5245L4.05891 56.4088L5.17469 57.5245L6.10449 56.5947L5.00201 55.4789L6.10449 54.3631Z" fill="#231F20"/>
<path id="Vector_5" d="M82.0705 30.8121H79.374V33.5086H82.0705V30.8121Z" fill="#FFE86E"/>
<path id="Vector_6" d="M26.7331 28.8463H25.0728V30.5066H26.7331V28.8463Z" fill="#FFE86E"/>
<path id="Vector_7" d="M41.7034 34.1064V29.8026L37.7583 17.529L49.0888 23.5861L54.5482 13.637L60.0208 23.5861L71.3514 17.529L67.4063 29.8026V34.1064H41.7034Z" fill="#FFE86E"/>
<g id="Group_2">
<path id="Vector_8" d="M54.5473 6.38442C53.6839 6.38442 52.9932 5.68041 52.9932 4.817C52.9932 3.9536 53.6971 3.26288 54.5473 3.26288C55.4107 3.26288 56.1147 3.96688 56.1147 4.817C56.1147 5.68041 55.4107 6.38442 54.5473 6.38442Z" fill="#FFE86E"/>
<path id="Vector_9" d="M31.94 10.2365C31.0766 10.2365 30.3726 9.53253 30.3726 8.66913C30.3726 7.80572 31.0766 7.11499 31.94 7.11499C32.8034 7.11499 33.5074 7.819 33.5074 8.66913C33.4941 9.53253 32.8034 10.2365 31.94 10.2365Z" fill="#FFE86E"/>
<path id="Vector_10" d="M77.1685 10.2365C76.3051 10.2365 75.6011 9.53253 75.6011 8.66913C75.6011 7.80572 76.3051 7.11499 77.1685 7.11499C78.0319 7.11499 78.7226 7.819 78.7226 8.66913C78.7226 9.53253 78.0186 10.2365 77.1685 10.2365Z" fill="#FFE86E"/>
</g>
<path id="Vector_11" d="M32.4579 54.8547H30.3193V43.7898H37.7579L47.3218 47.4294H61.2824C61.0433 47.8146 60.6846 48.2264 60.1533 48.6249L62.3716 51.9324L72.0948 45.9682C72.9449 45.4369 73.9279 45.1712 74.9241 45.1712C76.3986 45.1712 77.78 45.7557 78.7763 46.7652L55.7167 57.8035L32.4579 54.8547Z" fill="#FFE86E"/>
<path id="Vector_12" d="M25.7234 40.3893H23.2793V57.8301H25.7234V40.3893Z" fill="#FFE86E"/>
<g id="Group_3">
<g id="Group_4">
<path id="Vector_13" d="M70.7268 37.4272H38.3823V29.5635H70.7268V37.4272ZM39.7106 36.0988H69.3984V30.8919H39.7106V36.0988Z" fill="#231F20"/>
<path id="Vector_14" d="M70.5409 30.8918H38.5551L32.312 11.4852H33.4942L47.7337 19.1097L54.0565 7.5932H54.9996L61.3224 19.1097L75.5752 11.4852H76.6512L76.4785 12.3486L70.5409 30.8918ZM39.5248 29.5635H69.5712L74.7517 13.4511L60.8176 20.9029L54.548 9.49269L48.2783 20.9029L34.3443 13.4378L39.5248 29.5635Z" fill="#231F20"/>
<path id="Vector_15" d="M54.5481 8.9348C52.2236 8.9348 50.3374 7.04859 50.3374 4.71076C50.3374 2.37292 52.2236 0.5 54.5481 0.5C56.8727 0.5 58.7722 2.3862 58.7722 4.71076C58.7722 7.03531 56.8727 8.9348 54.5481 8.9348ZM54.5481 1.82832C52.9542 1.82832 51.6657 3.13006 51.6657 4.71076C51.6657 6.30473 52.9674 7.60648 54.5481 7.60648C56.1421 7.60648 57.4439 6.30473 57.4439 4.71076C57.4439 3.11678 56.1421 1.82832 54.5481 1.82832Z" fill="#231F20"/>
<path id="Vector_16" d="M31.9403 12.7869C29.6157 12.7869 27.7295 10.9007 27.7295 8.57618C27.7295 6.25163 29.6157 4.36542 31.9403 4.36542C34.2648 4.36542 36.1643 6.25163 36.1643 8.57618C36.151 10.8875 34.2648 12.7869 31.9403 12.7869ZM31.9403 5.68046C30.3463 5.68046 29.0578 6.9822 29.0578 8.5629C29.0578 10.1569 30.3596 11.4453 31.9403 11.4453C33.5342 11.4453 34.836 10.1436 34.836 8.5629C34.8227 6.96892 33.5342 5.68046 31.9403 5.68046Z" fill="#231F20"/>
<path id="Vector_17" d="M77.1689 12.7869C74.8443 12.7869 72.9448 10.9007 72.9448 8.57618C72.9448 6.25163 74.831 4.36542 77.1689 4.36542C79.4934 4.36542 81.3796 6.25163 81.3796 8.57618C81.3796 10.8875 79.4934 12.7869 77.1689 12.7869ZM77.1689 5.68046C75.5749 5.68046 74.2731 6.9822 74.2731 8.5629C74.2731 10.1569 75.5749 11.4453 77.1689 11.4453C78.7628 11.4453 80.0513 10.1436 80.0513 8.5629C80.0513 6.96892 78.7628 5.68046 77.1689 5.68046Z" fill="#231F20"/>
</g>
<g id="Group_5">
<path id="Vector_18" d="M55.7433 60.5L31.8336 57.4714H27.251V41.1066L37.9439 41.1464L47.3882 44.7461H63.9523V45.4103C63.9523 46.2737 63.7929 47.0973 63.4874 47.8544L70.2884 43.6835C72.2144 42.5013 74.5656 42.1825 76.7307 42.8068C78.8959 43.4311 80.7289 44.9454 81.7384 46.9644C81.9775 47.4426 81.7916 48.0404 81.3001 48.2795L55.7433 60.5ZM28.5793 56.1431H31.9133L55.5175 59.1318L80.3836 47.2301C79.5069 45.676 78.0989 44.5602 76.3588 44.0687C74.5257 43.5374 72.5996 43.803 70.9791 44.7993L60.9902 50.9361C59.9275 51.6401 58.6656 52.0519 57.2975 52.0519H46.2193L43.6822 52.8622L43.2838 51.6003L46.1263 50.7369H57.3108C58.2937 50.7369 59.2235 50.4712 60.0072 50.0063L60.2862 49.8336C61.5215 48.9968 62.3849 47.6419 62.5842 46.0877L47.0429 46.0479L37.5986 42.4482H28.5925V56.1431H28.5793Z" fill="#231F20"/>
<path id="Vector_19" d="M28.5794 60.4867H21.5659V59.1584H27.2511V39.061H21.5659V37.7327H28.5794V60.4867Z" fill="#231F20"/>
<path id="Vector_20" d="M24.7941 55.107H23.4658V57.0065H24.7941V55.107Z" fill="#231F20"/>
</g>
</g>
</g>
</g>
</svg>
