<svg width="100" height="60" viewBox="0 0 100 60" fill="none" xmlns="http://www.w3.org/2000/svg">
<g id="Icon">
<g id="Group">
<path id="Vector" d="M88.1887 9.25086C86.9735 9.25086 85.9805 8.25782 85.9805 7.04266C85.9805 5.82751 86.9735 4.83447 88.1887 4.83447C89.4038 4.83447 90.3969 5.82751 90.3969 7.04266C90.3969 8.25782 89.4038 9.25086 88.1887 9.25086ZM88.1887 6.14109C87.6921 6.14109 87.2871 6.54615 87.2871 7.04266C87.2871 7.53918 87.6921 7.94424 88.1887 7.94424C88.6852 7.94424 89.0902 7.53918 89.0902 7.04266C89.0902 6.54615 88.6852 6.14109 88.1887 6.14109Z" fill="#FFE86E"/>
<path id="Vector_2" d="M1.74286 10.1524C2.6016 10.1524 3.29774 9.45628 3.29774 8.59754C3.29774 7.73881 2.6016 7.04266 1.74286 7.04266C0.884129 7.04266 0.187988 7.73881 0.187988 8.59754C0.187988 9.45628 0.884129 10.1524 1.74286 10.1524Z" fill="#FFE86E"/>
<path id="Vector_3" d="M99.6368 21.854L97.5396 19.7567L95.4423 21.854L97.5395 23.9513L99.6368 21.854Z" fill="#231F20"/>
<path id="Vector_4" d="M6.03746 46.4373L5.12283 45.5096L4.02527 46.6071L2.9277 45.5096L2 46.4373L3.09756 47.5348L2 48.6324L2.9277 49.5601L4.02527 48.4625L5.12283 49.5601L6.03746 48.6324L4.95296 47.5348L6.03746 46.4373Z" fill="#231F20"/>
<path id="Vector_5" d="M87.836 28.6803H85.1836V31.3327H87.836V28.6803Z" fill="#FFE86E"/>
<path id="Vector_6" d="M8.75925 25.2178H7.12598V26.851H8.75925V25.2178Z" fill="#FFE86E"/>
<path id="Vector_7" d="M86.8163 54.4207H85.1177V56.0017H86.8163V54.4207Z" fill="#FFE86E"/>
<path id="Vector_8" d="M18.7681 40.5444V3.88065C18.7681 3.54093 19.0425 3.26654 19.3822 3.26654H74.5477C74.8874 3.26654 75.1749 3.54094 75.1749 3.89372V40.5444H18.7681Z" fill="#FFE86E"/>
<path id="Vector_9" d="M18.7681 46.9991V44.9869C18.7681 44.9346 18.8073 44.8954 18.8595 44.8954H75.0703C75.1226 44.8954 75.1618 44.9346 75.1618 44.9869V46.5026C75.1618 46.8292 74.9005 47.0906 74.5738 47.0906H18.8726C18.8203 47.0906 18.7681 47.0514 18.7681 46.9991Z" fill="#FFE86E"/>
<path id="Vector_10" d="M52.9234 51.4678H40.5366V56.7335H52.9234V51.4678Z" fill="#FFE86E"/>
<path id="Vector_11" d="M63.5066 43.1577V38.3754L51.0545 34.0505V31.176H42.9012V34.0505L30.436 38.3754V43.1577H63.5066Z" fill="white"/>
<path id="Vector_12" d="M53.7855 20.4486C53.7855 20.4486 55.1575 20.9321 55.0922 21.6768L55.0399 22.3693C54.9223 23.689 53.6157 25.7404 53.6157 25.7404C53.6157 29.5688 50.5059 32.6786 46.6775 32.6786C42.8491 32.6786 39.7394 29.5688 39.7394 25.7404C38.9554 25.1002 38.4589 24.1725 38.3805 23.1664L38.2498 21.6768C38.2106 21.2456 38.4197 20.8537 38.7594 20.6315C38.9815 20.4747 39.5695 20.4486 39.5695 20.4486C39.5695 20.4486 39.7132 16.9469 43.6462 18.3057C43.6462 18.3057 45.7368 19.534 49.7611 17.8615C49.7481 17.8615 53.3674 17.0383 53.7855 20.4486Z" fill="white"/>
<path id="Vector_13" d="M32.2002 41.4591V40.0218L40.4058 37.1603L40.85 37.5915C42.4441 39.1333 44.5478 39.9956 46.769 39.9956C49.0033 39.9956 51.107 39.1333 52.7011 37.5915L53.1322 37.1733L61.3378 40.0348V41.4591H32.2002Z" fill="#FFE86E"/>
<g id="Group_2">
<path id="Vector_14" d="M37.9491 16.2544L32.3828 13.3275C32.3698 13.3275 32.3698 13.3145 32.3828 13.3145L46.4551 6.58539L60.5274 13.3145C60.5405 13.3145 60.5405 13.3275 60.5274 13.3275L54.9612 16.2544" fill="white"/>
<path id="Vector_15" d="M54.504 20.7884V15.0523C54.504 13.9547 50.9108 13.0662 46.4683 13.0662C42.0258 13.0662 38.4326 13.9547 38.4326 15.0523V20.7884H54.504Z" fill="white"/>
</g>
<path id="Vector_16" d="M38.9817 14.412L36.9434 13.3406L46.6777 8.68903L56.3989 13.3406L54.2822 14.4512L46.6777 17.9922L38.9817 14.412Z" fill="#FFE86E"/>
<path id="Vector_17" d="M54.8175 20.5531V14.8171C54.8175 13.7195 51.2243 12.831 46.7818 12.831C42.3393 12.831 38.7461 13.7195 38.7461 14.8171V20.5531H54.8175Z" fill="white"/>
<g id="Group_3">
<g id="Group_4">
<g id="Group_5">
<g id="Group_6">
<path id="Vector_18" d="M63.913 43.1577H62.6064V38.8458L50.1543 34.5078V31.176H51.4609V33.5801L63.913 37.9181V43.1577Z" fill="#231F20"/>
<path id="Vector_19" d="M46.7304 38.4408C44.8489 38.4408 43.0719 37.7221 41.713 36.4155L40.4194 35.1612L41.3341 34.2204L42.6146 35.4748C43.7252 36.5462 45.1755 37.1342 46.7173 37.1342C48.2592 37.1342 49.7226 36.5462 50.8332 35.4617L52.1006 34.2204L53.0153 35.1612L51.7478 36.4025C50.402 37.7221 48.6119 38.4408 46.7304 38.4408Z" fill="#231F20"/>
<path id="Vector_20" d="M46.7827 33.2796C42.6929 33.2796 39.348 30.0392 39.1912 25.9887C38.4072 25.257 37.9238 24.2509 37.8323 23.1794L37.7017 21.6899C37.6494 21.0366 37.9499 20.4094 38.4987 20.0435C38.6686 19.926 38.8907 19.8606 39.0997 19.8214C39.2304 19.2465 39.5571 18.358 40.3672 17.7962C41.2687 17.182 42.4708 17.1298 43.9473 17.6394C44.078 17.7047 45.9726 18.7108 49.605 17.2082C49.7879 17.1559 51.6956 16.7378 53.1198 17.7439C53.8253 18.2404 54.2827 18.9852 54.4656 19.939C55.0274 20.2003 55.9159 20.7753 55.8375 21.6768L55.7853 22.3563C55.6807 23.6106 54.7008 25.3092 54.3611 25.858C54.2696 29.9739 50.8985 33.2796 46.7827 33.2796ZM42.1442 18.5932C41.7391 18.5932 41.3863 18.6847 41.1119 18.8676C40.3933 19.3641 40.328 20.4225 40.328 20.4355L40.3018 21.0366L39.7008 21.0627C39.5179 21.0758 39.2696 21.115 39.2043 21.1411C39.0736 21.2326 38.9952 21.4024 39.0083 21.5723L39.1389 23.0618C39.2043 23.885 39.6224 24.6559 40.2626 25.1786L40.5109 25.3746V25.6881C40.5109 29.1507 43.3332 31.973 46.7957 31.973C50.2583 31.973 53.0806 29.1507 53.0806 25.6881V25.4922L53.1851 25.3354C53.5248 24.7996 54.4264 23.2056 54.5048 22.2648L54.5571 21.5723C54.5179 21.4547 54.0605 21.1542 53.6816 21.0104L53.3027 20.8798L53.2504 20.4747C53.159 19.6908 52.8715 19.155 52.3881 18.8023C51.4473 18.1359 50.0231 18.4364 50.01 18.4364C45.8419 20.1742 43.5161 18.8676 43.4246 18.8023C42.9543 18.6716 42.5231 18.5932 42.1442 18.5932Z" fill="#231F20"/>
</g>
<path id="Vector_21" d="M30.8418 43.1577H29.5352V37.9181L42.0003 33.5801V31.176H43.3069V34.5078L30.8418 38.8458V43.1577Z" fill="#231F20"/>
</g>
<g id="Group_7">
<g id="Group_8">
<path id="Vector_22" d="M37.8582 16.8423L32.3573 13.9547L31.9654 13.8501L31.9131 12.8702L32.3835 12.7003L46.6779 5.8667L61.4166 12.9225L61.3904 13.8371L60.9985 13.9416L55.4976 16.8423L54.8835 15.6794L59.3129 13.3536L46.6779 7.31705L34.0429 13.3536L38.4593 15.6794L37.8582 16.8423Z" fill="#231F20"/>
<path id="Vector_23" d="M35.1924 14.1115H33.8857V22.3301H35.1924V14.1115Z" fill="#231F20"/>
</g>
<path id="Vector_24" d="M55.3668 20.7883H54.0602V15.0523C53.8381 14.5949 51.1726 13.7195 46.6778 13.7195C42.1961 13.7195 39.5175 14.608 39.2823 15.1045L39.2954 20.8014H37.9888V15.0653C37.9888 12.9747 43.4504 12.426 46.6778 12.426C49.9051 12.426 55.3668 12.9878 55.3668 15.0653V20.7883Z" fill="#231F20"/>
</g>
</g>
<g id="Group_9">
<path id="Vector_25" d="M78.1933 43.811H15.2534V3.88066C15.2534 1.73781 16.9912 0 19.1341 0H74.2996C76.4424 0 78.1933 1.75088 78.1933 3.89373V43.811ZM16.56 42.5044H76.8867V3.89373C76.8867 2.46952 75.7238 1.30662 74.2996 1.30662H19.1341C17.7099 1.30662 16.56 2.45645 16.56 3.88066V42.5044Z" fill="#231F20"/>
<path id="Vector_26" d="M76.2334 49.5078H17.2133C16.1289 49.5078 15.2534 48.6324 15.2534 47.5479V42.5043H78.1933V47.5479C78.1933 48.6324 77.3179 49.5078 76.2334 49.5078ZM16.56 43.811V47.5479C16.56 47.9137 16.8475 48.2012 17.2133 48.2012H76.2334C76.5992 48.2012 76.8867 47.9137 76.8867 47.5479V43.811H16.56Z" fill="#231F20"/>
<path id="Vector_27" d="M56.1904 60H37.2705V48.8546H38.5771V58.6934H54.8838V48.8546H56.1904V60Z" fill="#231F20"/>
<path id="Vector_28" d="M62.0175 58.6934H31.4165V60H62.0175V58.6934Z" fill="#231F20"/>
</g>
</g>
</g>
</g>
</svg>
