<svg width="101" height="61" viewBox="0 0 101 61" fill="none" xmlns="http://www.w3.org/2000/svg">
<g id="Icon">
<g id="Group">
<path id="Vector" d="M84.2737 8.54164C83.0059 8.54164 81.9697 7.50552 81.9697 6.23762C81.9697 4.96973 83.0059 3.93359 84.2737 3.93359C85.5416 3.93359 86.5778 4.96973 86.5778 6.23762C86.5778 7.50552 85.5416 8.54164 84.2737 8.54164ZM84.2737 5.29692C83.7557 5.29692 83.333 5.71956 83.333 6.23762C83.333 6.75569 83.7557 7.17831 84.2737 7.17831C84.7918 7.17831 85.2144 6.75569 85.2144 6.23762C85.2144 5.71956 84.7918 5.29692 84.2737 5.29692Z" fill="#FFE86E"/>
<path id="Vector_2" d="M10.4497 7.17832C10.4497 8.07812 9.72723 8.80069 8.82743 8.80069C7.92764 8.80069 7.20508 8.07812 7.20508 7.17832C7.20508 6.27853 7.92764 5.55597 8.82743 5.55597C9.71359 5.55597 10.4497 6.29216 10.4497 7.17832Z" fill="#FFE86E"/>
<path id="Vector_3" d="M90.9568 21.9137L88.7686 19.7254L86.5803 21.9137L88.7685 24.102L90.9568 21.9137Z" fill="#2D1600"/>
<path id="Vector_4" d="M4.57343 35.631L3.60549 34.6631L2.4603 35.8083L1.31511 34.6631L0.347168 35.631L1.49235 36.7762L0.347168 37.9214L1.31511 38.8894L2.4603 37.7442L3.60549 38.8894L4.57343 37.9214L3.42825 36.7762L4.57343 35.631Z" fill="#2D1600"/>
<path id="Vector_5" d="M85.664 39.7891H82.8965V42.5567H85.664V39.7891Z" fill="#FFE86E"/>
<path id="Vector_6" d="M13.9683 22.8703H12.2642V24.5745H13.9683V22.8703Z" fill="#FFE86E"/>
<path id="Vector_7" d="M100.024 29.7415H98.2515V31.3911H100.024V29.7415Z" fill="#FFE86E"/>
<path id="Vector_8" d="M26.1411 36.04V3.93359H42.8963C42.9918 3.93359 43.0599 4.00175 43.0599 4.09719L49.8766 4.20626C49.8766 4.05629 49.9993 3.93359 50.1492 3.93359H66.7954V36.0263H26.1411V36.04Z" fill="#FFE86E"/>
<path id="Vector_9" d="M62.7606 27.6283C66.5233 32.9452 65.2554 40.2936 59.9385 44.0427C54.6215 47.8055 47.2732 46.5376 43.5241 41.2207C39.7613 35.9037 41.0292 28.5553 46.3462 24.8062C51.6495 21.057 59.0114 22.3113 62.7606 27.6283Z" fill="white"/>
<path id="Vector_10" d="M53.1492 42.8021C50.4362 42.8021 47.8732 41.4797 46.3053 39.2575C45.0102 37.4306 44.5058 35.2084 44.8875 33.0134C45.2692 30.8048 46.4826 28.8825 48.3094 27.5874C49.7273 26.5785 51.4042 26.0468 53.1356 26.0468C55.8486 26.0468 58.4116 27.3692 59.9795 29.5915C62.6516 33.3543 61.7518 38.5894 57.9754 41.2616C56.5575 42.2704 54.8943 42.8021 53.1492 42.8021Z" fill="#FFE86E"/>
<path id="Vector_11" d="M68.3637 57.4715C67.8729 57.4715 67.4094 57.2261 67.1231 56.8308L62.1606 49.8505L64.6283 48.1055L69.5907 55.0857C69.8225 55.4129 69.9179 55.8083 69.8498 56.2173C69.7816 56.6126 69.5635 56.9671 69.2363 57.1989C68.9773 57.3761 68.6773 57.4715 68.3637 57.4715Z" fill="#FFE86E"/>
<g id="Group_2">
<g id="Group_3">
<g id="Group_4">
<path id="Vector_12" d="M41.8193 25.6105H26.8228V26.9739H41.8193V25.6105Z" fill="#2D1600"/>
<path id="Vector_13" d="M38.6973 31.5819H26.8228V32.9452H38.6973V31.5819Z" fill="#2D1600"/>
<path id="Vector_14" d="M41.8193 7.7373H26.8228V9.10063H41.8193V7.7373Z" fill="#2D1600"/>
<path id="Vector_15" d="M41.8193 19.6528H26.8228V21.0161H41.8193V19.6528Z" fill="#2D1600"/>
<path id="Vector_16" d="M41.8193 13.6951H26.8228V15.0584H41.8193V13.6951Z" fill="#2D1600"/>
</g>
<g id="Group_5">
<path id="Vector_17" d="M65.8413 7.7373H50.8447V9.10063H65.8413V7.7373Z" fill="#2D1600"/>
<path id="Vector_18" d="M65.841 19.6528H57.4702V21.0162H65.841V19.6528Z" fill="#2D1600"/>
<path id="Vector_19" d="M65.8413 13.6951H50.8447V15.0584H65.8413V13.6951Z" fill="#2D1600"/>
</g>
<path id="Vector_20" d="M39.6927 40.4708H22.0649V0.198059H42.9101C45.2551 0.198059 47.1637 2.10671 47.1637 4.45164H45.8004C45.8004 2.85654 44.5052 1.56139 42.9101 1.56139H23.4283V39.1074H39.6927V40.4708Z" fill="#2D1600"/>
<path id="Vector_21" d="M47.1504 11.0911H45.7871V21.4251H47.1504V11.0911Z" fill="#2D1600"/>
<path id="Vector_22" d="M70.8859 40.4708H66.5778V39.1074H69.5225V1.56139H50.1498C48.5001 1.56139 47.1504 2.91108 47.1504 4.56071V11.091H45.7871V4.56071C45.7871 2.14761 47.7503 0.198059 50.1498 0.198059H70.8859V40.4708Z" fill="#2D1600"/>
<path id="Vector_23" d="M41.6696 43.8655H18.6704V3.59277H22.7467V4.9561H20.0337V42.5022H41.6696V43.8655Z" fill="#2D1600"/>
<path id="Vector_24" d="M74.28 43.8655H67.3135V42.5022H72.9167V4.9561H70.2037V3.59277H74.28V43.8655Z" fill="#2D1600"/>
</g>
<g id="Group_6">
<g id="Group_7">
<path id="Vector_25" d="M53.1621 46.892C49.2494 46.892 45.3911 45.0652 42.9644 41.6296C41.0421 38.9166 40.2923 35.6037 40.8513 32.3317C41.4103 29.0461 43.2235 26.1831 45.9365 24.2608C48.6495 22.3385 51.9623 21.5887 55.2343 22.1476C58.5199 22.7066 61.3829 24.5198 63.3052 27.2328C65.2275 29.9458 65.9773 33.2587 65.4183 36.5307C64.8594 39.8027 63.0462 42.6793 60.3332 44.6016C58.1655 46.1422 55.6433 46.892 53.1621 46.892ZM53.1212 23.3337C50.8444 23.3337 48.6359 24.029 46.7409 25.3787C44.3278 27.0965 42.7054 29.6459 42.2146 32.5634C41.7102 35.481 42.3782 38.4258 44.096 40.8525C47.627 45.8423 54.5663 47.042 59.5697 43.511C61.9964 41.7932 63.6051 39.2438 64.0959 36.3262C64.6003 33.4087 63.9323 30.4639 62.2145 28.0372C60.4967 25.6241 57.9473 24.0017 55.0298 23.5109C54.3891 23.3882 53.7483 23.3337 53.1212 23.3337Z" fill="#2D1600"/>
<path id="Vector_26" d="M68.3764 60.1981C68.131 60.1981 67.8992 60.1708 67.6538 60.1299C66.5359 59.9391 65.568 59.3256 64.9136 58.3985L58.3696 49.196L65.2953 44.3017L71.8393 53.5042C72.4936 54.4312 72.7527 55.5492 72.5618 56.6671C72.3709 57.785 71.7574 58.753 70.8304 59.4074C70.0942 59.9254 69.2353 60.1981 68.3764 60.1981ZM60.2646 49.5232L66.0178 57.6078C66.4677 58.2349 67.1221 58.6575 67.8856 58.7802C68.649 58.9166 69.4125 58.7393 70.0397 58.2894C70.6668 57.8395 71.0894 57.1851 71.2121 56.4217C71.3484 55.6582 71.1712 54.8948 70.7213 54.2676L64.9681 46.1694L60.2646 49.5232Z" fill="#2D1600"/>
<path id="Vector_27" d="M60.633 49.2778L57.9199 45.3924L59.0379 44.6016L60.9601 47.3692L62.6915 46.1422L60.7693 43.3746L61.8872 42.5975L64.5866 46.4694L60.633 49.2778Z" fill="#2D1600"/>
</g>
<path id="Vector_28" d="M46.1274 37.0897C44.4233 33.695 45.7866 29.5505 49.1676 27.8463L49.7811 29.0597C47.0681 30.4366 45.9638 33.7632 47.3408 36.4762L46.1274 37.0897Z" fill="#2D1600"/>
</g>
</g>
</g>
</g>
</svg>
