<svg width="16" height="16" viewBox="0 0 16 16" fill="none" xmlns="http://www.w3.org/2000/svg">
<g id="Graduation-Cap--Streamline-Core.svg">
<path id="Union" fill-rule="evenodd" clip-rule="evenodd" d="M8.22718 0.832378C8.08224 0.769578 7.91776 0.769578 7.77282 0.832378L0.34425 4.05099C0.135259 4.14154 0 4.34755 0 4.57532C0 4.80308 0.135259 5.00909 0.34425 5.09965L1.36437 5.54164V11.9314C0.867976 12.1516 0.521746 12.6488 0.521746 13.2268C0.521746 14.0091 1.15592 14.6433 1.93822 14.6433C2.72051 14.6433 3.35469 14.0091 3.35469 13.2268C3.35469 12.6482 3.00779 12.1506 2.51064 11.9307V6.03829L7.77282 8.31826C7.91776 8.38106 8.08224 8.38106 8.22718 8.31826L15.6558 5.09965C15.8647 5.00909 16 4.80308 16 4.57532C16 4.34755 15.8647 4.14154 15.6558 4.05099L8.22718 0.832378ZM3.37793 10.6896L3.37221 7.96871L7.20434 9.62908C7.71165 9.84887 8.2873 9.84887 8.79459 9.62908L12.6274 7.96842L12.628 10.6883C12.628 10.8132 12.5871 10.9346 12.5115 11.0341L12.0566 10.6884C12.5115 11.0341 12.5118 11.0338 12.5115 11.0341L12.5107 11.0351L12.5098 11.0363L12.5077 11.0392L12.5018 11.0467L12.4843 11.0684C12.4702 11.0857 12.4509 11.1087 12.4262 11.1366C12.3769 11.1923 12.3064 11.2676 12.2139 11.3557C12.029 11.5319 11.7551 11.7604 11.3859 11.987C10.644 12.4423 9.52742 12.883 7.99969 12.883C6.47191 12.883 5.35678 12.4423 4.61616 11.9866C4.24769 11.76 3.97453 11.5313 3.79016 11.355C3.69793 11.2668 3.62767 11.1914 3.57858 11.1356C3.55402 11.1077 3.53472 11.0847 3.52057 11.0673L3.5032 11.0456L3.49738 11.0381L3.49518 11.0352L3.49426 11.034L3.49384 11.0334C3.49365 11.0332 3.49345 11.0329 3.94931 10.6885L3.49384 11.0334C3.41913 10.9346 3.37819 10.8135 3.37793 10.6896Z" fill="#2D1600"/>
</g>
</svg>
