<svg width="60" height="60" viewBox="0 0 60 60" fill="none" xmlns="http://www.w3.org/2000/svg">
<g id="expert ava">
<g clip-path="url(#clip0_6474_7237)">
<g id="Group 56">
<path id="Vector" d="M19.0818 39.74C19.2458 40.4987 19.4102 41.2599 19.5717 42.0189C19.584 42.0692 19.5937 42.12 19.6064 42.1729C19.6244 42.2642 19.6421 42.3529 19.6631 42.4464C19.6732 42.4997 19.6862 42.5552 19.6963 42.6085C19.7425 42.826 19.7917 43.0458 19.8376 43.2609C19.8484 43.3193 19.8621 43.3799 19.8755 43.4379C19.9112 43.6179 19.9658 43.8578 20.0153 44.0983C20.0164 44.106 20.0204 44.1159 20.0218 44.1261C20.0305 44.1692 20.0395 44.2148 20.0485 44.2604C20.1259 44.6065 20.1988 44.9585 20.2765 45.3071C20.2855 45.3528 20.2949 45.401 20.3039 45.4466C20.4199 45.9749 20.5399 46.5312 20.6612 47.0979C21.8084 47.0095 22.9547 46.916 24.1015 46.825C25.6318 46.701 27.1596 46.5773 28.6874 46.4536C29.4914 46.3901 30.2926 46.3243 31.0966 46.2607C31.4678 46.232 31.8335 46.2014 32.2047 46.1726C32.2846 46.1666 32.3642 46.158 32.4441 46.152C32.3625 45.5719 32.2835 44.9916 32.2019 44.4115C28.8949 45.317 24.9982 44.5675 22.278 42.4746C21.1685 41.5154 20.1838 40.4058 19.3212 39.2191C19.1138 38.9303 18.9461 38.6829 18.8021 38.4739C18.8802 38.8251 18.9535 39.1796 19.0315 39.5308C19.0544 39.6006 19.067 39.6717 19.0818 39.74Z" fill="white"/>
<path id="Vector_2" d="M12.6068 28.9823C12.8438 28.7405 13.0895 28.5053 13.4142 28.3684C14.4976 27.8825 15.7733 28.0965 16.8801 28.4073C19.3963 29.179 19.4604 33.0994 22.6983 32.4069C22.871 32.3748 22.9854 32.2988 23.0505 32.2062C23.1635 32.12 23.2353 31.9822 23.212 31.7979C22.9656 30.1571 22.7334 28.4882 22.7863 26.8261C23.0034 26.8321 23.2089 26.8292 23.3533 26.8558C24.2155 26.8909 25.0817 26.7873 25.9246 26.6114C29.753 25.8932 34.2353 23.6733 36.9528 20.6333C37.5637 22.2723 38.0436 23.961 38.5103 25.649C39.1415 28.0435 39.6333 30.4654 39.4254 32.9518C39.3092 35.368 38.4901 37.6954 37.1348 39.6944C36.097 41.3934 34.4464 42.6444 32.5995 43.3523C32.5498 43.3697 32.5005 43.3897 32.4505 43.4045C29.9216 44.2657 27.1257 43.9137 24.6943 42.8929C23.3293 42.3214 22.2382 41.3075 21.2758 40.2078C20.6085 39.4652 20.0191 38.6648 19.4505 37.8458C19.0916 37.2579 18.7784 36.8277 18.3442 36.464C18.0965 36.2592 17.8126 36.075 17.459 35.8954C16.266 35.1382 14.9093 34.589 13.9633 33.4948C12.9292 32.2748 12.3775 30.5753 12.6068 28.9823ZM37.9052 29.2206C38.3831 28.7834 38.2982 27.568 37.9606 27.0579C37.6838 26.6643 37.054 26.633 36.7871 27.0509C36.2801 27.7632 36.7822 29.8319 37.9052 29.2206ZM35.9725 25.391C36.1606 25.005 36.3964 24.6435 36.6179 24.2736C36.8004 23.9587 36.5269 23.5334 36.1607 23.5979C35.7946 23.6624 35.7166 24.0903 35.5179 24.3449C35.1517 24.9463 34.8493 25.5933 34.712 26.2849C34.2352 28.4339 34.6401 30.683 35.711 32.5909C35.6179 33.1329 35.2152 33.5674 34.8254 33.9271C34.367 34.299 34.9238 34.9972 35.3862 34.6351C35.9876 34.0945 36.5843 33.3905 36.6194 32.5465C36.4611 31.847 35.9953 31.2402 35.7935 30.5468C35.2691 28.893 35.2378 26.9848 35.9725 25.391ZM32.1116 38.2721C32.4092 38.5168 32.9061 38.2333 32.8311 37.8478C32.7927 37.5561 32.8156 37.2558 32.8903 36.9717C33.7789 37.4356 34.7823 37.6776 35.7802 37.7144C36.204 37.6704 36.7911 37.825 37.0803 37.4351C37.2656 37.1224 36.9826 36.7036 36.6237 36.7645C36.5354 36.7848 36.4062 36.7925 36.3416 36.7964C35.5719 36.863 34.7963 36.7401 34.063 36.4915C33.7972 36.3986 33.5325 36.2951 33.2846 36.1632C33.3524 36.0703 33.4285 35.9814 33.5111 35.9021C33.6577 35.759 33.898 35.707 33.939 35.4797C34.0107 35.1934 33.7971 34.916 33.5019 34.9106C33.03 34.9639 32.7152 35.4303 32.4462 35.7783C32.0684 36.3343 31.6129 37.709 32.1116 38.2721ZM31.4746 31.4826C31.789 31.1987 31.9901 30.7196 31.9464 30.2984C31.8639 29.4892 31.1246 28.3268 30.2712 29.1139C29.41 29.9203 30.2467 32.3302 31.4746 31.4826ZM29.0186 29.5272C29.0976 28.5885 29.7265 27.687 30.6481 27.4219C31.035 27.3936 31.2754 26.9168 30.9739 26.6256C30.3545 26.1682 29.0816 27.2331 28.7327 27.7538C28.3872 28.2428 28.1892 28.8178 28.119 29.4114C28.0528 29.9966 28.932 30.1152 29.0186 29.5272ZM15.2018 33.1486C15.5886 33.472 16.0267 33.7153 16.4941 33.9075C16.7187 34.0036 16.9916 33.887 17.0847 33.6603C17.2941 33.0367 16.4363 32.9776 16.0903 32.6849C15.6749 32.3811 15.2406 32.0722 14.9438 31.6475C14.4933 31.0568 14.8413 30.604 15.5353 30.6471C16.0245 30.6982 16.5029 30.8941 16.8813 31.2135C17.3446 31.9691 18.2202 31.1919 17.5712 30.6161C16.7339 29.8506 15.2673 29.3533 14.2935 30.1365C13.189 31.0839 14.2759 32.531 15.2018 33.1486Z" fill="white"/>
<path id="Vector_3" d="M12.179 29.4022C12.3297 29.2689 12.4679 29.1218 12.6072 28.9824C12.6284 28.8178 12.6598 28.6519 12.7024 28.4921C12.8522 27.9265 11.9798 27.6896 11.8283 28.2607C11.7197 28.6746 11.6626 29.1022 11.6522 29.5284C11.8145 29.5525 11.9894 29.5174 12.179 29.4022Z" fill="#2D1600"/>
<path id="Vector_4" d="M8.70653 19.7022C9.10055 18.2241 10.1742 17.0022 11.5117 16.2851C12.5312 15.6596 13.8171 15.6507 14.8863 16.157C14.7782 15.1846 14.8312 14.1532 15.3825 13.3121C16.2649 11.9529 17.5886 10.86 19.1064 10.2947C20.9767 9.71637 22.9683 9.46233 24.9252 9.48152C25.4291 9.50706 25.9344 9.54283 26.4327 9.62127C26.4872 9.56409 26.5446 9.50911 26.6021 9.45414C29.7398 6.47486 35.6417 6.56719 38.6633 9.67292C38.9098 9.92488 39.1472 10.1859 39.3751 10.4535C39.6502 10.2793 39.9603 10.1497 40.2568 10.0533C41.7967 9.55271 43.5008 9.75601 44.9612 10.4131C47.247 11.4361 48.7417 13.9489 48.4578 16.4512C48.2124 18.7631 46.5537 20.6797 44.675 21.921C42.8782 22.9294 40.4868 22.841 38.8255 21.5894C38.4471 21.2153 38.1186 20.7873 37.809 20.3462C37.6871 20.0168 37.5575 19.6884 37.4206 19.3637C37.1319 18.8858 36.39 19.2794 36.622 19.7809C36.7375 20.0643 36.8452 20.3488 36.9534 20.6359C34.2333 23.6763 29.751 25.8962 25.9252 26.6141C25.0823 26.79 24.2161 26.8935 23.3539 26.8585C23.2098 26.8344 23.004 26.8347 22.7869 26.8288C22.7315 28.4912 22.9632 30.1575 23.2126 31.8005C23.2359 31.9849 23.1641 32.1226 23.0511 32.2089C22.986 32.3014 22.8712 32.3749 22.6989 32.4095C19.4614 33.1046 19.3972 29.1842 16.8807 28.4099C15.7738 28.0992 14.4982 27.8851 13.4148 28.371C13.0901 28.5079 12.8444 28.7431 12.6074 28.9849C12.6286 28.8204 12.6599 28.6544 12.7026 28.4947C12.8523 27.929 11.98 27.6921 11.8284 28.2632C11.7199 28.6772 11.6628 29.1047 11.6523 29.5309C11.123 29.4542 10.7425 28.7495 10.5169 28.2757C9.24648 25.6533 7.86267 22.6507 8.70653 19.7022ZM38.397 17.3946C38.4131 17.3975 38.4342 17.3998 38.4503 17.4027C38.4186 17.3994 38.3908 17.3876 38.3609 17.3788C38.3719 17.3825 38.3828 17.3862 38.397 17.3946Z" fill="#2D1600"/>
<path id="Vector_5" d="M14.2909 30.1343C13.1894 31.084 14.2788 32.5307 15.2018 33.1461C15.5886 33.4695 16.0267 33.7127 16.4941 33.905C16.7187 34.0011 16.9915 33.8845 17.0847 33.6577C17.2941 33.0342 16.4363 32.975 16.0902 32.6824C15.6749 32.3786 15.2406 32.0697 14.9438 31.645C14.4933 31.0543 14.8413 30.6015 15.5353 30.6446C16.0245 30.6956 16.5028 30.8915 16.8813 31.2109C17.3445 31.9666 18.2202 31.1894 17.5712 30.6136C16.7291 29.8513 15.2647 29.3511 14.2909 30.1343Z" fill="#2D1600"/>
<path id="Vector_6" d="M18.5037 37.0591C18.4871 36.9781 18.4705 36.897 18.4542 36.8186C18.4538 36.816 18.4535 36.8134 18.4531 36.8109C18.4491 36.801 18.4473 36.7882 18.4455 36.7755L18.4452 36.7729C18.4448 36.7704 18.4448 36.7704 18.4445 36.7678L18.4441 36.7653C18.4397 36.7528 18.438 36.7401 18.4362 36.7273C18.4332 36.7251 18.4325 36.72 18.4322 36.7174C18.4152 36.6338 18.369 36.5648 18.3093 36.5106C18.1934 36.4097 18.0231 36.3659 17.8727 36.4079C17.7599 36.4394 17.6641 36.518 17.6055 36.62C17.5447 36.725 17.5397 36.8377 17.5613 36.9546C17.5628 36.9648 17.5671 36.9772 17.5686 36.9874C17.5689 36.99 17.5689 36.99 17.5693 36.9925C17.5704 37.0002 17.574 37.0075 17.5754 37.0177L17.5758 37.0203C18.1044 37.4071 18.3059 37.728 18.8097 38.4753C18.7429 38.1668 18.6756 37.8557 18.6088 37.5472C18.5752 37.3826 18.542 37.2205 18.5037 37.0591Z" fill="#2D1600"/>
<path id="Vector_7" d="M16.1315 36.1473C16.824 36.532 17.2584 36.7862 17.575 37.0178L17.5747 37.0153C17.5736 37.0076 17.57 37.0003 17.5685 36.9901C17.5682 36.9875 17.5682 36.9875 17.5678 36.985C17.5664 36.9748 17.562 36.9623 17.5606 36.9521C17.5389 36.8353 17.5443 36.7251 17.6047 36.6176C17.6633 36.5155 17.7591 36.4369 17.8719 36.4054C18.022 36.3609 18.1901 36.4076 18.3085 36.5082L18.3484 36.4583C18.1007 36.2534 17.8168 36.0692 17.4632 35.8897C16.2702 35.1324 14.9135 34.5832 13.9675 33.489C12.9287 32.2723 12.3773 30.5754 12.6063 28.9798C12.4648 29.1221 12.3291 29.2689 12.1781 29.3996C11.9884 29.5148 11.8136 29.5499 11.6509 29.5232C11.627 30.2797 11.7465 31.0367 11.9978 31.7492C12.5739 33.8075 14.2728 35.2336 16.1315 36.1473Z" fill="#2D1600"/>
<path id="Vector_8" d="M18.8092 38.4729C18.3054 37.7255 18.1039 37.4047 17.5753 37.0179C17.5912 37.0938 17.606 37.1621 17.6215 37.2354C17.6551 37.4001 17.6909 37.5618 17.727 37.7261C17.8722 38.4066 18.0174 39.0871 18.1515 39.7067C18.1663 39.7749 18.1807 39.8407 18.1887 39.8786C18.3545 40.6683 18.5279 41.4569 18.6822 42.183C18.697 42.2513 18.7114 42.317 18.719 42.3524C18.7371 42.4437 18.7577 42.5346 18.7764 42.631C18.7891 42.6839 18.7999 42.7423 18.8129 42.7978C18.8599 43.0205 18.9094 43.2428 18.9481 43.425C18.9592 43.486 18.9733 43.5491 18.9871 43.6097C19.0189 43.7616 19.0525 43.908 19.0843 44.0599C19.1016 44.146 19.1185 44.2296 19.1384 44.3154C19.1388 44.318 19.1388 44.318 19.1392 44.3206C19.1471 44.3585 19.1554 44.399 19.1633 44.437C19.2381 44.7835 19.3111 45.1354 19.3884 45.4815C19.3978 45.5297 19.4068 45.5753 19.4184 45.6206C19.5947 46.4479 19.7735 47.2748 19.9498 48.1021C19.9513 48.1123 19.9556 48.1247 19.9596 48.1346C19.9431 48.017 19.9269 47.902 19.9107 47.7871C19.8957 47.6615 19.9233 47.5612 19.9771 47.4807C19.994 47.3975 20.0351 47.3188 20.0918 47.2587C20.1777 47.1658 20.2873 47.1296 20.4106 47.1174C20.4931 47.111 20.5756 47.1046 20.6577 47.0957C20.5364 46.5291 20.4164 45.9727 20.3004 45.4444C20.2914 45.3988 20.282 45.3506 20.273 45.305C20.1953 44.9563 20.1223 44.6044 20.045 44.2583C20.036 44.2127 20.0269 44.167 20.0183 44.1239C20.0172 44.1163 20.0132 44.1064 20.0118 44.0962C19.9623 43.8556 19.9077 43.6158 19.872 43.4358C19.8586 43.3777 19.8449 43.3171 19.8341 43.2587C19.7882 43.0437 19.7394 42.8264 19.6928 42.6063C19.6827 42.553 19.6697 42.4975 19.6596 42.4442C19.639 42.3533 19.6213 42.2646 19.6029 42.1708C19.5906 42.1204 19.5808 42.0696 19.5682 42.0167C19.4067 41.2577 19.2423 40.4965 19.0783 39.7379C19.0631 39.667 19.0508 39.5984 19.0357 39.5276C18.9605 39.1786 18.8847 38.8244 18.8092 38.4729Z" fill="#2D1600"/>
<path id="Vector_9" d="M19.9847 47.4796C19.9334 47.5598 19.9059 47.6601 19.9184 47.786C19.9349 47.9035 19.9511 48.0185 19.9672 48.1335C20.0296 48.3358 20.2592 48.4494 20.4611 48.421C20.479 48.4185 20.4994 48.4156 20.5169 48.4106C20.6297 48.3791 20.7281 48.3001 20.7867 48.198C20.8493 48.0876 20.8514 47.9727 20.8265 47.8511C20.7727 47.5981 20.7163 47.3455 20.6654 47.0946C20.5832 47.1036 20.5008 47.11 20.4183 47.1164C20.2949 47.1285 20.1854 47.1648 20.0994 47.2576C20.0405 47.3206 19.9991 47.3968 19.9847 47.4796Z" fill="#2D1600"/>
<path id="Vector_10" d="M28.1199 29.414C28.0508 29.997 28.9326 30.1153 29.0196 29.5298C29.0986 28.5911 29.7275 27.6896 30.6491 27.4245C31.0359 27.3962 31.2764 26.9194 30.9748 26.6283C30.3555 26.1708 29.0826 27.2358 28.7337 27.7565C28.3881 28.2454 28.1902 28.8205 28.1199 29.414Z" fill="#2D1600"/>
<path id="Vector_11" d="M32.9492 46.1121C32.9441 46.1128 32.9361 46.1114 32.9258 46.1128C32.766 46.1249 32.6065 46.1395 32.4492 46.1512C32.5149 46.637 32.5799 47.1178 32.6482 47.6032C32.6586 47.6773 32.669 47.7514 32.6791 47.823C32.71 48.061 32.9589 48.2188 33.1888 48.1864C33.1939 48.1857 33.1991 48.185 33.2042 48.1843C33.3235 48.1623 33.4288 48.0954 33.4954 47.9948C33.5646 47.8939 33.582 47.7768 33.5651 47.6567C33.5138 47.273 33.4598 46.8898 33.4059 46.5065L33.4056 46.5039C33.3718 46.282 33.1773 46.1035 32.9492 46.1121Z" fill="#2D1600"/>
<path id="Vector_12" d="M32.4529 43.4016C29.9241 44.2627 27.1282 43.9108 24.6968 42.8899C23.3318 42.3185 22.2407 41.3046 21.2783 40.2048C20.611 39.4622 20.0216 38.6618 19.453 37.8428C19.0941 37.2549 18.7808 36.8247 18.3466 36.4611L18.3068 36.511C18.3665 36.5651 18.4127 36.6342 18.4297 36.7178C18.43 36.7203 18.4307 36.7254 18.4336 36.7276C18.4354 36.7404 18.4372 36.7532 18.4416 36.7656L18.442 36.7682C18.4423 36.7707 18.4423 36.7707 18.4427 36.7733L18.443 36.7758C18.4448 36.7886 18.4466 36.8014 18.4506 36.8112C18.451 36.8138 18.4513 36.8164 18.4517 36.8189C18.4679 36.8974 18.4846 36.9784 18.5012 37.0595C18.5369 37.2212 18.5727 37.383 18.6059 37.545C18.6728 37.8535 18.74 38.1646 18.8068 38.4731C18.9509 38.6821 19.1186 38.9295 19.3259 39.2183C20.1886 40.405 21.1758 41.5143 22.2827 42.4738C25.003 44.5666 28.8971 45.3166 32.2066 44.4107C32.1948 44.3264 32.1833 44.2446 32.1714 44.1603C32.1545 44.0402 32.1745 43.9228 32.2437 43.8218C32.3132 43.7235 32.4181 43.654 32.532 43.6302L32.4529 43.4016Z" fill="#2D1600"/>
<path id="Vector_13" d="M32.9253 46.1128C32.933 46.1117 32.941 46.1132 32.9487 46.1121C33.1771 46.1061 33.3712 46.282 33.405 46.5039C33.2987 45.7111 33.187 44.9165 33.0781 44.124C32.8305 44.2162 32.58 44.3061 32.3248 44.3811C32.2846 44.392 32.247 44.4025 32.2065 44.4108C32.2884 44.9934 32.3674 45.5737 32.4486 46.1512C32.6081 46.1366 32.768 46.1245 32.9253 46.1128Z" fill="#2D1600"/>
<path id="Vector_14" d="M30.2688 29.1143C29.4077 29.9208 30.2469 32.3303 31.4723 31.483C31.7867 31.1991 31.9877 30.72 31.9441 30.2988C31.8616 29.4896 31.1248 28.3269 30.2688 29.1143Z" fill="#2D1600"/>
<path id="Vector_15" d="M32.5325 43.6327C32.7687 43.589 33.0256 43.7483 33.0601 43.9936C33.0637 44.0192 33.0666 44.0396 33.0702 44.0652C33.0727 44.083 33.0759 44.106 33.0784 44.1239C34.8431 43.4432 36.4418 42.2672 37.5268 40.718C38.7786 38.9472 39.7616 36.9511 40.1151 34.796C40.6837 31.7247 40.2453 28.5891 39.4293 25.6031C38.9434 23.8344 38.4517 22.0614 37.8062 20.3438C37.712 20.2111 37.6222 20.0726 37.5305 19.9396C37.3475 20.1764 37.1562 20.4092 36.9506 20.6335C37.5616 22.2725 38.0414 23.9613 38.5081 25.6493C39.1394 28.0437 39.6311 30.4656 39.4232 32.952C39.3071 35.3682 38.4879 37.6957 37.1327 39.6947C36.0948 41.3936 34.4468 42.6443 32.5973 43.3526C32.5476 43.37 32.4983 43.3899 32.4483 43.4048L32.5325 43.6327Z" fill="#2D1600"/>
<path id="Vector_16" d="M32.3245 44.3786C32.5798 44.3036 32.8307 44.2162 33.0779 44.1215C33.0754 44.1036 33.0722 44.0806 33.0696 44.0627C33.0661 44.0372 33.0632 44.0167 33.0596 43.9912C33.0251 43.7459 32.7656 43.587 32.532 43.6302C32.4152 43.6519 32.3128 43.721 32.2436 43.8219C32.1745 43.9229 32.1545 44.0403 32.1714 44.1604C32.1832 44.2447 32.1947 44.3265 32.2066 44.4108C32.2471 44.4025 32.2844 44.3895 32.3245 44.3786Z" fill="#2D1600"/>
<path id="Vector_17" d="M32.9583 35.9719C32.4503 35.676 31.9979 36.4614 32.5111 36.7566C32.6364 36.8328 32.764 36.906 32.893 36.9713C32.9717 36.6788 33.1044 36.3995 33.2871 36.1602C33.1726 36.1059 33.0643 36.0404 32.9583 35.9719Z" fill="#2D1600"/>
<path id="Vector_18" d="M32.4486 35.7753C32.0665 36.3372 31.6132 37.709 32.1119 38.272C32.4095 38.5168 32.9064 38.2333 32.8313 37.8477C32.7929 37.5561 32.8158 37.2558 32.8905 36.9717C32.7615 36.9065 32.6314 36.8336 32.5086 36.7571C31.9954 36.4618 32.4481 35.679 32.9558 35.9724C33.0619 36.0408 33.1726 36.106 33.2849 36.1632C33.3526 36.0703 33.4287 35.9814 33.5114 35.9021C33.658 35.759 33.8982 35.7069 33.9392 35.4797C34.011 35.1934 33.7974 34.916 33.5022 34.9106C33.0324 34.961 32.7173 35.4249 32.4486 35.7753Z" fill="#2D1600"/>
<path id="Vector_19" d="M33.2873 36.1604C33.1047 36.3998 32.972 36.679 32.8932 36.9715C33.7819 37.4354 34.7852 37.6773 35.7832 37.7141C36.2069 37.6702 36.7941 37.8247 37.0832 37.4349C37.2686 37.1222 36.9856 36.7034 36.6267 36.7643C36.5384 36.7845 36.4092 36.7923 36.3446 36.7961C35.5748 36.8627 34.7993 36.7399 34.066 36.4913C33.8002 36.3984 33.5351 36.2923 33.2873 36.1604Z" fill="#2D1600"/>
<path id="Vector_20" d="M34.8202 33.9252C34.3618 34.2971 34.9186 34.9953 35.381 34.6332C35.9824 34.0926 36.5791 33.3886 36.6142 32.5446C36.4559 31.8451 35.9901 31.2383 35.7883 30.5449C35.2694 28.8929 35.2406 26.9844 35.9725 25.3884C36.1605 25.0024 36.3963 24.6409 36.6179 24.271C36.8003 23.9561 36.5268 23.5307 36.1606 23.5953C35.7945 23.6598 35.7166 24.0877 35.5153 24.3427C35.1491 24.944 34.8466 25.591 34.7094 26.2826C34.2326 28.4316 34.6375 30.6807 35.7084 32.5886C35.6127 33.131 35.21 33.5655 34.8202 33.9252Z" fill="#2D1600"/>
<path id="Vector_21" d="M36.7873 27.0509C36.2804 27.7633 36.7824 29.8319 37.9055 29.2206C38.3834 28.7834 38.2984 27.568 37.9609 27.0579C37.6866 26.6639 37.0568 26.6326 36.7873 27.0509Z" fill="#2D1600"/>
<path id="Vector_22" d="M37.4202 19.3584C37.1315 18.8805 36.3895 19.2741 36.6216 19.7756C36.737 20.0591 36.8448 20.3435 36.9529 20.6306C37.1581 20.4037 37.3498 20.1735 37.5328 19.9367C37.6245 20.0697 37.7143 20.2082 37.8085 20.3409C37.6895 20.0137 37.5596 19.6828 37.4202 19.3584Z" fill="#2D1600"/>
<path id="Vector_23" d="M-3.51215 76.7971C-3.05875 64.0696 3.69766 54.2495 16.289 51.0115C17.5894 50.7166 18.9356 50.3944 20.2756 50.3622C20.1838 49.6169 20.0719 48.877 19.9651 48.1363C20.0274 48.3386 20.2571 48.4522 20.459 48.4239C20.4768 48.4213 20.4973 48.4185 20.5148 48.4134C20.6276 48.3819 20.726 48.3029 20.7846 48.2009C20.8472 48.0904 20.8493 47.9755 20.8244 47.8539C20.7705 47.6009 20.7142 47.3483 20.6633 47.0975C21.8104 47.0091 22.9567 46.9156 24.1035 46.8247C25.6338 46.7006 27.1616 46.577 28.6894 46.4533C29.4934 46.3897 30.2946 46.3239 31.0986 46.2603C31.4698 46.2316 31.8355 46.201 32.2067 46.1722C32.2866 46.1662 32.3662 46.1576 32.4461 46.1516C32.5118 46.6374 32.5768 47.1182 32.6451 47.6036L32.676 47.8234C32.7069 48.0614 32.9558 48.2192 33.1857 48.1868L33.2011 48.1847C33.3204 48.1627 33.4257 48.0958 33.4923 47.9952C33.5615 47.8943 33.5789 47.7772 33.562 47.6571C33.5107 47.2734 33.4568 46.8902 33.4028 46.5069C33.5114 46.7783 33.4959 47.1687 33.5625 47.4199C33.6565 47.9956 33.7304 48.5767 33.8036 49.1526C33.9098 49.1664 34.0185 49.1797 34.1203 49.1811C34.2079 49.1922 34.2973 49.1979 34.3866 49.2035C34.41 49.2028 34.4312 49.2051 34.4549 49.207C36.8734 49.5808 39.2624 50.1515 41.5874 50.9163C47.4763 52.7693 52.7063 56.625 56.1202 61.7783C58.5532 65.5531 60.092 69.8055 61.7711 73.9443C63.1252 77.6989 64.514 81.4408 65.8009 85.2178C66.0633 86.046 66.3213 86.88 66.5862 87.7078C66.6467 88.0824 66.981 88.7363 67.1334 89.3194L48.284 91.9705C48.1048 91.9931 47.9922 92.1002 47.9404 92.2325C47.1934 92.4418 46.8413 93.2548 46.7982 94.1155C46.7912 94.1582 46.7915 94.1973 46.7917 94.2363C46.788 94.4323 46.8026 94.6283 46.8299 94.8224C46.8877 95.2338 47.0121 95.6176 47.1931 95.9231C47.2367 96.029 47.3269 96.17 47.4503 96.3247C47.5456 96.4468 47.6632 96.5787 47.7906 96.7067C47.157 96.7959 46.5233 96.885 45.8892 96.9716C45.6465 97.0057 45.4745 97.2462 45.5112 97.4885C45.5266 97.5984 45.5812 97.6898 45.6609 97.7567L30.7184 99.8584C30.6773 99.4733 30.6281 99.0868 30.5786 98.6977C30.1109 95.1128 29.3606 91.5574 29.0564 87.9496C28.9247 86.1232 28.6779 84.2949 28.6184 82.4636C28.6643 82.4937 28.7073 82.5215 28.747 82.5445C29.681 82.9786 30.785 82.5471 31.5814 82.0026L31.5839 82.0022C31.994 82.3797 32.593 82.4518 33.1264 82.3533C34.0218 82.2352 34.7724 81.6997 34.7777 80.7922C34.8029 80.786 34.8252 80.7777 34.85 80.769C34.9629 80.701 35.0208 80.6121 35.0483 80.5118C35.8713 80.4533 36.828 80.1598 37.0277 79.2823C37.2135 78.2321 37.1068 77.158 37.0981 76.096C37.0251 75.2438 37.21 74.3162 36.7993 73.5272C36.6132 73.1859 36.3058 72.9269 36.0243 72.6668C35.8072 72.4759 35.5923 72.282 35.3753 72.0911C35.6224 72.0693 35.8702 72.0527 36.1132 72.0394C37.3091 72.5018 38.409 72.8369 39.4048 73.0434C40.4197 73.4974 41.4852 73.8296 42.6027 73.6047C43.5292 73.4483 45.566 72.6641 45.4361 71.4994C45.4297 71.4169 45.4098 71.3311 45.3768 71.2446C44.9079 69.6898 31.7846 67.33 31.7846 67.33C31.7846 67.33 23.7678 72.598 21.8942 74.0236C19.9945 75.5416 17.9838 77.0855 16.761 79.23C16.3933 80.0244 16.0777 80.8374 15.8059 81.6652C15.6252 79.9917 15.4471 78.3178 15.3048 76.6389C15.2888 76.4692 15.2723 76.2969 15.2614 76.1265C15.405 76.0359 15.4845 75.8788 15.5786 75.7327C15.9748 75.1037 16.3955 74.4817 16.7909 73.8477C17.2201 73.175 17.6004 72.47 17.942 71.7497C18.0487 71.5263 17.9132 71.2483 17.6948 71.1591C17.3124 70.9966 17.0871 71.3775 16.9711 71.683C16.4921 72.6676 15.8945 73.5881 15.2967 74.506C15.2636 74.5862 15.208 74.6722 15.1454 74.7644C15.071 73.8837 14.9992 73.0027 14.938 72.1227C14.8955 71.5242 14.8559 70.9278 14.8288 70.3271C14.8176 70.0812 14.6298 69.8757 14.3747 69.8777C14.1349 69.8775 13.9137 70.0832 13.9252 70.3317C14.0356 72.5988 14.242 74.8628 14.4455 77.1246C14.4562 77.2377 14.4665 77.3483 14.4772 77.4615C14.3257 77.5323 14.2133 77.6784 14.2264 77.8642C14.3594 79.9952 14.5314 82.1259 14.8392 84.2401C14.8578 84.373 14.9182 84.4687 15.0075 84.5291C14.4941 86.6963 14.1496 88.9153 13.7661 91.0981C13.5467 90.9466 13.2175 90.9772 13.0784 91.3408C13.0751 91.3542 13.0696 91.3707 13.0663 91.3842C11.5798 91.6532 10.0962 91.9244 8.61189 92.1905C7.08962 92.4645 5.56552 92.744 4.0458 93.0177C2.7933 93.2459 1.53786 93.472 0.282801 93.7007C0.171209 93.3333 0.0548696 92.9693 -0.0582052 92.6099C-0.0589241 92.6048 -0.0618449 92.6026 -0.0625638 92.5975C-0.13978 92.3634 -0.423443 92.2548 -0.645857 92.3408C-0.75725 92.3825 -0.847206 92.4655 -0.897068 92.5742C-0.908443 92.6044 -0.919812 92.6347 -0.926081 92.6643C-1.34336 91.4019 -1.68068 90.1152 -2.04283 88.8372C-3.1404 84.9241 -3.67311 80.8585 -3.51215 76.7971ZM48.4519 66.5049C50.9361 71.273 53.0031 76.2615 54.4508 81.4412C54.8887 82.9796 55.2385 84.5407 55.5325 86.1123C55.6036 86.5061 55.6625 86.9069 55.7182 87.303C55.794 87.8786 56.7 87.7616 56.6126 87.1772C55.3708 79.2377 52.2595 71.6967 48.4895 64.6417C48.3092 64.3049 47.7497 64.3836 47.6642 64.7578C47.6539 65.296 48.2789 66.0159 48.4519 66.5049Z" fill="#FF9494"/>
</g>
</g>
<rect x="0.5" y="0.5" width="59" height="59" rx="29.5" stroke="#2D1600"/>
</g>
<defs>
<clipPath id="clip0_6474_7237">
<rect width="60" height="60" rx="30" fill="white"/>
</clipPath>
</defs>
</svg>
