<svg width="60" height="60" viewBox="0 0 60 60" fill="none" xmlns="http://www.w3.org/2000/svg">
<g id="expert ava">
<g clip-path="url(#clip0_6474_3186)">
<g id="Group">
<path id="Vector" d="M59.295 66.1875L61.4176 61.7485C61.5037 61.5526 61.592 61.3589 61.6802 61.163C61.7297 60.9477 61.9127 60.7109 61.9752 60.5214C62.1366 60.2007 62.1043 59.8799 62.2636 59.5548C62.044 58.6593 61.6824 57.5571 61.4047 56.6809C61.0344 55.6175 60.5134 54.6143 59.9645 53.6326C58.2595 50.4594 55.5535 47.7319 52.1564 46.4295C51.3965 46.1582 50.6151 45.9623 49.8207 45.8289C49.4612 46.24 49.0737 46.6275 48.6733 46.9957C48.6108 47.0516 48.5441 47.0818 48.4795 47.0904C48.4214 47.1119 48.3504 47.1184 48.2685 47.1011C47.3601 46.888 46.415 46.86 45.4872 46.7459C44.1094 46.5866 42.7187 46.6038 41.3324 46.6082C41.1472 46.6082 40.9642 46.606 40.7791 46.6039C40.2022 48.9396 39.3303 51.1871 38.3099 53.3614C37.3885 55.3957 36.4348 57.4258 35.07 59.2018C34.3811 58.9176 33.746 58.6227 33.0615 58.2697C30.9431 57.2471 28.9239 56.0437 26.9326 54.7908C24.3191 53.2688 21.8413 51.5315 19.568 49.5381C19.4345 49.5919 19.301 49.6457 19.1675 49.7017C19.0276 49.7619 18.8511 49.8631 18.6896 49.8911C18.6552 49.9557 18.5971 50.0095 18.5088 50.044C17.0169 50.6015 15.4949 51.1569 14.1624 52.0439C13.7318 52.3173 13.3142 52.6122 12.8901 52.8921C12.6899 53.004 12.4574 53.2817 12.2292 53.2817C12.156 53.2817 12.085 53.2537 12.0118 53.1784C11.9041 53.1891 11.7965 53.1891 11.6975 53.1848C11.3595 53.1612 11.0301 53.075 10.7094 52.9717C5.96037 56.6142 3.9949 62.6118 3.37706 68.6007C3.06706 71.1776 2.90345 73.7824 3.06061 76.3765C3.12088 77.3495 3.23283 78.3183 3.42873 79.2741C3.51269 79.5669 3.51914 79.9479 3.79254 80.1374C3.82053 80.1546 3.85067 80.1654 3.87865 80.1718C3.92601 80.202 3.98199 80.2213 4.04226 80.2213C4.04872 80.2213 4.05303 80.2213 4.05949 80.2213C4.06164 80.2213 4.06379 80.2213 4.0681 80.2213C6.46197 80.1998 8.85798 80.174 11.254 80.1481C12.86 80.1309 14.4659 80.118 16.0697 80.1008C15.9126 80.0857 15.764 79.9781 15.7662 79.7714C15.6456 77.2527 15.172 74.7533 14.8879 72.2475C14.7501 71.113 14.5929 69.9807 14.4035 68.8548C14.1086 67.1046 13.7318 65.3716 13.2345 63.6623C13.157 63.376 13.0839 63.0897 13.0085 62.8034C12.8901 62.3836 13.5532 62.192 13.6672 62.6204C14.1602 64.3167 14.5649 66.0303 14.8922 67.7612C15.3765 66.1853 15.5703 64.5299 15.7425 62.8959C15.792 62.4611 16.4852 62.5493 16.4185 62.9863C16.3367 63.6752 15.919 68.0023 15.1031 68.9344C15.3292 70.2648 15.5165 71.606 15.6672 72.9493C15.9255 75.214 16.3582 77.4959 16.4486 79.7714C16.4486 79.9781 16.2979 80.0879 16.1365 80.1008C17.2903 80.0879 18.4399 80.0749 19.5938 80.0663C22.4699 80.0383 25.3481 80.0082 28.2242 79.9802C31.0981 79.9522 33.9742 79.9243 36.8503 79.8963C39.6446 79.8661 42.441 79.8403 45.2353 79.8102C48.0963 79.7822 50.9595 79.752 53.8227 79.7262C56.5997 79.6982 59.3746 79.6702 62.1538 79.6422C64.7694 79.6164 67.385 79.5906 70.0006 79.5647C70.0846 79.5626 70.1599 79.5346 70.2202 79.4829C70.3688 79.4657 70.4958 79.3495 70.5216 79.1945C70.5883 78.7984 70.6551 78.4022 70.7197 78.004C70.9048 76.8867 71.0899 75.7716 71.2751 74.6543C71.4602 73.5413 71.6432 72.4305 71.8283 71.3154C71.9187 70.7686 72.401 68.1939 72.444 67.6062C72.4074 67.66 59.2605 66.3963 59.295 66.1875Z" fill="#FF9494"/>
<path id="Vector_2" d="M91.9178 47.1505C91.3581 47.1936 90.8715 47.5509 90.4604 47.9083C90.0126 48.412 89.8468 49.1095 89.6509 49.7338C89.5777 50.0008 89.5088 50.2699 89.4378 50.5346C89.3151 50.9975 89.1945 51.456 89.0525 51.9124C88.9793 52.0911 88.919 52.3752 88.7812 52.5302C88.7704 52.5432 88.7575 52.5561 88.7468 52.5668C88.736 52.5776 88.7252 52.5841 88.7145 52.5905C88.7145 52.5927 88.7123 52.5927 88.7123 52.5948C88.6585 52.6723 88.5832 52.7154 88.4949 52.7369C88.4475 52.7477 88.3959 52.7563 88.3464 52.7671C88.2107 52.795 88.0751 52.823 87.9395 52.851C87.6596 52.907 87.3776 52.9651 87.0978 53.0211C86.5466 53.133 85.9955 53.245 85.4444 53.3569C84.8869 53.471 84.3272 53.5851 83.7696 53.697C83.7481 53.7013 83.7287 53.7035 83.705 53.7035C83.5479 53.7035 83.4015 53.5851 83.3713 53.4236C83.3369 53.2407 83.4617 53.0641 83.6426 53.0275C84.6587 52.8187 85.6726 52.6142 86.6887 52.4097C87.0202 52.3408 87.3518 52.2741 87.6833 52.2052C87.8426 52.175 87.9998 52.1406 88.1569 52.1105C88.1892 52.104 88.2236 52.0975 88.2559 52.0911C88.3377 51.8995 88.4066 51.7057 88.4605 51.5206C88.5315 51.2687 88.6025 51.0147 88.6714 50.7628C87.6359 50.7241 86.6005 50.6853 85.5628 50.6466C84.3616 50.6014 83.1582 50.5562 81.9527 50.511C80.7622 50.4658 79.5674 50.4227 78.3748 50.3775C77.1994 50.3323 76.024 50.2892 74.8486 50.2462C74.6656 50.2397 74.4804 50.2311 74.2953 50.2246C74.1941 50.2203 74.0951 50.2182 73.9939 50.2139H73.9616C73.6947 50.4421 73.417 50.6573 73.1328 50.864C72.8422 51.0793 72.5473 51.286 72.2459 51.4862C72.0909 51.5895 71.8713 51.5314 71.7744 51.3764C71.5419 50.9458 72.1598 50.7736 72.4073 50.5497C72.6269 50.3926 72.8443 50.2311 73.0596 50.0696C73.1522 50.0008 73.2404 49.9297 73.3309 49.8544C73.3545 49.835 73.3804 49.8156 73.4041 49.7919C73.4363 49.7661 73.4665 49.7403 73.4988 49.7123C73.5117 49.6994 73.5246 49.6886 73.5375 49.6778C73.5612 49.6585 73.5827 49.6412 73.6064 49.6197C73.6129 49.6133 73.6193 49.6068 73.6236 49.6025H73.6258L73.6344 49.5939C73.6387 49.5917 73.643 49.5874 73.6473 49.5831C73.7119 49.525 73.7743 49.4669 73.8368 49.4066C73.7722 49.4044 73.7054 49.4044 73.6387 49.4044H73.8411C74.4223 48.8447 74.9218 48.2075 75.3502 47.5315C75.587 47.1591 76.222 45.9536 75.757 45.6436C75.1198 45.5467 74.4654 45.8007 73.9013 46.0784C72.9348 46.5779 72.1059 47.2969 71.3073 48.0267C70.881 48.4185 70.4677 48.8253 70.0673 49.2408C69.3246 50.0072 68.6185 50.808 67.9404 51.6325C67.7746 51.8414 67.6239 52.0287 67.4754 52.2138H67.499C67.4194 52.3085 67.3397 52.4054 67.2622 52.5001C67.1503 52.6314 67.0405 52.7627 66.9329 52.8962C66.92 52.9134 66.907 52.9285 66.892 52.9457C66.4679 53.471 66.0632 54.0049 65.6864 54.5689C64.7327 55.9122 63.9448 57.361 63.2107 58.8314C62.9438 59.3653 62.5542 59.7657 62.2937 60.2996C62.2937 60.2996 59.4843 66.7923 59.3875 66.9968C59.3788 67.0205 59.3724 67.0441 59.3638 67.0678C59.6264 67.0807 59.8933 67.0937 60.156 67.1087C60.748 67.141 61.34 67.1733 61.932 67.2035C63.1462 67.2723 64.3582 67.3369 65.5745 67.4037C66.7499 67.4682 67.9253 67.5328 69.1007 67.5974C69.9726 67.6448 70.8487 67.6921 71.7206 67.7395C71.7572 67.5264 71.7938 67.3132 71.8325 67.098C71.9531 66.3467 72.0521 65.5889 72.1662 64.8354C72.3449 63.7633 72.4977 62.6848 72.7173 61.6192C72.7668 61.3544 72.8228 61.0961 72.8852 60.8377C72.9046 60.5988 73.079 60.3727 73.3373 60.4395C73.9164 60.2737 74.5106 60.1446 75.0875 59.9788C79.9764 58.7603 84.8266 57.3675 89.5648 55.6431C89.5842 55.6367 89.6014 55.6324 89.6208 55.6281C89.6208 55.6281 89.6229 55.6281 89.6251 55.6281C89.864 55.5376 90.1418 55.4709 90.258 55.2793C90.3527 55.0985 90.4367 54.9134 90.5077 54.7218C90.8048 53.9575 90.949 53.1395 91.1428 52.343C91.4743 51.0578 91.6637 49.7446 91.8166 48.4292C91.836 48.2592 91.8596 48.087 91.8812 47.9147C91.9092 47.6607 91.9328 47.4045 91.9178 47.1505ZM77.8323 54.4161C77.6019 54.4225 77.3716 54.4441 77.1434 54.4763C76.7516 54.5409 76.377 54.683 76.0132 54.8294C75.0918 55.2233 74.2953 55.8799 73.6904 56.6743C73.5827 56.8228 73.4729 56.9714 73.3911 57.1371C73.3847 57.2233 73.3416 57.3051 73.2792 57.3632C73.1457 57.4837 72.9111 57.4837 72.7948 57.3395C72.2889 56.7281 74.4417 54.8681 74.9799 54.5947C75.6774 54.19 76.4481 53.8714 77.2532 53.7745C77.6127 53.7638 78.321 53.5442 78.3511 54.091C78.3403 54.3666 78.0648 54.4462 77.8323 54.4161Z" fill="white"/>
<path id="Vector_3" d="M52.332 38.9936C52.4784 40.352 52.0608 41.6867 51.6281 42.959C51.2061 44.0224 50.5689 44.974 49.8155 45.8286C48.5669 45.6155 47.2903 45.5444 46.0288 45.538C44.5649 45.5014 43.101 45.5251 41.6436 45.6887C41.2927 45.6779 40.8385 45.8674 40.888 46.1451C40.8492 46.2269 40.8212 46.3302 40.8105 46.4572C40.7976 46.5067 40.7846 46.5541 40.7739 46.6036C39.5124 46.5928 38.253 46.5605 36.9915 46.6316C36.9226 46.6294 36.8494 46.6402 36.7762 46.651C36.6191 46.6703 36.4619 46.6897 36.3284 46.5993C36.2854 46.5692 36.2509 46.5261 36.2316 46.483C36.0981 46.4378 36.0012 46.3151 35.9948 46.1709C35.9603 45.0945 35.9216 44.0181 35.8871 42.9418C35.8484 41.8094 35.8096 40.6771 35.7709 39.5469C35.7709 39.5167 35.7687 39.4866 35.7687 39.4564C35.7558 39.4285 35.7472 39.3962 35.7429 39.3617C35.7213 39.0496 35.6998 38.7331 35.6718 38.4188C33.7882 39.2993 31.6785 39.6437 29.6097 39.493C29.614 39.2692 29.6204 39.0453 29.6247 38.8214C30.1952 38.8623 30.7958 38.858 31.4309 38.8149C33.3275 38.6578 35.2736 38.1131 36.8042 36.9485C36.8666 36.8731 36.9441 36.8042 37.0087 36.7397C37.1659 36.5717 37.3165 36.3952 37.4651 36.2187C38.4683 35.0842 39.3595 33.8442 39.986 32.46C41.1807 29.9714 41.4843 27.1771 41.2518 24.4517C41.1441 22.8156 40.8686 21.1623 40.2508 19.6381C39.7685 18.4627 39.084 17.3777 38.2874 16.3918C38.0528 16.1055 37.8095 15.8278 37.5383 15.5716C37.5318 15.5651 37.5254 15.5587 37.5189 15.5522C36.3564 16.9838 34.8839 18.1527 33.3684 19.2054C30.7722 21.0913 28.0037 22.751 25.063 24.0427C23.7822 24.54 22.2386 25.3925 20.9771 24.413C20.1397 23.864 19.3216 23.2096 18.3098 23.0352C17.2507 22.8759 15.9978 23.3215 15.4897 24.3096C15.085 25.3666 15.4617 26.7121 16.0602 27.6313C16.706 28.5183 17.4681 29.2588 18.4605 29.7217C18.7382 29.8487 19.0246 29.9628 19.3195 30.0467C19.3776 30.0317 19.4422 30.036 19.5068 30.064C19.6747 30.1845 19.8964 30.191 20.0407 30.3503C20.0579 30.3696 20.0729 30.389 20.088 30.4106C20.2473 30.5203 20.3894 30.6452 20.4691 30.7399C21.6746 31.8744 22.2752 33.4438 23.1729 34.8043C23.3817 35.2284 23.6056 35.6439 23.7994 36.0766C23.991 36.505 24.1567 36.9485 24.3074 37.3941C24.3612 37.5491 24.4129 37.7041 24.4624 37.8612C24.471 37.9883 24.4796 38.1131 24.4861 38.238C24.555 39.2842 24.6217 40.3305 24.6885 41.3767C24.7143 41.7793 24.738 42.1818 24.766 42.5844C24.8327 43.622 24.8973 44.6618 24.964 45.6994C24.9705 45.792 24.9769 45.8846 24.9834 45.975C25.0114 46.4378 25.0415 46.9028 25.0717 47.3635C25.063 47.3635 25.0544 47.3657 25.0458 47.3657C25.0437 47.3657 25.0415 47.3657 25.0415 47.3657C25.0092 47.4432 24.9425 47.5099 24.8392 47.5487C23.0825 48.2203 21.3022 48.8382 19.5584 49.5443C19.5175 49.512 19.4766 49.4754 19.4379 49.4409C19.369 49.3871 19.3023 49.3311 19.2355 49.2773C19.1752 49.1568 19.0504 49.0707 18.8911 49.0922C18.8114 49.0857 18.7447 49.1116 18.6866 49.1525C16.8976 49.7208 15.1582 50.457 13.4747 51.2815C12.4586 51.7638 11.5351 52.3342 10.6998 52.9779C10.575 52.9392 10.4501 52.8961 10.3296 52.8552C9.43186 52.5301 8.52985 52.1922 7.7075 51.7035C5.1737 50.1191 3.52254 47.1569 3.7701 44.1473C4.00475 40.8493 5.77432 38.8343 7.5891 36.2876C8.94749 34.3135 9.78491 31.9132 9.58686 29.4999C9.02499 25.0502 9.43401 20.9169 11.604 16.9257C12.788 14.7966 14.4715 12.9603 16.3013 11.3694C18.4067 9.54602 20.863 8.18978 23.5088 7.33298C26.7164 6.32979 30.46 5.50098 33.7753 6.35563C37.7622 7.56763 41.8395 10.0648 44.2979 13.4748C45.3011 14.9516 45.7877 16.7061 46.2892 18.3982C47.1719 21.4766 47.1073 24.7122 47.5508 27.8638C47.8112 29.6765 48.3753 31.4374 49.4021 32.9573C50.5625 34.8646 52.1297 36.6815 52.332 38.9936Z" fill="#2D1600"/>
<path id="Vector_4" d="M46.0298 45.5378C47.2913 45.5443 48.5679 45.6153 49.8165 45.8284C49.457 46.2396 49.0695 46.6271 48.6691 46.9952C48.6066 47.0512 48.5399 47.0792 48.4753 47.09C48.4172 47.1115 48.3462 47.1179 48.2644 47.1007C47.3559 46.8876 46.4108 46.8596 45.483 46.7455C44.1052 46.5862 42.7145 46.6034 41.3282 46.6077C41.143 46.6077 40.96 46.6056 40.7749 46.6034C40.7878 46.5539 40.8007 46.5066 40.8115 46.457C40.8223 46.3279 40.8481 46.2245 40.889 46.1449C40.8395 45.8672 41.2937 45.6777 41.6446 45.6885C43.102 45.5249 44.5659 45.4991 46.0298 45.5378Z" fill="#2D1600"/>
<path id="Vector_5" d="M41.254 24.4519C41.4886 27.1773 41.1829 29.9715 39.9882 32.4601C39.3617 33.8443 38.4705 35.0843 37.4673 36.2188C37.3187 36.3954 37.1681 36.5719 37.0109 36.7398C36.9442 36.8044 36.8688 36.8754 36.8064 36.9486C35.2736 38.1133 33.3297 38.6579 31.4331 38.8151C30.798 38.8581 30.1974 38.8624 29.6269 38.8215C29.6226 39.0454 29.6162 39.2693 29.6119 39.4932C31.6807 39.6439 33.7925 39.2994 35.674 38.419C35.702 38.7333 35.7236 39.0497 35.7451 39.3619C35.7494 39.3963 35.758 39.4286 35.7709 39.4566C35.7709 39.4867 35.7731 39.5169 35.7731 39.547C35.8118 40.6772 35.8506 41.8096 35.8893 42.9419C35.9238 44.0183 35.9625 45.0947 35.997 46.171C36.0034 46.3153 36.1003 46.438 36.2338 46.4832C36.2553 46.5263 36.2876 46.5671 36.3306 46.5994C36.4641 46.6899 36.6213 46.6705 36.7784 46.6511C36.8516 46.6403 36.9248 46.6296 36.9937 46.6317C38.2552 46.5607 39.5146 46.5951 40.7761 46.6037C40.1991 48.9395 39.3273 51.187 38.3069 53.3613C37.3855 55.3956 36.4318 57.4257 35.067 59.2017C34.3781 58.9175 33.743 58.6226 33.0584 58.2696C30.9401 57.247 28.9208 56.0436 26.9295 54.7907C24.3161 53.2687 21.8383 51.5314 19.5649 49.538C21.3087 48.834 23.089 48.2162 24.8457 47.5423C24.949 47.5058 25.0157 47.4369 25.048 47.3594C25.048 47.3594 25.0502 47.3594 25.0523 47.3594C25.0609 47.3594 25.0696 47.3572 25.0782 47.3572C25.048 46.8944 25.0179 46.4294 24.9899 45.9687C24.9834 45.8783 24.977 45.7857 24.9705 45.6931C24.9016 44.6555 24.8371 43.6157 24.7725 42.5781C24.7445 42.1755 24.7208 41.773 24.695 41.3704C24.6261 40.3242 24.5593 39.2779 24.4926 38.2317C24.4862 38.1047 24.4775 37.9798 24.4689 37.8549C24.4194 37.6999 24.3678 37.5449 24.3139 37.3878C24.1632 36.9422 23.9975 36.5009 23.8059 36.0703C23.6121 35.6376 23.3882 35.2221 23.1794 34.798C22.2817 33.4375 21.6811 31.8681 20.4756 30.7336C20.3938 30.6389 20.2538 30.514 20.0945 30.4042C20.0795 30.3827 20.0644 30.3633 20.0472 30.344C19.9029 30.1847 19.6812 30.1782 19.5133 30.0576C19.4487 30.0297 19.3841 30.0275 19.326 30.0404C19.0311 29.9565 18.7447 29.8424 18.467 29.7154C17.4746 29.2525 16.7104 28.512 16.0667 27.625C15.4682 26.7058 15.0915 25.3603 15.4962 24.3033C16.0043 23.3152 17.2572 22.8696 18.3163 23.0289C19.3281 23.2054 20.144 23.8577 20.9836 24.4067C22.2473 25.3862 23.7887 24.5337 25.0696 24.0364C28.0124 22.7447 30.7787 21.0849 33.3749 19.1991C34.8904 18.1464 36.3629 16.9775 37.5254 15.5459C37.5319 15.5524 37.5383 15.5588 37.5448 15.5653C37.8139 15.8215 38.0593 16.0992 38.2939 16.3855C39.0905 17.3714 39.775 18.4564 40.2573 19.6318C40.8708 21.1624 41.1464 22.8158 41.254 24.4519ZM39.9882 25.2828C40.1281 24.7769 40.0721 23.8297 39.6222 23.4939C39.3962 23.3346 39.0797 23.3841 38.9139 23.6058C38.675 23.9546 38.7374 24.4196 38.7525 24.82C38.802 25.1558 38.7223 25.6014 39.0776 25.7866C39.465 26.0449 39.8891 25.6682 39.9882 25.2828ZM39.3682 21.3691C39.5641 21.1711 39.9753 21.0483 39.8353 20.6974C39.7234 20.424 39.3811 20.452 39.196 20.6329C38.8537 20.8869 38.548 21.1947 38.2703 21.5198C37.8957 21.9697 37.5814 22.4756 37.3596 23.0181C36.843 24.3528 36.9097 25.8899 37.4199 27.2182C37.6352 27.808 37.8785 28.3849 38.1583 28.9468C38.1992 29.0372 38.2487 29.1578 38.2401 29.2633C37.9452 30.0792 36.7009 30.1007 36.9399 30.6647C37.1487 31.0888 37.5814 30.7444 37.8569 30.5851C38.1605 30.4021 38.4511 30.1911 38.6621 29.9048C39.2519 29.1772 38.6728 28.5443 38.4016 27.836C38.0722 27.0481 37.7428 26.2408 37.7062 25.3797C37.5878 24.1117 38.0033 22.8373 38.8537 21.8879C39.013 21.7092 39.1852 21.5327 39.3682 21.3691ZM38.436 33.2459C38.6061 33.1684 38.6901 32.9725 38.619 32.7981C38.4403 32.4214 38.0744 32.6711 37.7967 32.7658C37.5792 32.839 37.3596 32.9057 37.1358 32.9531C36.2639 33.1727 35.364 33.022 34.5288 32.7228C34.5654 32.6668 34.6106 32.6151 34.6536 32.5635C34.9636 32.2448 34.4879 31.7691 34.1736 32.0812C33.9691 32.3008 33.8011 32.5591 33.7215 32.8498C33.6978 32.9273 33.6827 33.0069 33.6741 33.0887C33.6548 33.3578 33.6289 33.7367 33.9152 33.8766C34.1305 33.9735 34.3931 33.7991 34.391 33.5645C34.3802 33.5042 34.3673 33.4439 34.3609 33.3858C34.8151 33.5473 35.3038 33.6721 35.7881 33.7195C36.3392 33.7841 36.8925 33.7195 37.4307 33.5882C37.7687 33.4999 38.1131 33.3923 38.436 33.2459ZM33.2995 26.4453C34.2855 26.525 33.9949 24.0148 33.3706 23.7005C32.4815 23.2678 32.4191 24.6521 32.4837 25.2182C32.5267 25.7112 32.7506 26.3441 33.2995 26.4453ZM32.8109 21.7889C32.9895 21.7222 33.0929 21.5112 33.0111 21.3325C32.7527 20.818 32.1349 21.4229 31.8163 21.6016C31.1812 22.0817 30.5203 22.9126 30.4213 23.7178C30.4213 23.9029 30.5763 24.0579 30.7614 24.0579C31.0392 24.0514 31.0951 23.8233 31.1296 23.5994C31.3276 23.0935 31.6527 22.6349 32.0574 22.2776C32.2899 22.0881 32.5482 21.9288 32.8109 21.7889ZM19.5736 25.2032C19.6489 25.0288 19.5606 24.8329 19.3927 24.7554C18.9686 24.5746 18.5079 24.3464 18.0343 24.4626C17.1775 24.6542 17.1711 25.7844 17.4402 26.4496C17.72 27.2957 18.4606 27.9824 19.3045 28.2472C19.7264 28.2967 19.8405 27.6853 19.4315 27.5777C18.6823 27.2849 18.0709 26.6046 17.9719 25.793C17.9439 25.2613 18.0559 24.9642 18.6371 25.186C18.9342 25.2742 19.3734 25.6208 19.5736 25.2032Z" fill="white"/>
<path id="Vector_6" d="M39.6199 23.494C40.072 23.8298 40.1258 24.777 39.9859 25.2829C39.889 25.6683 39.4628 26.045 39.0731 25.7867C38.7158 25.6016 38.7976 25.1559 38.7481 24.8201C38.733 24.4175 38.6706 23.9525 38.9095 23.6059C39.0774 23.3842 39.3939 23.3325 39.6199 23.494Z" fill="#2D1600"/>
<path id="Vector_7" d="M39.8332 20.6973C39.9731 21.0482 39.5619 21.1731 39.366 21.369C39.183 21.5326 39.0108 21.7091 38.8494 21.8921C37.999 22.8415 37.5835 24.1137 37.7019 25.3839C37.7364 26.2471 38.0679 27.0523 38.3973 27.8402C38.6685 28.5484 39.2476 29.1813 38.6578 29.909C38.449 30.1953 38.1562 30.4063 37.8526 30.5892C37.5771 30.7464 37.1465 31.093 36.9356 30.6689C36.6966 30.1049 37.9409 30.0834 38.2358 29.2675C38.2466 29.162 38.1971 29.0414 38.154 28.951C37.8742 28.3891 37.6309 27.81 37.4156 27.2223C36.9054 25.8941 36.8387 24.357 37.3554 23.0223C37.5771 22.4798 37.8892 21.9739 38.266 21.524C38.5415 21.1989 38.8494 20.8911 39.1917 20.637C39.3789 20.4541 39.7212 20.4239 39.8332 20.6973Z" fill="#2D1600"/>
<path id="Vector_8" d="M38.6199 32.798C38.6931 32.9723 38.607 33.1682 38.4369 33.2457C38.114 33.39 37.7695 33.4976 37.4251 33.5859C36.8891 33.7172 36.3337 33.7818 35.7826 33.7172C35.3003 33.6698 34.8095 33.545 34.3553 33.3835C34.3381 33.2974 34.3316 33.2091 34.3553 33.1187C34.379 32.9723 34.4414 32.841 34.5275 32.7226C35.3606 33.0218 36.2626 33.1725 37.1345 32.953C37.3584 32.9056 37.578 32.8389 37.7954 32.7657C38.0752 32.6709 38.4412 32.4212 38.6199 32.798Z" fill="#2D1600"/>
<path id="Vector_9" d="M34.1735 32.079C34.4878 31.769 34.9657 32.2426 34.6535 32.5612C34.6105 32.6129 34.5674 32.6645 34.5287 32.7205C34.4727 32.7033 34.4189 32.6839 34.3651 32.6624C34.1024 32.5311 33.7795 32.6043 33.7257 32.8497L33.7192 32.8475C33.801 32.5569 33.969 32.2986 34.1735 32.079Z" fill="#2D1600"/>
<path id="Vector_10" d="M34.365 32.6644C34.4188 32.686 34.4726 32.7053 34.5286 32.7226C34.4446 32.841 34.38 32.9723 34.3563 33.1187C34.3327 33.2091 34.3391 33.2974 34.3563 33.3835C34.309 33.3662 34.2638 33.3512 34.2164 33.334C34.0571 33.2715 33.7729 33.2586 33.7407 33.0735C33.7127 32.9895 33.7105 32.9142 33.7234 32.8517C33.7794 32.6063 34.1002 32.5331 34.365 32.6644Z" fill="#2D1600"/>
<path id="Vector_11" d="M34.3879 33.5622C34.3922 33.799 34.1296 33.9734 33.9122 33.8744C33.6258 33.7345 33.6538 33.3556 33.671 33.0865C33.6797 33.0047 33.6969 32.925 33.7184 32.8475L33.7249 32.8497C33.7098 32.9121 33.7141 32.9875 33.7421 33.0714C33.7722 33.2587 34.0564 33.2695 34.2178 33.3319C34.2631 33.3491 34.3083 33.3642 34.3578 33.3814C34.3664 33.4417 34.3772 33.502 34.3879 33.5622Z" fill="#2D1600"/>
<path id="Vector_12" d="M33.3693 23.7005C33.9936 24.0148 34.2864 26.5249 33.2983 26.4452C32.7515 26.3441 32.5276 25.7112 32.4824 25.2182C32.4178 24.652 32.4802 23.2678 33.3693 23.7005Z" fill="#2D1600"/>
<path id="Vector_13" d="M33.0126 21.3326C33.0944 21.5112 32.9889 21.7222 32.8124 21.7889C32.5498 21.9289 32.2914 22.0882 32.0589 22.2776C31.6542 22.6371 31.3292 23.0935 31.1311 23.5994C31.0967 23.8233 31.0407 24.0515 30.763 24.0579C30.5778 24.0579 30.4229 23.9029 30.4229 23.7178C30.5219 22.9105 31.1828 22.0817 31.8178 21.6016C32.1343 21.423 32.7521 20.818 33.0126 21.3326Z" fill="#2D1600"/>
<path id="Vector_14" d="M19.3924 24.7554C19.5603 24.8329 19.6465 25.0288 19.5733 25.2032C19.3752 25.6208 18.9339 25.2742 18.6368 25.1838C18.0534 24.9621 17.9415 25.2613 17.9716 25.7909C18.0706 26.6046 18.682 27.2827 19.4312 27.5755C19.8424 27.6831 19.7261 28.2945 19.3042 28.245C18.4603 27.9802 17.7197 27.2935 17.4399 26.4475C17.1729 25.7844 17.1794 24.6521 18.034 24.4605C18.5055 24.3464 18.9662 24.5746 19.3924 24.7554Z" fill="#2D1600"/>
<path id="Vector_15" d="M19.5637 49.5399C19.4302 49.5937 19.2967 49.6476 19.1633 49.7035C19.0233 49.7638 18.8468 49.865 18.6854 49.893C18.6509 49.9576 18.5928 50.0114 18.5045 50.0458C17.0127 50.6034 15.4907 51.1588 14.1581 52.0457C13.7276 52.3191 13.3099 52.6141 12.8858 52.8939C12.6856 53.0059 12.4531 53.2836 12.2249 53.2836C12.1517 53.2836 12.0807 53.2556 12.0075 53.1802C11.8999 53.191 11.7922 53.191 11.6932 53.1867C11.3552 53.163 11.0258 53.0769 10.7051 52.9736C11.5403 52.3299 12.4639 51.7616 13.48 51.2772C15.1634 50.4527 16.9029 49.7164 18.6918 49.1481C18.7499 49.1072 18.8188 49.0814 18.8963 49.0878C19.0556 49.0642 19.1805 49.1524 19.2408 49.273C19.3097 49.3268 19.3764 49.3828 19.4431 49.4366C19.4819 49.471 19.5206 49.5055 19.5637 49.5399Z" fill="#2D1600"/>
</g>
</g>
<rect x="0.5" y="0.5" width="59" height="59" rx="29.5" stroke="#2D1600"/>
</g>
<defs>
<clipPath id="clip0_6474_3186">
<rect width="60" height="60" rx="30" fill="white"/>
</clipPath>
</defs>
</svg>
