<svg width="60" height="60" viewBox="0 0 60 60" fill="none" xmlns="http://www.w3.org/2000/svg">
<g id="expert ava">
<g clip-path="url(#clip0_6474_7315)">
<g id="Group">
<g id="Group_2">
<path id="Vector" d="M72.867 43.6935C73.0414 44.2191 73.5115 44.5979 74.0203 44.78C74.037 44.7842 74.0539 44.7904 74.0706 44.7946C74.0688 44.7968 74.069 44.7988 74.0673 44.8011C74.0373 44.8591 74.0138 44.9205 73.9923 44.9817C73.9905 44.9839 73.9907 44.9859 73.9907 44.9859C73.9683 45.0391 73.9504 45.0958 73.9342 45.1503C73.9285 45.1713 73.9227 45.1922 73.9189 45.2129C73.9054 45.2549 73.8954 45.2925 73.8879 45.3339C73.8806 45.359 73.8755 45.3859 73.8705 45.4128C73.8676 45.4233 73.8669 45.4355 73.8665 45.4498C73.8534 45.514 73.8426 45.5801 73.8378 45.6455C73.8338 45.6824 73.8296 45.7173 73.8277 45.754C73.82 45.8299 73.8187 45.909 73.8175 45.9882C73.8168 46.0187 73.8167 46.0531 73.8182 46.0854C73.8196 46.1339 73.8212 46.1844 73.8251 46.2366C73.8285 46.3031 73.8339 46.3694 73.8395 46.4376C73.8902 49.3277 72.8035 50.6412 71.1446 52.8153C70.8337 53.2231 70.523 53.6328 70.1807 54.0137C70.1719 54.0248 70.1592 54.0384 70.1461 54.048C70.1299 54.066 70.1116 54.0843 70.0934 54.1025L70.0914 54.1028C69.2933 53.9431 68.4988 53.7789 67.7047 53.6188C66.4563 53.3657 65.2098 53.1104 63.9615 52.8573C63.3707 52.7392 62.7777 52.6193 62.1884 52.497C61.8899 52.4372 61.5892 52.3758 61.2927 52.3158C61.1743 52.2906 61.0584 52.2691 60.9421 52.2437C60.9532 52.2161 60.9601 52.187 60.9689 52.1576C61.0079 52.0357 61.0467 51.9118 61.0813 51.7863C62.6236 46.6403 64.3244 41.5353 66.4302 36.5896C67.2951 34.5086 68.2718 32.4678 69.6127 30.6374C70.0617 30.0338 70.5194 29.4353 71.0285 28.8797C71.2737 28.6455 71.572 28.2696 71.9299 28.1362C72.0037 28.1259 72.0647 28.1454 72.1117 28.1847C72.4126 28.4468 72.1533 29.6391 72.0755 29.9396C71.7657 31.1517 71.2833 32.3062 70.8791 33.4904C70.7135 33.965 70.5499 34.4393 70.3821 34.912C70.2572 35.2624 70.1342 35.6106 70.0031 35.9597C69.9149 36.2026 69.8244 36.4438 69.7337 36.683C69.7208 36.7128 69.7104 36.7464 69.6976 36.7762C69.4514 36.7856 69.1815 36.8726 68.8877 37.0535C68.361 37.4165 67.9769 37.948 67.5938 38.453C66.0771 40.5402 65.0356 42.9247 64.111 45.3224C63.9407 45.7731 63.7769 46.2272 63.6735 46.6968C63.5507 47.0287 63.7261 47.4366 64.1225 47.3212C64.4017 47.2271 64.3494 46.9229 64.4212 46.696C64.6285 45.925 64.9446 45.1843 65.2405 44.4439C66.1912 42.1709 67.2304 39.9103 68.8663 38.0367C69.2755 37.6017 69.5922 37.4628 69.8287 37.5113C70.4304 37.6363 70.5094 38.9912 70.2792 39.7932C70.0848 40.5708 69.7024 41.2805 69.413 42.0242C69.3471 42.1957 69.2784 42.3777 69.3075 42.5649C69.3738 42.975 69.5606 43.3573 69.617 43.7704C69.7582 44.7394 69.5133 45.7173 69.1793 46.6241C68.801 47.5684 68.2384 48.4238 67.6613 49.2586C67.584 49.3646 67.5029 49.473 67.415 49.574C67.3883 49.6074 67.3577 49.6413 67.3268 49.6731L67.327 49.6751C67.1156 49.9035 67.3308 50.3049 67.6368 50.2685C68.0148 50.2059 68.4136 49.4073 68.6578 49.0921C69.3031 48.124 69.8741 47.0913 70.1582 45.957C70.3822 45.1173 70.4788 44.2269 70.2836 43.3714C70.2802 43.3414 70.2744 43.3076 70.2668 43.276C70.2044 43.0094 70.0291 42.7109 70.0506 42.4512C70.0543 42.4123 70.0623 42.3749 70.0763 42.3368C70.2304 41.9588 70.4008 41.581 70.561 41.2024L70.7352 41.274C70.6385 41.4956 70.7678 41.8175 71.0876 41.7958C72.2439 41.6985 72.9051 39.2837 73.2352 38.3246C73.2572 38.2492 73.2791 38.1738 73.2986 38.0946C73.3154 38.0279 73.3318 37.9571 73.3484 37.8884C73.3823 37.7387 73.4094 37.5837 73.4306 37.4293C73.4399 37.3675 73.4472 37.3059 73.4524 37.2445C73.4557 37.2198 73.4568 37.1933 73.4601 37.1686C73.4634 37.144 73.4645 37.1175 73.4658 37.093C73.472 37.0214 73.4739 36.9482 73.4741 36.8773C73.4781 36.8768 73.4798 36.8746 73.4818 36.8744C73.9101 36.8263 74.0733 37.2154 74.1622 37.5924C74.1828 37.6854 74.2014 37.7785 74.219 37.8637C74.2242 37.8915 74.2295 37.9213 74.2344 37.9471C74.2931 38.4694 74.2589 38.9778 74.1696 39.4823C74.0695 40.0528 73.8933 40.6136 73.7033 41.1781C73.5279 41.6557 73.184 42.1847 72.6111 42.1537C72.1352 42.1382 72.1015 42.8493 72.5752 42.8812C72.5977 42.8827 72.6219 42.8821 72.6441 42.8816C72.6584 42.882 72.6704 42.8807 72.6846 42.8811C72.7211 42.8811 72.7553 42.8792 72.7913 42.8752C72.7909 42.8894 72.79 42.8997 72.7896 42.9139C72.7835 42.9855 72.7855 43.0582 72.7898 43.1327C72.7883 43.3538 72.8301 43.5639 72.867 43.6935Z" fill="white"/>
</g>
<g id="Group_3">
<path id="Vector_2" d="M60.6682 52.1914C60.5073 52.1668 60.3511 52.2553 60.2843 52.4006C60.2843 52.4006 60.2843 52.4006 60.2803 52.401C60.261 52.4275 60.2441 52.4578 60.2359 52.4932C60.1834 52.6389 60.1328 52.7844 60.0821 52.9279C59.9431 52.7003 60.1404 52.3458 60.2235 52.0933C60.3157 51.8135 60.3955 51.5309 60.4772 51.2482C62.4212 44.9507 64.4528 38.6211 67.4371 32.7277C68.208 31.3078 70.2276 28.159 71.6239 27.4734C71.7206 27.4322 71.8234 27.4085 71.9259 27.401C72.0874 27.5045 72.2492 27.61 72.413 27.7152L72.1071 28.1852C72.0601 28.1459 72.0012 28.1262 71.9253 28.1367C71.5674 28.2701 71.2692 28.646 71.0239 28.8802C70.5148 29.4359 70.0571 30.0344 69.6081 30.638C68.2673 32.4683 67.2903 34.5072 66.4257 36.5901C64.3199 41.5359 62.6187 46.6389 61.0767 51.7868C61.0419 51.9103 61.0054 52.036 60.9643 52.1581C60.9573 52.1853 60.9464 52.2148 60.9355 52.2444C60.9126 52.2389 60.8897 52.2334 60.867 52.2298C60.803 52.2188 60.7362 52.202 60.6682 52.1914Z" fill="#2D1600"/>
</g>
<g id="Group_4">
<path id="Vector_3" d="M58.3891 57.7383C58.3523 57.6087 58.3132 57.4772 58.2724 57.348C58.3531 57.3086 58.4434 57.3005 58.5273 57.3255C58.5295 57.3273 58.5335 57.3268 58.5357 57.3286C58.53 57.3495 58.522 57.3687 58.5162 57.3896C58.475 57.5098 58.4317 57.6301 58.3905 57.7503C58.3902 57.7483 58.3898 57.7443 58.3891 57.7383Z" fill="white"/>
</g>
<g id="Group_5">
<path id="Vector_4" d="M58.773 57.7802C58.3896 58.879 58.0028 59.9823 57.6174 61.0813C57.2106 62.2415 56.804 63.4037 56.3972 64.5639C55.9788 65.7659 55.5562 66.9664 55.1377 68.1664C54.9532 68.6897 54.7705 69.2107 54.588 69.7337L54.4552 69.6878C54.5304 69.4727 54.4329 69.1452 54.4382 68.9217C54.4296 68.6471 54.4133 68.3753 54.3888 68.1025C54.413 68.0289 54.4411 67.9548 54.4653 67.8811C54.8854 66.6769 55.3075 65.4724 55.7279 64.2702C56.1381 63.1035 56.5442 61.9373 56.9544 60.7707C57.3271 59.7035 57.7 58.6383 58.0747 57.5708C58.1068 57.4781 58.163 57.4008 58.253 57.3543C58.2588 57.3516 58.2626 57.3491 58.2706 57.3482C58.3114 57.4774 58.3505 57.6088 58.3873 57.7384C58.3877 57.7424 58.3882 57.7464 58.3889 57.7524C58.4301 57.6323 58.4733 57.5119 58.5146 57.3918C58.5203 57.3709 58.5283 57.3517 58.5341 57.3308C58.7189 57.3891 58.8373 57.5947 58.773 57.7802Z" fill="white"/>
</g>
<g id="Group_6">
<path id="Vector_5" d="M54.3907 68.1043C54.202 68.6442 54.0129 69.1801 53.8222 69.7203C53.8015 69.6801 53.7868 69.6392 53.7758 69.5958L53.7756 69.5938C53.774 69.5798 53.7727 69.5678 53.7711 69.5538C53.7696 69.558 53.7698 69.56 53.77 69.562C53.7705 69.566 53.7711 69.572 53.7718 69.578C53.7372 69.4502 53.7313 69.307 53.7262 69.19C53.6922 68.5433 53.6561 67.8969 53.5738 67.2536C53.2144 64.9351 52.7106 62.5944 52.0228 60.3655C51.866 59.9251 52.56 59.681 52.7095 60.1283C53.0667 61.217 53.3259 62.3349 53.5864 63.4465C53.9274 64.9869 54.2591 66.5343 54.3907 68.1043Z" fill="white"/>
</g>
<g id="Group_7">
<path id="Vector_6" d="M70.0778 54.9433C70.1867 54.9575 70.3004 54.9224 70.3828 54.8443C70.5107 54.7205 70.6342 54.5931 70.7511 54.4605C70.7778 54.5183 70.7872 54.5841 70.7802 54.6477C70.7203 55.2157 70.6418 55.7798 70.5777 56.3463C70.497 56.9998 70.4205 57.6548 70.344 58.3098C70.1862 59.6123 70.0348 60.9181 69.875 62.2208C69.7135 63.5622 69.5561 64.9052 69.3946 66.2466C69.2412 67.5344 69.0893 68.8179 68.9377 70.1035C68.7823 71.4098 68.6285 72.7118 68.4691 74.0185C68.3173 75.2838 68.1674 76.549 68.0193 77.8118C67.9605 78.2805 67.906 78.7527 67.8534 79.2226C67.841 79.3112 67.8307 79.3995 67.8201 79.4858L43.4447 82.2208L42.4961 82.3272L23.3881 84.4712L21.2888 84.7067L14.3764 85.4823C13.6983 79.8722 13.3324 74.227 12.9732 68.5872C13.2916 68.3549 13.6267 67.8917 13.7821 67.7061C14.2962 67.0141 14.691 66.2342 14.9768 65.422C15.0763 65.1352 15.1445 64.8398 15.2109 64.5466C15.2795 64.237 14.8761 64.0006 14.6348 64.1979C14.5468 64.2625 14.5069 64.3581 14.4861 64.4618C14.4152 64.7696 14.3339 65.0746 14.2233 65.3707C13.9093 66.1841 13.4907 66.9687 12.9114 67.6214C12.8222 66.1947 12.7311 64.7681 12.6341 63.3443C12.4864 63.0569 12.043 63.1147 11.9617 63.4197C11.9273 63.6546 11.9769 63.8983 11.9776 64.1394C12.0623 65.5626 12.143 66.9862 12.2317 68.409C12.5766 74.1376 12.9687 79.871 13.6582 85.565L10.8264 85.8827C6.55973 86.3614 7.48032 86.2581 3.21563 86.7367C2.61325 86.8042 2.01487 86.8714 1.41249 86.939C1.40579 86.9154 1.40287 86.8894 1.39795 86.8636C1.38499 86.8022 1.37648 86.7444 1.36374 86.6851C0.875482 84.1034 0.648688 81.4681 0.480851 78.8526C0.0998253 72.6032 0.187385 66.1594 2.06897 60.1364C3.66607 55.0998 7.44358 51.2005 11.8708 48.4504C11.8638 48.514 11.8772 48.5793 11.9158 48.652C12.0356 48.8716 12.325 48.8858 12.505 48.7379C12.7603 48.5937 13.0179 48.4513 13.2782 48.3147C13.4829 48.6038 13.6929 48.8863 13.9142 49.1614C14.2472 49.5637 14.5807 49.9721 14.9616 50.3327C15.0117 50.3818 15.0605 50.4371 15.1141 50.4817C15.211 50.6228 15.3881 50.7023 15.5777 50.604C16.51 50.1893 17.4346 49.7613 18.3702 49.3585C20.3829 48.6037 23.0249 46.7571 25.1208 48.0802C26.0923 48.8102 26.5931 49.9678 27.1231 51.025C28.0657 52.9963 28.6789 55.1931 30.1287 56.8806C30.7395 57.6104 31.5318 58.3686 32.5225 58.4743C33.5604 58.5139 34.2593 57.5722 34.7256 56.7619C35.2007 55.9751 35.6718 55.1886 36.1947 54.4308C36.9667 53.329 37.7906 52.2557 38.7594 51.3182C39.8132 50.361 40.9642 49.476 41.94 48.4201C42.0826 48.2278 42.3835 47.9833 42.4748 47.7319C42.7757 47.2888 43.0545 46.83 43.3202 46.3624C43.6856 45.754 43.9956 45.1214 44.2653 44.4731C44.4691 44.5374 44.6671 44.6043 44.8673 44.673C45.0495 44.7438 45.2621 44.6693 45.3421 44.4799C45.3643 44.4248 45.374 44.3669 45.3695 44.3087C46.2935 44.6326 47.199 45.0092 48.0774 45.4335C51.5754 47.0432 54.4436 49.8137 56.3826 53.1161C57.1938 54.4395 57.8142 55.8695 58.2742 57.3499C58.2682 57.3506 58.2644 57.353 58.2566 57.3559C58.1666 57.4025 58.1104 57.4797 58.0783 57.5725C57.7036 58.6399 57.3307 59.7051 56.958 60.7723C56.5476 61.937 56.1414 63.1032 55.7315 64.2718C55.3114 65.4761 54.8892 66.6805 54.4689 67.8828C54.4447 67.9564 54.4166 68.0305 54.3924 68.1041C54.2608 66.5342 53.9291 64.9867 53.5883 63.4484C53.3278 62.3367 53.0686 61.2188 52.7114 60.1302C52.5619 59.6829 51.8679 59.9269 52.0247 60.3673C52.7125 62.5963 53.2166 64.939 53.5758 67.2555C53.6581 67.8988 53.6941 68.5452 53.7282 69.1919C53.7332 69.3089 53.7394 69.4541 53.7738 69.5799C53.7749 69.5899 53.7762 69.6019 53.7771 69.6099C53.7802 69.6197 53.7836 69.6315 53.7847 69.6415C53.7809 69.6257 53.7793 69.6117 53.7776 69.5957C53.7885 69.6391 53.8052 69.6797 53.8239 69.7202C53.8239 69.7202 53.8259 69.72 53.8242 69.7222C53.6171 70.3149 53.408 70.9078 53.2009 71.5004C52.997 72.0846 52.7928 72.6668 52.5908 73.2508C52.4906 73.5316 52.3946 73.8139 52.2946 74.0967C52.247 74.2317 52.2013 74.3665 52.1536 74.5016C52.135 74.5523 52.1141 74.6013 52.0995 74.6515C52.0776 74.7452 52.0802 74.8401 52.1283 74.9259C52.1744 75.0119 52.2525 75.0761 52.3449 75.1043C52.3911 75.1193 52.4401 75.122 52.4861 75.1168C52.6282 75.1009 52.7631 75.0026 52.7976 74.8589C52.8102 74.8089 52.8329 74.7577 52.8517 74.709C52.896 74.5804 52.9404 74.4518 52.9867 74.323C53.0834 74.0467 53.1801 73.7704 53.2765 73.4921C53.4729 72.931 53.6714 72.3697 53.8678 71.8086C54.1103 71.1167 54.3509 70.425 54.5936 69.7352C54.7761 69.2121 54.9588 68.6911 55.1433 68.1678C55.5618 66.9678 55.9844 65.7673 56.4028 64.5653C56.8096 63.4051 57.2162 62.2429 57.623 61.0827C58.0084 59.9837 58.3952 58.8805 58.7786 57.7817C58.8429 57.5961 58.7245 57.3905 58.5437 57.3318C58.7408 56.7767 58.9354 56.2179 59.1305 55.663C59.4263 54.8132 59.724 53.9631 60.0238 53.1128C60.0453 53.0516 60.065 52.9927 60.0883 52.9293C60.1257 52.9919 60.1881 53.0417 60.2857 53.0814C60.3489 53.1027 60.4121 53.1057 60.471 53.089C60.5089 53.1374 60.558 53.1785 60.6179 53.2062C63.6366 54.0125 66.685 54.9208 69.8252 55.0406C69.9306 55.0409 70.0173 55.0008 70.0778 54.9433Z" fill="#FFE86E"/>
</g>
<g id="Group_8">
<path id="Vector_7" d="M47.0468 24.2692C47.2804 25.9898 47.4268 27.7283 47.3375 29.4608C47.1478 32.5562 46.5916 35.6178 45.9321 38.6443C45.4388 38.9976 44.9457 39.3528 44.4544 39.7058C44.2426 39.8593 44.0306 40.0107 43.8209 40.164C43.7758 40.1954 43.7271 40.213 43.673 40.2191C43.537 40.2343 43.3914 40.1655 43.3177 40.0502C43.2658 39.9669 43.2486 39.8675 43.27 39.7698C43.2957 39.6737 43.3528 39.6045 43.4315 39.547C43.6228 39.4101 43.8139 39.2711 44.0072 39.1339C43.9596 39.0703 43.9306 38.9925 43.9378 38.9127C43.9753 38.3613 43.9965 37.8098 44.0197 37.258C44.0088 34.8133 44.1745 32.3711 44.2019 29.9241C44.2413 28.3613 44.0951 26.8052 43.9894 25.2486C43.9853 25.1943 43.981 25.1381 43.9772 25.0858C43.9612 25.0876 43.9474 25.0912 43.9314 25.093C43.8113 25.1065 43.6867 25.0617 43.6061 24.9572C43.4878 24.8064 43.5089 24.5608 43.6685 24.4477C43.7396 24.3951 43.8127 24.3423 43.884 24.2918C43.8791 24.266 43.8744 24.2422 43.8695 24.2164C43.8318 23.8802 44.2228 23.7167 44.4502 23.8837C45.1869 23.3512 45.9233 22.8167 46.6602 22.2862C46.6826 22.2695 46.7033 22.255 46.7257 22.2383C46.8465 22.9178 46.9489 23.5953 47.0468 24.2692Z" fill="#2D1600"/>
</g>
<g id="Group_9">
<g id="Group_10">
<path id="Vector_8" d="M46.7294 22.2378C46.7069 22.2545 46.6863 22.269 46.6638 22.2857C45.9272 22.8182 45.1907 23.3527 44.4539 23.8833C44.2262 23.7143 43.8354 23.8797 43.8731 24.2159C43.8781 24.2417 43.8827 24.2655 43.8877 24.2913C43.8163 24.3418 43.7432 24.3946 43.6721 24.4472C43.5106 24.5606 43.4895 24.8061 43.6097 24.9568C43.6903 25.0612 43.8129 25.1062 43.935 25.0925C43.951 25.0907 43.9648 25.0871 43.9808 25.0853C43.9846 25.1376 43.9889 25.1939 43.993 25.2481C44.0988 26.8047 44.247 28.3606 44.2055 29.9236C44.1781 32.3706 44.0104 34.8131 44.0233 37.2575C44.0001 37.8093 43.9809 38.3606 43.9415 38.9122C43.9344 38.9941 43.9632 39.0699 44.0109 39.1334C43.8175 39.2706 43.6264 39.4096 43.4351 39.5466C43.3564 39.604 43.2974 39.6735 43.2737 39.7693C43.252 39.865 43.2694 39.9664 43.3213 40.0497C43.3951 40.1651 43.5406 40.2339 43.6767 40.2186C43.7287 40.2127 43.7796 40.1969 43.8245 40.1635C44.0343 40.0103 44.2463 39.8588 44.4581 39.7054C44.9494 39.3523 45.4425 38.9971 45.9358 38.6439C45.8583 39.0011 45.7811 39.3603 45.6994 39.716C45.3727 41.0841 45.0248 42.4626 44.535 43.7861C43.2827 43.3714 41.9852 43.0955 40.684 42.8767C38.4063 42.498 36.0757 42.3704 33.774 42.5902C33.8392 41.9607 33.9041 41.3293 33.967 40.6981C34.0419 39.9743 34.11 39.2453 34.1866 38.5193C34.0292 38.5795 33.8738 38.6395 33.712 38.6962C33.6415 38.7183 33.5684 38.7164 33.4992 38.6958C32.8513 38.8455 32.1882 38.932 31.5217 38.8974C29.3787 38.8339 27.5891 37.9647 25.8627 36.7561C25.7881 36.7057 25.7136 36.6553 25.6408 36.6027C25.637 36.6233 25.6315 36.6463 25.6277 36.6669C25.5786 36.9156 25.5251 37.1608 25.476 37.4094C25.3525 38.0069 25.2289 38.6024 25.1074 39.1996C24.8559 40.4072 24.6065 41.6166 24.3568 42.822C24.3043 43.0772 24.2517 43.3303 24.1993 43.5854C24.0796 43.6029 23.9602 43.6224 23.8437 43.6497C23.8415 43.6479 23.8395 43.6481 23.8377 43.6503C23.7161 43.6498 23.5907 43.6882 23.4753 43.7072C22.6942 43.88 21.9332 44.1234 21.1682 44.3491C18.7379 45.0838 16.3348 45.9533 14.0625 47.0857C13.6595 47.2869 13.2639 47.4995 12.8659 47.7083C12.0994 46.5481 11.4442 45.3145 10.8842 44.0439C8.79112 39.1519 7.27535 33.8242 7.85889 28.4595C8.47083 22.2101 11.7216 16.3436 16.3662 12.1708C19.7349 9.26984 24.0094 7.43452 28.4012 6.80598C33.5576 6.29225 39.4265 7.59534 42.7998 11.7966C45.119 14.8031 46.1029 18.5328 46.7294 22.2378ZM41.4465 29.4814C41.9563 27.035 41.872 25.0018 41.2412 22.5942C40.8798 21.1798 40.402 19.7926 39.6681 18.5253C39.4161 18.1037 39.1774 17.6745 38.9068 17.2672C36.3516 19.8154 31.8291 22.0777 29.0872 23.6296C28.3481 23.978 24.6382 26.0236 23.4096 26.1634C23.2556 26.2537 23.0374 26.2417 22.9256 26.0759C22.7283 25.7799 22.5118 25.4941 22.2807 25.2222C21.5214 24.3793 20.3029 23.29 19.1051 23.8844C17.3244 24.9191 18.1744 27.4561 19.2606 28.7203C19.7627 29.2942 20.3955 29.7318 21.0299 30.149C21.2193 30.2838 21.4156 30.4077 21.6199 30.5124C21.6484 30.5315 21.6713 30.5553 21.6904 30.5815C21.8578 30.7188 21.9433 30.9564 22.0542 31.1324C22.7817 32.4146 23.6325 33.6404 24.6094 34.7426C25.7274 35.8938 27.0921 36.7863 28.5335 37.4777C30.101 38.1732 31.925 38.3921 33.5875 37.93C33.6327 37.9168 33.6807 37.9114 33.7278 37.9163C33.7532 37.9073 33.7783 37.8964 33.8057 37.8873C34.3125 37.6906 34.8396 37.5483 35.3462 37.3496C36.0431 37.0587 36.7061 36.6823 37.3165 36.2349C39.4165 34.5605 40.8858 32.1057 41.4465 29.4814Z" fill="#2D1600"/>
</g>
</g>
<g id="Group_11">
<path id="Vector_9" d="M45.3683 44.3091C45.0645 44.2033 44.7592 44.1017 44.4504 44.0046C44.4808 43.9323 44.5071 43.8604 44.5335 43.7885C44.7398 43.8566 44.9426 43.9291 45.1475 44.0034C45.2746 44.052 45.3555 44.1767 45.3683 44.3091Z" fill="white"/>
</g>
<g id="Group_12">
<path id="Vector_10" d="M44.4499 44.0044C44.7588 44.1015 45.0641 44.2031 45.3679 44.3089C45.3726 44.3691 45.3627 44.425 45.3405 44.4802C45.2624 44.6694 45.0478 44.7441 44.8655 44.6733C44.6653 44.6046 44.4652 44.5379 44.2634 44.4733C44.3271 44.3182 44.3905 44.1611 44.4499 44.0044Z" fill="white"/>
</g>
<g id="Group_13">
<path id="Vector_11" d="M40.4485 23.9073C40.7785 24.2291 40.8238 24.7227 40.8465 25.16C40.8745 25.5359 40.7309 26.0264 40.2697 25.9808C40.1487 26.041 40.0086 26.0385 39.8962 25.9578C39.521 25.631 39.4466 24.5711 39.5901 24.1151C39.7111 23.7489 40.1766 23.6156 40.4485 23.9073Z" fill="#2D1600"/>
</g>
<g id="Group_14">
<path id="Vector_12" d="M39.8168 21.0984C40.0136 21.0824 40.1897 21.243 40.1997 21.4405C40.2208 21.6286 40.0659 21.7291 39.9687 21.8555C39.1623 22.9227 38.5789 24.2426 38.7556 25.6007C38.8321 26.2285 39.0571 26.8253 39.3391 27.3874C39.5156 27.7871 39.8627 28.1352 39.8536 28.5962C39.8599 29.013 39.7275 29.423 39.5031 29.7704C39.2401 30.118 38.3902 31.3381 37.9778 30.6609C37.8293 30.2946 38.1421 30.2109 38.3554 30.0167C38.5593 29.8114 38.7472 29.5897 38.9111 29.3525C39.0642 29.0921 39.1784 28.7733 39.1098 28.4689C38.9815 28.228 38.832 27.9976 38.7114 27.7537C38.2095 26.7847 37.9044 25.6902 38.0286 24.5941C38.1252 23.5943 38.5571 22.6583 39.1042 21.8269C39.2892 21.5791 39.4855 21.1437 39.8168 21.0984Z" fill="#2D1600"/>
</g>
<g id="Group_15">
<path id="Vector_13" d="M36.1524 33.2652C36.3809 33.4057 36.6472 33.4852 36.9185 33.4832C37.5475 33.5261 38.2303 33.4535 38.7303 33.0327C39.1114 32.7447 39.5523 33.2971 39.183 33.5999C38.6377 34.0502 37.9094 34.2413 37.2093 34.2145C36.6489 34.2409 36.0797 34.1163 35.6279 33.7921C35.6341 33.6131 35.7064 33.4449 35.8725 33.3533C35.9476 33.3003 36.0358 33.2742 36.1217 33.2625C36.1321 33.2654 36.1404 33.2665 36.1524 33.2652Z" fill="#2D1600"/>
</g>
<g id="Group_16">
<path id="Vector_14" d="M34.5469 24.7416C35.108 25.0638 35.2984 25.8208 35.204 26.4254C35.1373 26.8058 34.8518 27.1885 34.4255 27.0742C33.9638 26.9517 33.7248 26.4657 33.7112 26.0192C33.665 25.6798 33.6239 25.3135 33.7557 24.9885C33.8886 24.6919 34.2695 24.5822 34.5469 24.7416Z" fill="#2D1600"/>
</g>
<g id="Group_17">
<path id="Vector_15" d="M41.4466 29.4816C40.8877 32.1037 39.4166 34.5607 37.3146 36.2353C36.7044 36.6848 36.0412 37.0591 35.3443 37.3501C34.8377 37.5488 34.3105 37.691 33.8037 37.8877C33.7784 37.8966 33.7533 37.9075 33.7259 37.9167C33.6788 37.9118 33.6307 37.9172 33.5856 37.9304C31.9251 38.3923 30.1012 38.1754 28.5315 37.4782C27.0902 36.7868 25.7275 35.894 24.6074 34.743C23.6306 33.6408 22.7778 32.4152 22.0523 31.1328C21.9413 30.9568 21.8539 30.7194 21.6885 30.5819C21.6694 30.5557 21.6464 30.5319 21.6179 30.5128C21.4137 30.4081 21.2174 30.2842 21.028 30.1494C20.3935 29.7322 19.7626 29.2924 19.2587 28.7207C18.1705 27.4567 17.3225 24.9195 19.1031 23.8848C20.2992 23.2926 21.5197 24.3817 22.2787 25.2226C22.5099 25.4946 22.7263 25.7803 22.9237 26.0763C23.0355 26.2421 23.2537 26.2541 23.4077 26.1639C24.6363 26.024 28.3459 23.9765 29.0852 23.6301C31.8272 22.0782 36.3517 19.8156 38.9049 17.2676C39.1755 17.6749 39.4141 18.1041 39.6661 18.5257C40.4 19.793 40.8781 21.1822 41.2392 22.5946C41.8723 25.004 41.9564 27.0352 41.4466 29.4816ZM35.6262 33.7944C36.0783 34.1206 36.6495 34.245 37.2076 34.2168C37.9078 34.2436 38.6341 34.0527 39.1814 33.6022C39.5504 33.2974 39.1097 32.747 38.7286 33.0349C38.2287 33.4558 37.5478 33.5281 36.9169 33.4855C36.6455 33.4875 36.3813 33.4078 36.1507 33.2675C36.4298 33.2625 36.6053 32.8942 36.4185 32.6741C36.184 32.4086 35.7657 32.5811 35.5083 32.7255C34.972 33.0208 34.7839 33.6924 34.9649 34.2577C35.1095 34.7157 35.7849 34.5223 35.6663 34.0615C35.6384 33.9754 35.6221 33.884 35.6262 33.7944ZM40.8482 25.1594C40.8255 24.7222 40.7802 24.2288 40.4503 23.9071C40.1764 23.6156 39.7111 23.7489 39.5901 24.1151C39.4487 24.5707 39.523 25.6303 39.8961 25.9573C40.0105 26.0376 40.1506 26.0402 40.2695 25.9802C40.7306 26.0257 40.8759 25.5332 40.8482 25.1594ZM40.1999 21.4407C40.1879 21.2434 40.0138 21.0826 39.817 21.0986C39.4855 21.1419 39.2911 21.5771 39.0999 21.8235C38.5529 22.6549 38.1209 23.591 38.0243 24.5907C37.9003 25.6888 38.2053 26.7813 38.7071 27.7503C38.8277 27.9942 38.9752 28.2248 39.1055 28.4656C39.1721 28.7702 39.0599 29.0887 38.9068 29.3491C38.7451 29.5881 38.555 29.808 38.3511 30.0133C38.14 30.2092 37.8272 30.293 37.9735 30.6575C38.3881 31.3365 39.2359 30.1146 39.4988 29.767C39.7252 29.4194 39.8558 29.0116 39.8493 28.5928C39.8606 28.1336 39.5115 27.7857 39.3348 27.384C39.0528 26.8219 38.8298 26.2248 38.7513 25.5973C38.5744 24.2372 39.1578 22.9173 39.9644 21.8521C40.0641 21.7295 40.2212 21.6308 40.1999 21.4407ZM35.2046 26.4249C35.2989 25.8206 35.1106 25.0635 34.5477 24.7417C34.2704 24.5823 33.8875 24.6921 33.7547 24.9887C33.6229 25.3135 33.664 25.6798 33.7102 26.0191C33.7238 26.4654 33.9647 26.9511 34.4243 27.0738C34.8525 27.1878 35.1381 26.8073 35.2046 26.4249ZM34.3607 22.3897C34.5762 22.1608 34.3718 21.7481 34.0601 21.7871C33.5411 21.8392 33.0973 22.1464 32.7613 22.5286C32.3749 22.8597 31.4708 24.6451 32.2543 24.8551C32.4462 24.8863 32.646 24.7706 32.6823 24.57C32.7 24.4748 32.6634 24.3837 32.6833 24.2902C32.7498 23.8896 32.9222 23.5116 33.1547 23.1816C33.3451 22.9636 33.5418 22.7308 33.8057 22.608C33.9848 22.5068 34.2204 22.5473 34.3607 22.3897ZM21.3393 26.4041C21.6424 26.3417 21.715 25.8877 21.4411 25.7401C21.2148 25.6196 20.9785 25.5002 20.7156 25.4872C20.2857 25.4665 19.8276 25.7003 19.6388 26.0943C19.2768 26.9131 20.0938 28.5966 20.954 28.8041C21.1513 28.8103 21.3235 28.6471 21.3275 28.448C21.3424 28.2012 21.1045 28.1225 20.9536 27.9874C20.6012 27.6825 20.1159 26.8068 20.3307 26.3551C20.7384 25.9791 20.9678 26.4701 21.3393 26.4041Z" fill="white"/>
</g>
<g id="Group_18">
<path id="Vector_16" d="M35.8707 33.3556C35.7046 33.4472 35.6323 33.6154 35.626 33.7945C35.5381 33.7334 35.4573 33.6635 35.382 33.5888C35.0459 33.2495 35.5299 32.7391 35.8842 33.0601C35.9659 33.1381 36.0565 33.205 36.1524 33.2652C36.1424 33.2663 36.1322 33.2654 36.122 33.2646C36.0321 33.2767 35.9438 33.3028 35.8707 33.3556Z" fill="#2D1600"/>
</g>
<g id="Group_19">
<path id="Vector_17" d="M34.058 21.7872C34.3699 21.7482 34.5743 22.161 34.3588 22.3899C34.2183 22.5476 33.9827 22.5071 33.8073 22.6059C33.5434 22.7287 33.3465 22.9616 33.1561 23.1796C32.9236 23.5098 32.7511 23.8879 32.6846 24.2886C32.6647 24.3821 32.7013 24.4732 32.6836 24.5685C32.6455 24.7714 32.4477 24.8868 32.2554 24.8537C31.4717 24.6436 32.3761 22.8577 32.7626 22.5265C33.095 22.1466 33.5389 21.8394 34.058 21.7872Z" fill="#2D1600"/>
</g>
<g id="Group_20">
<path id="Vector_18" d="M34.9643 34.2562C34.7852 33.6905 34.9716 33.0209 35.5078 32.7236C35.7653 32.5792 36.1838 32.4065 36.4183 32.6721C36.6052 32.8924 36.4316 33.2605 36.1504 33.2657C36.0545 33.2055 35.9636 33.1366 35.8821 33.0607C35.5279 32.7396 35.0439 33.25 35.38 33.5893C35.4555 33.666 35.5361 33.7339 35.624 33.795C35.6199 33.8847 35.6362 33.9761 35.6619 34.0604C35.7825 34.5212 35.1089 34.7143 34.9643 34.2562Z" fill="#2D1600"/>
</g>
<g id="Group_21">
<path id="Vector_19" d="M44.2632 44.4732C40.8798 43.3958 37.2989 43.0154 33.7706 43.3201C33.745 43.327 33.7212 43.3317 33.6974 43.3364C33.7069 43.2583 33.7161 43.1782 33.7216 43.1006C33.7395 43.0257 33.7909 42.9591 33.8551 42.9175C33.9344 42.8113 34.0671 42.7478 34.235 42.7999C34.2306 42.7963 34.2263 42.7947 34.2339 42.7898C35.4944 42.8085 36.7607 42.7698 38.0255 42.8447C40.2035 42.9671 42.3673 43.3606 44.45 44.0064C44.3903 44.161 44.3269 44.3181 44.2632 44.4732Z" fill="white"/>
</g>
<g id="Group_22">
<path id="Vector_20" d="M33.7725 42.5925C36.0742 42.3727 38.4047 42.5003 40.6824 42.879C41.9836 43.0978 43.2809 43.3717 44.5334 43.7884C44.509 43.86 44.4806 43.9321 44.4502 44.0044C42.3675 43.3586 40.2037 42.9651 38.0257 42.8427C36.7607 42.7658 35.4947 42.8065 34.2342 42.7879C34.2266 42.7928 34.2308 42.7943 34.2353 42.7979C34.0673 42.7458 33.9346 42.8093 33.8553 42.9155C33.7913 42.9591 33.7398 43.0237 33.7219 43.0987C33.7397 42.9325 33.7569 42.7604 33.7725 42.5925Z" fill="white"/>
</g>
<g id="Group_23">
<path id="Vector_21" d="M33.7222 43.1007C33.7147 43.1789 33.7074 43.259 33.6979 43.3374C33.6898 43.3383 33.682 43.3412 33.676 43.3419C33.6882 43.2693 33.7024 43.1965 33.7166 43.1237C33.7157 43.1157 33.717 43.1094 33.7222 43.1007Z" fill="white"/>
</g>
<g id="Group_24">
<path id="Vector_22" d="M33.7722 42.5923C33.7545 42.7605 33.7394 42.9325 33.7198 43.1009C33.7164 43.1073 33.7153 43.1156 33.7142 43.1238C33.7001 43.1963 33.6859 43.2689 33.6738 43.3412C33.0777 43.4304 32.9519 42.7066 33.4992 42.6169C33.5895 42.6087 33.6819 42.6004 33.7722 42.5923Z" fill="white"/>
</g>
<g id="Group_25">
<path id="Vector_23" d="M33.4994 42.6191C32.954 42.7067 33.08 43.4322 33.6739 43.3433C33.4965 44.2913 33.3208 45.2351 33.1432 46.1811C32.9181 47.3898 32.693 48.5985 32.4719 49.8067C32.2997 50.7096 32.1314 51.612 31.9629 52.5124C31.6205 52.0969 31.2704 51.6863 30.9204 51.2757C29.8059 49.9579 28.559 48.7604 27.4041 47.4796C26.55 46.5682 25.7424 45.6011 24.8296 44.745C24.6703 44.6068 24.5186 44.4475 24.3546 44.3038C24.8462 44.2426 25.3381 44.2016 25.83 44.1423C26.304 44.0871 26.2417 43.3869 25.7669 43.4178C25.2457 43.4864 24.7158 43.5135 24.1975 43.5899C24.2499 43.3347 24.3026 43.0816 24.355 42.8265C24.6046 41.6191 24.8539 40.4097 25.1057 39.204C25.2271 38.6068 25.3508 38.0113 25.4742 37.4139C25.5233 37.1652 25.5769 36.92 25.626 36.6714C25.6297 36.6507 25.6353 36.6278 25.639 36.6071C25.7118 36.6597 25.7864 36.7101 25.8609 36.7605C27.5873 37.9691 29.3767 38.8363 31.5199 38.9018C32.1865 38.9364 32.8495 38.8499 33.4974 38.7002C33.5666 38.7208 33.6398 38.7227 33.7102 38.7006C33.8698 38.6422 34.0252 38.5822 34.1848 38.5237C34.108 39.2477 34.0379 39.977 33.9653 40.7025C33.9023 41.3337 33.8374 41.9651 33.7723 42.5946C33.6818 42.6007 33.5895 42.609 33.4994 42.6191Z" fill="white"/>
</g>
<g id="Group_26">
<path id="Vector_24" d="M25.832 44.1421C25.34 44.2014 24.8479 44.2424 24.3562 44.3037C24.3023 44.257 24.2484 44.2104 24.191 44.1682C24.252 44.0437 24.2303 43.9043 24.1536 43.7994C24.168 43.7288 24.1826 43.6603 24.197 43.5898C24.7155 43.5134 25.2438 43.4885 25.7669 43.4177C26.2438 43.3865 26.3062 44.0869 25.832 44.1421Z" fill="white"/>
</g>
<g id="Group_27">
<path id="Vector_25" d="M27.4059 47.4772C28.5588 48.7583 29.8057 49.9558 30.9222 51.2734C31.2705 51.6862 31.6225 52.0966 31.9648 52.5101C32.133 51.6077 32.3013 50.7052 32.4738 49.8044C32.6969 48.5959 32.922 47.3872 33.1451 46.1787C33.3226 45.2327 33.4984 44.2889 33.6757 43.3409C33.6817 43.3402 33.6895 43.3373 33.6975 43.3364C33.6861 43.4694 33.6727 43.6027 33.657 43.7341C33.6566 43.7483 33.656 43.7606 33.6557 43.7768C33.5958 43.8382 33.5592 43.9275 33.566 44.0422C33.5981 44.9424 33.6851 45.8445 33.5302 46.7394C33.4117 47.5795 33.2645 48.4167 33.1893 49.2641C33.088 50.2218 33.1309 52.2293 32.3793 52.881C32.1049 53.1266 31.5931 52.4849 31.377 52.3106C30.4553 51.3926 29.7688 50.3126 28.8866 49.3497C28.5143 48.9396 28.1381 48.5299 27.7567 48.1289C26.5902 46.8534 25.1934 45.8186 23.9998 44.5725C24.0157 44.4977 24.0299 44.4252 24.0456 44.3485C24.1047 44.3337 24.1616 44.3172 24.2201 44.3147C24.2662 44.3096 24.314 44.3022 24.3602 44.299C24.5223 44.4429 24.6739 44.6022 24.8353 44.7402C25.7444 45.6007 26.5519 46.5659 27.4059 47.4772Z" fill="#FFE86E"/>
</g>
<g id="Group_28">
<path id="Vector_26" d="M24.1997 43.5896C24.1853 43.6601 24.1707 43.7287 24.1563 43.7992C24.1278 43.7619 24.0937 43.7292 24.0521 43.7014C23.9851 43.6644 23.9148 43.652 23.8441 43.6538C23.9626 43.6263 24.08 43.6071 24.1997 43.5896Z" fill="white"/>
</g>
<g id="Group_29">
<path id="Vector_27" d="M24.1563 43.7992C24.2329 43.9041 24.2546 44.0435 24.1936 44.168C24.1626 44.1451 24.1277 44.1226 24.095 44.102C24.114 44.0005 24.137 43.8986 24.1563 43.7992Z" fill="white"/>
</g>
<g id="Group_30">
<path id="Vector_28" d="M24.1934 44.1681C24.1902 44.1766 24.1856 44.1893 24.1784 44.1982C24.1448 44.261 24.1002 44.2986 24.0482 44.3247C24.0622 44.2499 24.0784 44.1769 24.0942 44.0999C24.1272 44.1226 24.1623 44.1451 24.1934 44.1681Z" fill="white"/>
</g>
<g id="Group_31">
<path id="Vector_29" d="M24.1937 44.1677C24.2491 44.2102 24.3028 44.2548 24.3589 44.3033C24.3126 44.3064 24.2648 44.3138 24.2187 44.319C24.1602 44.3215 24.1031 44.336 24.0442 44.3528C24.0453 44.3445 24.0461 44.3343 24.0492 44.3258C24.101 44.2998 24.1475 44.2621 24.179 44.1998C24.1859 44.1889 24.1908 44.1782 24.1937 44.1677Z" fill="white"/>
</g>
<g id="Group_32">
<path id="Vector_30" d="M24.012 44.0485C23.8995 43.8766 23.6546 43.8798 23.4419 43.9178C23.4908 43.7927 23.6005 43.6872 23.7607 43.6692C23.7865 43.6643 23.8121 43.6574 23.8401 43.6542C23.8419 43.652 23.8439 43.6518 23.8461 43.6536C23.9168 43.6517 23.9871 43.6641 24.0541 43.7012C24.0955 43.7269 24.1298 43.7616 24.1583 43.7989C24.1391 43.8984 24.1163 44.0023 24.097 44.1018C24.0686 44.0827 24.0403 44.0656 24.012 44.0485Z" fill="white"/>
</g>
<g id="Group_33">
<path id="Vector_31" d="M23.7101 44.4044C23.8215 44.4223 23.9327 44.3835 24.0445 44.3507C24.0286 44.4254 24.0144 44.498 23.9987 44.5747C25.1923 45.8208 26.5911 46.8554 27.7556 48.1311C28.1372 48.5341 28.5113 48.942 28.8855 49.3519C29.7679 50.3168 30.4542 51.3948 31.3759 52.3128C31.5941 52.4869 32.1038 53.1288 32.3782 52.8832C33.1298 52.2315 33.087 50.224 33.1882 49.2663C33.2654 48.4187 33.4106 47.5817 33.5291 46.7416C33.6838 45.8448 33.5968 44.9426 33.5649 44.0444C33.5581 43.9297 33.5947 43.8405 33.6547 43.779C33.6549 43.7628 33.6555 43.7505 33.6559 43.7363C33.6694 43.6031 33.6848 43.4696 33.6964 43.3386C33.7202 43.3339 33.744 43.3292 33.7696 43.3223C37.2979 43.0176 40.8788 43.398 44.2623 44.4754C43.9925 45.1238 43.6825 45.7564 43.3171 46.3648C43.0515 46.8323 42.7746 47.2909 42.4718 47.7343C42.3804 47.9857 42.0796 48.2302 41.937 48.4225C40.9612 49.4783 39.8102 50.3633 38.7564 51.3205C37.7876 52.258 36.9637 53.3313 36.1916 54.4332C35.6687 55.191 35.1976 55.9774 34.7226 56.7643C34.2542 57.5747 33.5574 58.5162 32.5194 58.4766C31.529 58.3729 30.7365 57.6128 30.1257 56.8829C28.6759 55.1954 28.0626 52.9986 27.12 51.0273C26.59 49.9702 26.0893 48.8125 25.1178 48.0826C23.0239 46.7592 20.3799 48.6061 18.3672 49.3608C17.4316 49.7637 16.5069 50.1917 15.5747 50.6063C15.3851 50.7046 15.208 50.6252 15.1111 50.484C15.0574 50.4394 15.0087 50.3841 14.9586 50.335C14.5777 49.9745 14.2423 49.5683 13.9112 49.1637C13.6919 48.8884 13.4796 48.6042 13.2751 48.3171C13.7168 48.0811 14.1613 47.8529 14.6063 47.6287C16.3496 46.7664 18.1793 46.097 20.0156 45.4674C21.0038 45.1539 22.0255 44.8508 23.0251 44.5664C23.2459 44.5112 23.4646 44.4563 23.6861 44.4071C23.6941 44.4062 23.7021 44.4053 23.7101 44.4044Z" fill="#FFE86E"/>
</g>
<g id="Group_34">
<path id="Vector_32" d="M24.0442 44.3507C23.9324 44.3835 23.8212 44.4223 23.7097 44.4044C23.8231 44.3856 23.9499 44.3774 24.0493 44.3237C24.0464 44.3342 24.0453 44.3424 24.0442 44.3507Z" fill="white"/>
</g>
<g id="Group_35">
<path id="Vector_33" d="M21.4413 25.7421C21.7153 25.8897 21.6424 26.3418 21.3395 26.4062C20.9659 26.4725 20.7382 25.9791 20.3311 26.3613C20.1162 26.8131 20.6017 27.689 20.9542 27.9941C21.1051 28.1292 21.343 28.2079 21.3282 28.4548C21.3241 28.6539 21.1499 28.8174 20.9546 28.8109C20.0921 28.6036 19.2768 26.9194 19.639 26.1004C19.8279 25.7062 20.2881 25.4722 20.7161 25.4931C20.9786 25.5021 21.2148 25.6196 21.4413 25.7421Z" fill="#2D1600"/>
</g>
<g id="Group_36">
<path id="Vector_34" d="M24.0489 44.3241C23.9475 44.378 23.8228 44.3859 23.7093 44.4047C23.6806 44.4019 23.649 44.3912 23.619 44.3764C23.426 44.2825 23.3793 44.083 23.4398 43.9181C23.6542 43.8778 23.8972 43.8749 24.0099 44.0487C24.0382 44.0658 24.0665 44.0829 24.093 44.1022C24.079 44.1768 24.0629 44.2495 24.0489 44.3241Z" fill="white"/>
</g>
<g id="Group_37">
<path id="Vector_35" d="M23.6879 44.4069C23.4665 44.4561 23.2475 44.509 23.0269 44.5662C22.0294 44.8504 21.0056 45.1537 20.0174 45.4672C18.1814 46.0988 16.3514 46.7662 14.6081 47.6285C14.1631 47.8527 13.7184 48.0789 13.277 48.3169C13.1611 48.1515 13.0453 47.9862 12.9333 47.8184C13.7216 47.3672 14.5264 46.9547 15.3411 46.5756C17.4492 45.5872 19.6801 44.8809 21.9184 44.2589C22.3846 44.1337 22.85 44.0187 23.3256 43.941C23.3631 43.9327 23.3989 43.9267 23.4387 43.9202C23.3762 44.0852 23.4249 44.2845 23.6178 44.3783C23.6479 44.3932 23.6792 44.4018 23.7081 44.4067C23.7019 44.4054 23.6939 44.4063 23.6879 44.4069Z" fill="white"/>
</g>
<g id="Group_38">
<path id="Vector_36" d="M15.3424 46.5754C14.5277 46.9545 13.7229 47.3671 12.9346 47.8182C12.9103 47.7825 12.8882 47.7485 12.864 47.7127C13.26 47.5041 13.6574 47.2893 14.0606 47.09C16.3327 45.9556 18.736 45.0882 21.1664 44.3534C21.9333 44.1275 22.6923 43.8843 23.4734 43.7116C23.589 43.6945 23.7144 43.6562 23.8358 43.6547C23.8098 43.6576 23.7842 43.6645 23.7564 43.6697C23.5963 43.6876 23.4866 43.7932 23.4378 43.9182C23.398 43.9247 23.3622 43.9307 23.3246 43.939C22.849 44.0167 22.3837 44.1317 21.9175 44.257C19.6794 44.881 17.4505 45.587 15.3424 46.5754Z" fill="white"/>
</g>
<g id="Group_39">
<path id="Vector_37" d="M12.8643 47.7128C12.8886 47.7486 12.9107 47.7826 12.9349 47.8184C12.5746 48.021 12.2213 48.2329 11.869 48.4529C11.9015 48.0925 12.5838 47.9044 12.8492 47.7226C12.8548 47.7179 12.8585 47.7155 12.8643 47.7128Z" fill="white"/>
</g>
<g id="Group_40">
<path id="Vector_38" d="M11.869 48.4507C12.2213 48.2307 12.5748 48.0208 12.935 47.8162C13.0471 47.984 13.1609 48.1496 13.2788 48.3148C13.0184 48.4514 12.7607 48.5939 12.5053 48.7381C12.3235 48.8882 12.0361 48.8738 11.9159 48.6522C11.8734 48.5799 11.8619 48.5143 11.869 48.4507Z" fill="white"/>
</g>
</g>
</g>
<rect x="0.5" y="0.5" width="59" height="59" rx="29.5" stroke="#2D1600"/>
</g>
<defs>
<clipPath id="clip0_6474_7315">
<rect width="60" height="60" rx="30" fill="white"/>
</clipPath>
</defs>
</svg>
