<svg width="60" height="60" viewBox="0 0 60 60" fill="none" xmlns="http://www.w3.org/2000/svg">
<g id="expert ava">
<g clip-path="url(#clip0_6474_7457)">
<g id="Group">
<path id="Vector" d="M20.8359 33.4413C20.8518 33.5049 20.8677 33.5685 20.8836 33.632C20.9245 33.8183 20.9586 34.0045 20.9926 34.1907C21.0267 34.3656 21.063 34.5405 21.0994 34.7154C21.1266 34.8448 21.1494 34.9766 21.1811 35.106C21.197 35.1787 21.2175 35.2514 21.2425 35.3218C21.322 35.7147 21.3992 36.1076 21.4787 36.5005C21.6831 37.518 21.8852 38.5354 22.0896 39.5529C22.294 40.5704 22.4984 41.5878 22.7005 42.6076C22.9027 43.6137 23.1025 44.6175 23.3047 45.6214C23.3115 45.66 23.3206 45.7009 23.3296 45.7395C23.3433 45.8099 23.3251 45.8803 23.2865 45.9393C23.2638 45.9848 23.2252 46.0279 23.1707 46.062C21.6172 47.0045 19.9684 47.7835 18.4353 48.7578C18.5126 48.9441 18.5762 49.1462 18.6647 49.3006C19.8707 52.0442 21.674 52.8005 24.4334 53.4614C27.0384 54.0814 30.3316 54.6083 32.8503 53.4909C33.9881 52.9867 34.8352 52.0828 35.746 51.2743C36.7702 50.4112 37.6991 49.4392 38.5077 48.374C38.8461 47.888 39.2458 47.3951 39.3593 46.8001C39.3866 46.4367 39.1549 46.1165 38.996 45.8053C38.6348 45.7009 38.2578 45.6804 37.8876 45.6305C36.8611 45.4919 35.83 45.3602 34.7944 45.3125C34.6467 45.2989 34.5627 45.2035 34.5377 45.0945C34.5218 45.0627 34.5105 45.0263 34.5082 44.99C34.4968 44.8151 34.4764 44.6403 34.4605 44.4654C34.4401 44.2269 34.4173 43.9862 34.3969 43.7477C34.3515 43.2549 34.3083 42.762 34.2652 42.2669C34.2175 41.7491 34.1721 41.229 34.1266 40.7112C33.2704 40.8656 32.3779 40.8543 31.5126 40.8406C28.4511 40.7066 25.5417 39.2327 23.2433 37.2045C23.2433 37.1909 23.2433 37.175 23.2433 37.1614C23.2456 37.1432 23.2479 37.1251 23.2502 37.1069C23.2547 37.0887 23.2592 37.0706 23.2661 37.0524C23.2729 37.0365 23.2797 37.0229 23.2842 37.007C23.3001 36.9797 23.316 36.9525 23.3319 36.9252C23.3524 36.8957 23.3751 36.8661 23.3978 36.8366C23.4091 36.8253 23.4182 36.8162 23.4296 36.8048C23.4364 36.8003 23.4432 36.7957 23.45 36.7889C23.4636 36.7798 23.4773 36.773 23.4932 36.7639C23.5091 36.7571 23.525 36.7503 23.5409 36.7435C23.5545 36.739 23.5681 36.7344 23.5817 36.7322C25.7325 38.6581 28.5987 40.0707 31.2991 40.2411C32.6822 40.2774 34.1516 40.3296 35.403 39.6596C39.2481 37.5248 40.4177 35.8896 41.3579 31.5994C41.5147 30.6773 41.576 29.7416 41.551 28.8059C41.7486 28.7423 41.9416 28.6628 42.1256 28.5697C43.7063 27.7725 44.7033 25.9465 44.215 24.0547C43.7495 22.0878 41.9394 20.9863 40.1565 21.0613C39.9408 21.0704 39.725 21.0954 39.5138 21.1408C39.1799 20.489 38.8097 19.8576 38.4123 19.2557C37.4766 17.834 36.0412 16.8574 34.5513 16.0807C33.2114 17.6887 31.7851 19.2285 30.2521 20.6502C28.308 22.4081 26.2231 23.9979 24.1495 25.5968C22.9617 26.5188 21.7603 27.4182 20.5543 28.3153C20.2068 28.572 19.8525 28.8195 19.4937 29.058C19.4392 29.1011 19.3824 29.1465 19.3188 29.1693C19.2075 29.2419 19.0508 29.2465 18.9373 29.1102C18.3581 28.2881 17.0023 27.3773 16.1642 28.3539C15.5419 29.1125 15.5987 30.1845 15.928 31.0566C16.4504 32.5442 17.9857 33.6752 19.5891 33.4822C19.7094 33.4867 19.873 33.4549 20.0456 33.4231C20.2545 33.3845 20.4748 33.3459 20.6383 33.3731C20.6429 33.3731 20.6474 33.3731 20.652 33.3731C20.7156 33.3777 20.7837 33.3981 20.8359 33.4413Z" fill="white"/>
<path id="Vector_2" d="M63.7378 59.5798C63.7718 59.8001 63.6015 60 63.3767 60C44.2014 60 25.0262 60 5.85098 60C5.46261 60 5.07425 60 4.68815 60C4.45877 60 4.22939 60 4 60C4.02498 59.9614 4.04997 59.9205 4.07495 59.8842C4.08403 59.8706 4.09312 59.8569 4.1022 59.8433C4.10901 59.8342 4.11356 59.8251 4.12037 59.816C4.12945 59.8024 4.13627 59.7911 4.14535 59.7797C4.15671 59.7638 4.16579 59.7479 4.17488 59.7343C4.18169 59.7229 4.19077 59.7116 4.19759 59.7002C4.2203 59.6639 4.24301 59.6321 4.26345 59.6003C4.268 59.5935 4.27027 59.5889 4.27481 59.5821C4.28162 59.573 4.28616 59.5639 4.29071 59.5549C4.29979 59.5412 4.3066 59.5276 4.31569 59.5163C4.32023 59.5094 4.32477 59.5003 4.32931 59.4935C4.34294 59.4708 4.3543 59.4504 4.36338 59.4345C4.36565 59.43 4.36793 59.4254 4.3702 59.4231C4.3702 59.4209 4.37247 59.4209 4.37247 59.4186C4.37474 59.4163 4.37474 59.414 4.37474 59.4118C5.06289 58.3852 5.88959 57.4586 6.73672 56.5615C9.74598 53.4273 13.2458 50.7633 17.109 48.7715C17.3566 48.6398 17.6064 48.5126 17.8562 48.3899C17.8608 48.3877 17.8653 48.3854 17.8698 48.3831C17.8789 48.3786 17.888 48.374 17.8994 48.3695C17.9062 48.365 17.9153 48.3627 17.9221 48.3581C17.972 48.3332 18.022 48.3104 18.0697 48.2855C18.0697 48.2855 18.0697 48.2855 18.072 48.2855C18.1151 48.265 18.1583 48.2446 18.2014 48.2241C18.2673 48.1924 18.3309 48.1628 18.3967 48.131C18.4263 48.2083 18.4558 48.2855 18.4853 48.3627C18.5035 48.4104 18.5217 48.4558 18.5398 48.5012C18.558 48.5467 18.5762 48.5921 18.5966 48.6352C18.6034 48.6534 18.6102 48.6693 18.6193 48.6875C20.0433 51.9125 23.5795 52.9845 26.8885 53.1593C29.1074 53.2933 31.3241 52.7505 33.3794 51.9443C35.7982 50.9631 37.3539 49.2757 38.2079 46.816C38.3214 46.4504 38.4305 46.0779 38.5259 45.7054C38.5281 45.6964 38.5304 45.6896 38.5327 45.6805C38.5417 45.6441 38.5508 45.6055 38.5599 45.5669C38.569 45.526 38.5804 45.4852 38.5894 45.4443C38.5917 45.4329 38.5963 45.4193 38.5985 45.4079C38.6167 45.3262 38.6371 45.2467 38.6485 45.1604C38.6508 45.1581 38.653 45.1558 38.6553 45.1536C38.7462 45.1604 38.837 45.1672 38.9278 45.1763C39.0346 45.1854 39.1413 45.1944 39.2481 45.2035C44.8782 45.7123 50.4493 47.1204 55.3323 49.9934C57.96 51.5173 60.0608 53.7816 61.7596 56.2753C62.1775 56.9044 62.584 57.5426 62.9815 58.1854C63.2313 58.5896 63.7082 59.4118 63.7082 59.4118L63.7378 59.5798Z" fill="#2D1600"/>
<path id="Vector_3" d="M36.0775 31.1838C36.0525 30.943 36.2387 30.8613 36.4386 30.8295C36.6066 30.7682 36.7724 30.6932 36.9314 30.6137C37.5423 30.2844 38.042 29.8801 38.5394 29.4123C38.335 29.1375 38.1487 28.8513 37.9648 28.5652C37.833 28.2949 37.3834 27.8793 37.749 27.6272C37.883 27.5477 38.0761 27.5908 38.151 27.7317C38.3372 28.0814 38.5598 28.413 38.7619 28.7105C38.8755 28.8967 39.0345 29.0557 39.1231 29.2556C39.2366 29.5168 39.0549 29.7621 38.8573 29.9188C38.6961 30.0687 38.5303 30.2186 38.3577 30.3594C37.8194 30.7886 37.2357 31.1747 36.5839 31.4018C36.3795 31.4836 36.1161 31.4336 36.0775 31.1838ZM36.5476 30.9158L36.5453 30.9135C36.534 30.9067 36.5249 30.8999 36.5135 30.8931C36.5112 30.8931 36.509 30.8908 36.5067 30.8908C36.5226 30.8954 36.5362 30.9044 36.5476 30.9158Z" fill="#2D1600"/>
<path id="Vector_4" d="M39.0207 26.2577C38.3371 26.1986 38.2462 24.9654 38.353 24.4408C38.3871 24.0388 38.7595 23.6481 39.1638 23.9025C39.4454 24.091 39.5453 24.4453 39.5817 24.7655C39.6271 25.2538 39.7338 26.2554 39.0207 26.2577Z" fill="#2D1600"/>
<path id="Vector_5" d="M32.3396 27.5205C31.8945 27.0367 31.7242 26.3099 31.8718 25.674C31.9354 25.2266 32.4373 24.9836 32.803 25.272C33.239 25.6945 33.4275 26.8164 33.2753 27.3933C33.2345 27.5136 33.1595 27.6136 33.046 27.6704C32.8461 27.927 32.5077 27.709 32.3396 27.5205Z" fill="#2D1600"/>
<path id="Vector_6" d="M36.843 23.3098C36.7385 23.0145 36.8067 22.6807 36.8385 22.3763C36.9179 21.7926 37.2018 21.2317 37.6674 20.8638C37.9695 20.6298 38.3283 21.0931 38.0263 21.3271C37.4971 21.7472 37.3472 22.4694 37.3858 23.1144H37.3835C37.4426 23.4233 36.9997 23.5868 36.843 23.3098ZM37.3835 23.1122C37.3813 23.0849 37.3722 23.0554 37.3585 23.0304C37.3699 23.0577 37.379 23.0849 37.3835 23.1122Z" fill="#2D1600"/>
<path id="Vector_7" d="M28.0764 25.2334C27.981 24.2818 28.4171 22.9963 29.2869 22.5126C29.5208 22.3899 29.9319 22.1901 30.0477 22.5535C30.1363 22.9305 29.6616 22.9282 29.4482 23.0963C28.8917 23.5596 28.6464 24.3431 28.6464 25.0517C28.7759 25.4832 28.1786 25.6785 28.0764 25.2334Z" fill="#2D1600"/>
<path id="Vector_8" d="M34.4835 34.7041C34.3791 34.2249 34.8719 33.2551 35.1581 32.8599C35.2535 32.7305 35.4442 32.71 35.5691 32.8077C35.8667 33.0598 35.4828 33.3596 35.3806 33.6117C35.2398 33.9205 35.0967 34.2385 35.0468 34.5746C35.0649 34.8949 34.6084 35.0016 34.4835 34.7041Z" fill="#2D1600"/>
<path id="Vector_9" d="M36.171 34.1385C35.8349 34.1203 34.7197 34.0022 34.9173 33.4844C34.9514 33.414 35.0014 33.3595 35.074 33.3277C35.1717 33.2868 35.2921 33.3027 35.3738 33.3709C35.5237 33.4367 35.6827 33.4799 35.844 33.514C36.4731 33.6184 37.1249 33.514 37.7426 33.4004C38.131 33.3186 38.5125 33.2164 38.8873 33.087C39.1848 33.0279 39.6163 32.6259 39.8207 33.0234C39.957 33.439 39.3756 33.5049 39.1076 33.6298C38.1651 33.9477 37.168 34.1703 36.171 34.1385Z" fill="#2D1600"/>
<path id="Vector_10" d="M37.2537 35.4399C36.2862 35.3967 35.3777 34.7608 34.8962 33.9409C34.7986 33.6002 35.3028 33.4186 35.4459 33.7433C36.1022 34.6609 37.2037 35.1492 38.2848 34.6836C38.7322 34.4701 39.0184 34.0318 39.1751 33.573C39.2636 33.3277 39.2659 32.953 39.6316 33.0279C39.786 33.0665 39.8791 33.2369 39.836 33.389C39.7474 33.7797 39.593 34.159 39.3658 34.4905C38.9162 35.1946 38.0622 35.4921 37.2537 35.4399Z" fill="#2D1600"/>
<path id="Vector_11" d="M17.8675 32.2149C16.9954 32.0128 16.439 30.7568 16.632 29.9279C16.9227 29.0217 17.7085 28.8809 18.3899 29.51C18.6897 29.7485 18.3354 30.205 18.031 29.9733C17.888 29.8575 17.7335 29.7257 17.5428 29.7008C16.8523 29.9597 17.2634 31.0044 17.6245 31.4019C17.7108 31.4904 17.8062 31.579 17.9198 31.629C18.0878 31.6403 18.2196 31.7925 18.1968 31.9628C18.1787 32.1218 18.0242 32.2399 17.8675 32.2149Z" fill="#2D1600"/>
<path id="Vector_12" d="M40.4293 21.6382C40.4156 21.6382 40.3997 21.6382 40.3861 21.6382C40.3748 21.6382 40.3634 21.6382 40.352 21.6382C40.3248 21.6382 40.2975 21.6382 40.2726 21.6382C40.2589 21.6382 40.2476 21.6382 40.2339 21.6382C40.1999 21.6382 40.1635 21.6405 40.1295 21.6427C40.1181 21.6427 40.109 21.6427 40.0977 21.645C40.0727 21.6473 40.05 21.6473 40.025 21.6496C40.0136 21.6496 40 21.6518 39.9887 21.6518C39.9818 21.6518 39.975 21.6541 39.9682 21.6541C39.9501 21.6564 39.9319 21.6586 39.9137 21.6609C39.9001 21.6632 39.8842 21.6655 39.8706 21.6677C39.8456 21.67 39.8183 21.6745 39.7933 21.6791C39.7888 21.6791 39.782 21.6813 39.7774 21.6813C39.6911 21.4997 39.6026 21.3202 39.5117 21.1431C39.7252 21.0999 39.9387 21.0727 40.1545 21.0636C40.2476 21.2521 40.3407 21.4429 40.4293 21.6382Z" fill="#2D1600"/>
<path id="Vector_13" d="M42.0825 27.9407C42.1006 28.1519 42.1143 28.3631 42.1233 28.5721C41.9394 28.6652 41.7463 28.7447 41.5487 28.8083C41.5442 28.6061 41.5351 28.4017 41.5215 28.1996C41.5419 28.1928 41.5646 28.1837 41.5851 28.1769C41.5987 28.1723 41.6123 28.1678 41.6237 28.161C41.6373 28.1564 41.6487 28.1519 41.66 28.1473C41.6737 28.1428 41.6896 28.136 41.7032 28.1292C41.7145 28.1246 41.7282 28.1178 41.7395 28.1133C41.7918 28.0906 41.844 28.0679 41.894 28.0406C41.9053 28.0361 41.9167 28.0293 41.9257 28.0247C41.9825 27.9975 42.0325 27.9679 42.0825 27.9407Z" fill="#2D1600"/>
<path id="Vector_14" d="M32.8341 30.6365C32.557 30.6365 32.2799 30.6024 32.0074 30.5456C31.7439 30.4911 31.485 30.4071 31.2374 30.3003C30.8741 30.4003 30.413 29.8575 30.1473 29.6417C28.5166 28.1087 28.4576 25.2607 30.1496 23.7504C32.3866 21.6427 36.2521 22.8851 36.7609 25.9397C37.2537 28.3471 35.2869 30.6887 32.8341 30.6365ZM33.0771 30.0437C35.4936 29.9188 36.9857 27.2547 35.8774 25.1176C34.5624 22.499 30.6106 22.7602 29.6681 25.54C28.8777 27.8452 30.622 30.2118 33.0771 30.0437Z" fill="#FF9494"/>
<path id="Vector_15" d="M42.0826 27.9405C44.3606 26.6232 44.3878 22.8713 41.4739 21.8221C41.1128 21.7085 40.7631 21.6494 40.427 21.6381C40.4133 21.6381 40.3974 21.6381 40.3838 21.6381C40.3724 21.6381 40.3611 21.6381 40.3497 21.6381C40.3225 21.6381 40.2952 21.6381 40.2702 21.6381C40.2657 21.6381 40.2589 21.6381 40.2543 21.6381C40.2475 21.6381 40.2384 21.6381 40.2316 21.6381C40.1976 21.6381 40.1612 21.6404 40.1272 21.6426C40.1158 21.6426 40.1067 21.6449 40.0954 21.6449C40.0704 21.6472 40.0477 21.6472 40.0227 21.6494C40.0113 21.6494 39.9977 21.6517 39.9864 21.6517C39.9795 21.6517 39.9727 21.654 39.9659 21.654C39.9477 21.6563 39.9296 21.6585 39.9114 21.6608C39.8978 21.6631 39.8819 21.6653 39.8683 21.6676C39.8433 21.6722 39.816 21.6744 39.791 21.679C39.7865 21.679 39.7797 21.6812 39.7751 21.6812C37.1679 22.1059 35.8665 25.5694 38.1944 27.6793C38.9007 28.1335 39.7115 28.4765 40.5768 28.3925C40.9175 28.3675 41.2332 28.3016 41.5216 28.1994C41.5421 28.1926 41.5648 28.1835 41.5852 28.1767C41.5989 28.1722 41.6125 28.1676 41.6238 28.1608C41.6375 28.1563 41.6488 28.1517 41.6602 28.1472C41.6738 28.1426 41.6897 28.1358 41.7033 28.129C41.7147 28.1245 41.7283 28.1177 41.7397 28.1131C41.7919 28.0904 41.8441 28.0677 41.8941 28.0404C41.9055 28.0359 41.9168 28.0291 41.9259 28.0245C41.9827 27.9973 42.0326 27.9678 42.0826 27.9405ZM44.2129 24.0569C44.7012 25.9464 43.7042 27.7724 42.1235 28.5719C41.9395 28.665 41.7465 28.7445 41.5489 28.8081C40.9766 28.9898 40.352 29.0443 39.7093 28.9353C39.464 28.8944 39.2233 28.8331 38.9893 28.7513C38.5533 28.9171 37.5676 27.9155 37.3019 27.5817C37.1202 27.3614 36.9635 27.1206 36.8363 26.8663C36.5251 26.244 36.3798 25.5422 36.407 24.8495C36.4411 23.9751 36.75 23.1143 37.3405 22.4421C37.9355 21.7335 38.7032 21.311 39.5117 21.143C39.7252 21.0998 39.9387 21.0726 40.1544 21.0635C41.9373 20.9863 43.7474 22.0901 44.2129 24.0569Z" fill="#FF9494"/>
<path id="Vector_16" d="M28.6601 56.4729C25.4873 56.2413 22.0148 55.5917 19.3166 53.8293C18.5331 53.2911 17.8836 52.5938 17.2158 51.9238C16.9842 51.7081 16.7548 51.4764 16.4573 51.3515C16.0326 51.1653 15.5488 51.3129 15.2331 51.6331C15.0651 51.8693 14.6926 51.6944 14.704 51.4446C14.1135 51.3038 13.5638 50.9836 13.0347 50.6997C10.7703 49.4165 8.93754 47.0795 8.85578 44.4041C8.80354 43.055 9.23733 41.7673 9.62796 40.4955C10.03 39.2032 10.3456 37.8927 10.4319 36.5437C10.5296 35.2196 10.4229 33.8683 9.97545 32.6123C8.96706 30.1504 7.70204 27.5409 8.32887 24.8132C8.86259 21.997 11.2768 20.28 13.3095 18.5154C14.3996 17.5524 15.4602 16.5395 16.3324 15.3698C17.1091 14.3501 17.7382 13.2236 18.5308 12.2152C20.4658 9.74651 23.5319 8.07268 26.6888 8C28.9054 8.05224 31.0153 8.94479 33.2387 8.94252C33.9382 8.95388 34.6241 8.82442 35.31 8.69497C36.0708 8.54962 36.8317 8.40654 37.6084 8.4565C39.3186 8.59731 40.981 9.47397 42.0735 10.7935C43.5588 12.5763 44.1879 14.9202 44.2469 17.2095C44.3242 18.8152 44.2628 20.5004 45.0328 21.963C45.6914 23.4574 46.995 24.5339 47.6877 26.0033C50.1542 30.9521 44.5558 34.3225 49.2866 38.5877C51.8235 41.0837 51.7621 45.4715 49.2366 47.9471C49.2321 48.0016 49.2094 48.0561 49.1639 48.1083C49.0436 48.2582 48.9096 48.4013 48.7779 48.5398C48.1329 49.1735 47.3425 49.6322 46.5885 50.1205C44.7784 51.2311 42.9456 52.3008 41.115 53.3728C37.6175 55.5463 34.2539 56.5274 30.3203 56.5274C29.7775 56.5274 29.2256 56.5093 28.6601 56.4729ZM20.836 33.4413C20.8519 33.5049 20.8678 33.5685 20.8837 33.6321C20.9246 33.8183 20.9587 34.0045 20.9927 34.1908C21.0268 34.3657 21.0631 34.5405 21.0995 34.7154C21.1267 34.8449 21.1494 34.9766 21.1812 35.106C21.1971 35.1787 21.2176 35.2514 21.2426 35.3218C21.3221 35.7147 21.3993 36.1076 21.4788 36.5005C21.6832 37.518 21.8853 38.5355 22.0897 39.5529C22.2941 40.5704 22.4985 41.5879 22.7006 42.6076C22.9028 43.6137 23.1026 44.6176 23.3048 45.6214C23.3116 45.66 23.3207 45.7009 23.3297 45.7395C23.3434 45.8099 23.3252 45.8803 23.2866 45.9394C23.2639 45.9848 23.2253 46.028 23.1708 46.062C21.6173 47.0045 19.9685 47.7835 18.4354 48.7579C18.5127 48.9441 18.5763 49.1462 18.6648 49.3007C19.8708 52.0442 21.6741 52.8005 24.4335 53.4614C27.0385 54.0814 30.3317 54.6083 32.8504 53.4909C33.9882 52.9867 34.8353 52.0828 35.7461 51.2743C36.7703 50.4113 37.6992 49.4392 38.5078 48.374C38.8462 47.888 39.2459 47.3952 39.3594 46.8001C39.3867 46.4368 39.155 46.1165 38.9961 45.8054C38.6349 45.7009 38.2579 45.6805 37.8877 45.6305C36.8612 45.492 35.8301 45.3602 34.7945 45.3125C34.6468 45.2989 34.5628 45.2035 34.5378 45.0945C34.5219 45.0627 34.5106 45.0264 34.5083 44.99C34.4969 44.8152 34.4765 44.6403 34.4606 44.4654C34.4402 44.2269 34.4174 43.9862 34.397 43.7477C34.3516 43.2549 34.3084 42.7621 34.2653 42.2669C34.2176 41.7491 34.1722 41.229 34.1267 40.7112C33.2705 40.8657 32.378 40.8543 31.5127 40.8407C28.4512 40.7067 25.5418 39.2327 23.2434 37.2046C23.2434 37.1909 23.2434 37.1751 23.2434 37.1614C23.2457 37.1433 23.248 37.1251 23.2503 37.1069C23.2548 37.0887 23.2593 37.0706 23.2662 37.0524C23.273 37.0365 23.2798 37.0229 23.2843 37.007C23.3002 36.9797 23.3161 36.9525 23.332 36.9252C23.3525 36.8957 23.3752 36.8662 23.3979 36.8367C23.4092 36.8253 23.4183 36.8162 23.4297 36.8049C23.4365 36.8003 23.4433 36.7958 23.4501 36.789C23.4637 36.7799 23.4774 36.7731 23.4933 36.764C23.5092 36.7572 23.5251 36.7503 23.541 36.7435C23.5546 36.739 23.5682 36.7345 23.5818 36.7322C25.7326 38.6581 28.5988 40.0708 31.2992 40.2411C32.6823 40.2774 34.1517 40.3297 35.4031 39.6597C39.2482 37.5248 40.4178 35.8896 41.358 31.5994C41.5148 30.6773 41.5761 29.7416 41.5511 28.8059C41.7487 28.7423 41.9417 28.6628 42.1257 28.5697C43.7064 27.7725 44.7034 25.9465 44.2151 24.0547C43.7496 22.0879 41.9395 20.9864 40.1566 21.0613C39.9409 21.0704 39.7251 21.0954 39.5139 21.1408C39.18 20.489 38.8098 19.8576 38.4124 19.2558C37.4767 17.834 36.0413 16.8574 34.5514 16.0807C33.2115 17.6887 31.7852 19.2285 30.2522 20.6502C28.3081 22.4081 26.2232 23.9979 24.1496 25.5968C22.9618 26.5189 21.7604 27.4182 20.5544 28.3153C20.2069 28.572 19.8526 28.8195 19.4938 29.058C19.4393 29.1012 19.3825 29.1466 19.3189 29.1693C19.2076 29.242 19.0509 29.2465 18.9374 29.1102C18.3582 28.2881 17.0024 27.3774 16.1643 28.3539C15.542 29.1125 15.5988 30.1845 15.9281 31.0566C16.4505 32.5442 17.9858 33.6752 19.5892 33.4822C19.7095 33.4867 19.8731 33.4549 20.0457 33.4231C20.2546 33.3845 20.4749 33.3459 20.6384 33.3732C20.643 33.3732 20.6475 33.3732 20.6521 33.3732C20.7157 33.3777 20.7838 33.3981 20.836 33.4413Z" fill="#2D1600"/>
<path id="Vector_17" d="M12.6829 51.247C12.4217 51.0244 12.608 50.761 12.8714 50.6542C13.2121 50.4589 13.5596 50.275 13.9071 50.0933C16.2781 48.8827 18.6878 47.7517 21.1293 46.6888C22.9803 45.8826 24.8358 45.0831 26.6868 44.2746C26.8321 44.211 27.007 44.2655 27.0774 44.4131C27.1455 44.554 27.0842 44.7402 26.9389 44.8038C23.0189 46.5185 19.0603 48.1583 15.2357 50.0796C14.602 50.3908 13.9729 50.711 13.3552 51.054C13.1417 51.1471 12.9191 51.4083 12.6829 51.247Z" fill="white"/>
<path id="Vector_18" d="M18.9986 49.4437C18.751 49.0849 18.5126 48.7169 18.315 48.3263C18.3241 48.3399 18.3309 48.3535 18.34 48.3649C18.1878 48.1764 18.3445 47.8857 18.583 47.8971C18.751 47.8948 18.8374 48.0492 18.8987 48.1832C18.9623 48.3013 19.0281 48.4194 19.0985 48.533C19.2189 48.7283 19.3461 48.9191 19.4755 49.1076C19.6913 49.4255 19.228 49.7526 18.9986 49.4437Z" fill="white"/>
<path id="Vector_19" d="M18.619 48.4785C18.5327 48.2218 18.7439 48.1196 18.9324 48.0152C19.1664 47.8834 19.4071 47.7631 19.6456 47.6427C19.9431 47.4928 20.2406 47.3406 20.5381 47.193C20.6812 47.1203 20.8584 47.1726 20.9356 47.3156C21.0083 47.4542 20.956 47.6404 20.8129 47.7131C20.5086 47.8653 20.2043 48.0197 19.9022 48.1719C19.6592 48.2945 19.4162 48.4171 19.18 48.5511C18.996 48.6942 18.728 48.7351 18.619 48.4785Z" fill="white"/>
<path id="Vector_20" d="M51.3827 47.9947C48.7823 47.1749 46.0932 46.6866 43.3974 46.3118C40.4903 45.9462 37.631 45.5351 34.7103 45.3829C34.4468 45.4329 34.2492 45.1036 34.4355 44.9014C34.6058 44.722 34.8897 44.822 35.1077 44.8129C38.2533 45.0286 41.3874 45.4556 44.508 45.878C46.8949 46.2482 49.2706 46.7138 51.5644 47.4383C51.9255 47.5632 51.7552 48.106 51.3827 47.9947Z" fill="white"/>
<path id="Vector_21" d="M41.4851 27.1434C41.4533 27.1434 41.4215 27.1343 41.392 27.1184C41.3466 27.0957 41.3102 27.0571 41.292 27.0094C41.258 26.9412 41.2557 26.864 41.283 26.7959L41.2943 26.7663L41.2966 26.7323C41.3102 26.5915 41.3057 26.4325 41.3034 26.2803C41.258 25.2333 41.0309 24.3567 40.6289 23.6685C40.4654 23.3664 40.2859 23.0439 40.0656 22.7555C39.993 22.6601 39.9861 22.5443 40.0475 22.4444C40.0929 22.3717 40.1587 22.3308 40.2269 22.3308C40.2541 22.3308 40.2791 22.3376 40.3018 22.349C40.3291 22.3626 40.3541 22.383 40.3768 22.4126C41.1558 23.4686 41.6123 24.6269 41.6918 25.7534C41.694 25.8147 41.7009 25.892 41.7077 25.976C41.7417 26.378 41.794 26.9639 41.5805 27.1138C41.551 27.132 41.5192 27.1434 41.4851 27.1434Z" fill="#2D1600"/>
<path id="Vector_22" d="M29.0619 26.4666L20.8608 28.0859L19.8638 28.8058L29.0619 27.2569V26.4666Z" fill="#FF9494"/>
</g>
</g>
<rect x="0.5" y="0.5" width="59" height="59" rx="29.5" stroke="#2D1600"/>
</g>
<defs>
<clipPath id="clip0_6474_7457">
<rect width="60" height="60" rx="30" fill="white"/>
</clipPath>
</defs>
</svg>
