<svg width="60" height="60" viewBox="0 0 60 60" fill="none" xmlns="http://www.w3.org/2000/svg">
<g id="expert ava">
<g clip-path="url(#clip0_6474_7670)">
<g id="Group">
<g id="Group_2">
<path id="Vector" d="M16.9859 26.0605C18.3221 25.9923 19.2834 27.1654 19.9041 28.2169C19.9868 28.4286 20.1547 28.4797 20.2959 28.4384C20.3884 28.4286 20.4833 28.3994 20.5685 28.3653C20.7437 28.3118 20.9214 28.251 21.0796 28.1585C21.3571 28.066 21.637 27.9711 21.9144 27.881C22.2527 27.769 22.591 27.6547 22.9293 27.5427C23.9491 27.202 24.9713 26.8637 25.9911 26.5229C26.4998 26.355 27.0085 26.1822 27.5196 26.0142C27.7703 25.9315 28.0185 25.8487 28.2692 25.766C28.2765 25.7879 28.2814 25.8074 28.2862 25.8293C28.5199 26.574 28.7828 27.2433 29.0675 27.9905C29.3036 28.5868 29.5762 29.1661 29.8707 29.7356C29.8707 29.7356 29.8707 29.7356 29.8731 29.7356C29.9145 29.8451 30.0118 29.9376 30.136 29.9449C31.202 29.8792 32.2437 29.5993 33.2951 29.4338C34.276 29.2707 35.2519 29.0882 36.2206 28.874C36.318 28.8472 36.3837 28.7913 36.4177 28.7207C36.6149 28.4797 36.6465 27.9491 36.7293 27.7131C37.0286 26.3939 37.2526 25.0529 37.3962 23.7094C37.3986 23.6826 37.3986 23.6583 37.3986 23.6364C37.4716 23.6242 37.5446 23.612 37.6152 23.5999C37.6322 23.6631 37.6517 23.7264 37.6639 23.7873C37.715 23.9868 37.771 24.184 37.8294 24.3811C37.4935 25.895 37.6493 27.5038 38.4427 28.8716C38.708 29.3316 39.0439 29.7429 39.4017 30.1323C39.5112 30.2881 39.7156 30.439 39.7108 30.6434C39.5939 30.8795 39.3992 31.0645 39.2337 31.2641C38.8735 31.6632 38.4646 32.021 38.0168 32.3203C37.8002 32.4834 37.3913 32.6075 37.5763 32.958C37.7904 33.2915 38.1482 32.997 38.3746 32.8363C38.7689 32.5759 39.1315 32.2668 39.4698 31.9358C40.4506 30.8917 40.7281 30.5728 39.6329 29.4484C38.6958 28.4018 38.2797 27.1022 38.2943 25.7903C38.5717 26.5765 38.8759 27.3602 39.28 28.0879C39.2873 28.0976 39.2946 28.1073 39.3019 28.1146C39.3335 28.2607 39.4674 28.3605 39.611 28.3605H39.6377L39.6402 28.358H39.6475C39.6913 28.3532 39.7351 28.3532 39.7789 28.3507C39.8543 28.3459 39.9298 28.341 40.0077 28.3337C40.2048 28.3167 40.402 28.2923 40.5991 28.2656C40.7038 28.251 40.8109 28.2363 40.9155 28.2193C40.9472 28.2144 40.9788 28.2096 41.0104 28.2047C41.0129 28.2023 41.0177 28.2023 41.0226 28.2023C41.0348 28.1998 41.0445 28.1998 41.0542 28.1974C41.0908 28.1901 41.1273 28.1852 41.1613 28.1804C41.5386 28.122 41.9158 28.0489 42.2906 27.9686C42.2931 27.9808 42.2931 27.9905 42.2955 28.0051C42.4123 30.0179 42.5778 32.0721 42.1762 34.063C41.7333 35.9736 40.9472 37.945 39.4503 39.269C38.8954 39.7801 38.2237 40.1208 37.5398 40.4275C37.4667 40.4592 37.3962 40.4908 37.3231 40.5224C37.1041 40.6271 36.8802 40.7196 36.6538 40.8048C35.7582 41.1358 34.8114 41.3159 33.8671 41.4692C31.2263 41.8951 28.5223 41.1285 26.1225 40.0405C23.7252 38.8552 21.9315 36.7573 20.6902 34.4256C20.5369 34.1993 20.4079 33.9194 20.2448 33.6736C20.0622 33.3961 19.8383 33.1625 19.4903 33.1114C18.4681 33.1746 17.4483 32.9434 16.594 32.3569C14.2964 30.9744 13.7878 26.5765 16.9859 26.0605ZM33.9815 36.3776C34.3368 36.4141 34.3319 36.0661 34.4147 35.8202C34.4463 35.7423 34.4828 35.6669 34.5266 35.5939C34.7506 35.7789 34.9866 35.9468 35.2495 36.0782C35.802 36.3703 36.3934 36.6088 37.0067 36.7475C37.2234 36.7986 37.4473 36.8352 37.6688 36.8595C37.7247 36.8644 37.7807 36.8717 37.8367 36.8741C38.2529 36.896 38.6715 36.8717 39.0853 36.823C39.4941 36.7646 39.4211 36.161 39.0122 36.1975C38.837 36.2194 38.6618 36.234 38.4865 36.2437C37.2939 36.3216 35.8726 35.8689 34.9234 35.0998C35.0597 34.9684 35.2106 34.854 35.3663 34.7542C35.819 34.5376 35.4296 33.9267 35.0207 34.2285C34.7262 34.4208 34.4488 34.6544 34.2249 34.9294C34.1372 35.0365 34.0569 35.1509 33.9888 35.2726C33.8257 35.5598 33.4704 36.2608 33.9815 36.3776ZM17.9545 31.4831C18.2782 31.6705 18.636 31.2714 18.3707 30.9915C18.3172 30.9306 18.2442 30.9184 18.1736 30.8917C18.0105 30.8114 17.8669 30.697 17.7258 30.5801C17.2049 30.0836 16.5453 29.2196 16.5502 28.4773C16.6427 27.954 17.6917 28.9787 17.8669 29.1417C18.1614 29.4265 18.5971 28.9884 18.3123 28.6963C17.7842 28.2363 17.1173 27.4794 16.3482 27.769C15.0461 28.526 17.0005 31.1229 17.9545 31.4831Z" fill="white"/>
<path id="Vector_2" d="M20.0234 34.5448C20.0502 34.7371 20.0769 34.9318 20.1061 35.1265C20.1816 35.6522 20.257 36.1755 20.3325 36.7012C20.4907 37.7916 20.6465 38.8795 20.8047 39.9723C20.9531 41.0067 21.1016 42.0411 21.2525 43.073C21.3304 43.6085 21.4058 44.1439 21.4837 44.6818C21.491 44.6964 21.4959 44.7134 21.5032 44.728C21.5178 44.7597 21.5299 44.7913 21.5445 44.8205C21.5543 44.8449 21.564 44.8668 21.5738 44.8887C22.7225 47.5489 24.4822 49.9681 26.7433 51.7887C27.8361 52.6089 29.0043 53.3707 30.3308 53.7455C30.523 53.799 30.7177 53.8501 30.9173 53.8818C30.9441 53.8842 30.9684 53.8842 30.9952 53.8842C31.0074 53.8623 31.0195 53.838 31.0317 53.8185C31.1802 53.4412 31.2532 53.1127 31.3335 52.733C31.6402 50.9709 31.8397 49.1917 31.9639 47.4077C32.0247 46.2808 32.0856 45.154 32.1221 44.0247C32.1245 43.9736 32.1245 43.9176 32.1245 43.8665C32.1245 43.864 32.1245 43.8616 32.1245 43.8592C32.1123 43.6182 32.1026 43.3797 32.0904 43.1387C32.0758 42.8369 32.0637 42.5327 32.0491 42.2285C32.0491 42.226 32.0491 42.2212 32.0491 42.2163C29.8756 42.119 27.7265 41.4983 25.7673 40.5613C23.7472 39.5415 22.1141 37.9011 20.8947 36.01C20.481 35.348 20.2108 34.8758 20.0234 34.5448Z" fill="white"/>
<path id="Vector_3" d="M21.0503 21.4848C21.0892 21.4605 21.1257 21.4337 21.1622 21.4069C21.4713 21.2171 21.7877 21.0394 22.1017 20.8593C22.917 20.4018 23.7348 19.9685 24.5964 19.584C25.7793 19.0631 27.0205 18.6932 28.2642 18.3452C28.8946 18.1675 29.5298 18.0044 30.1724 17.8633C30.9707 17.688 31.7763 17.5517 32.5892 17.4665C33.8889 17.3497 35.1983 17.413 36.4931 17.5469C36.9653 17.615 37.4399 17.6613 37.912 17.7294C38.097 17.761 38.2844 17.7878 38.4669 17.8414C38.4694 17.8438 38.4742 17.8487 38.4767 17.8535C38.669 18.0847 38.8442 18.3306 39.017 18.5764C39.8907 19.7519 40.5528 21.0711 41.0322 22.4511C40.3921 22.5241 39.7569 22.619 39.1192 22.7188C39.3188 22.3562 39.5524 22.013 39.8177 21.6917C40.1293 21.295 39.55 20.8569 39.202 21.4483C38.8685 21.8767 38.5813 22.3464 38.3501 22.8429C38.1335 22.8794 37.9193 22.9135 37.7051 22.95C35.0279 23.3857 32.3726 23.9576 29.7683 24.7219C29.357 24.8338 28.9408 24.9336 28.5246 25.0237C28.5027 25.0237 28.4784 25.0285 28.4565 25.0358C28.4492 25.0383 28.4443 25.0383 28.437 25.0407C28.106 25.1551 27.7702 25.2622 27.4367 25.3741C26.9694 25.5299 26.5021 25.6857 26.0372 25.8414C25.0199 26.1797 24.0001 26.518 22.9828 26.8563C22.7199 26.944 22.4546 27.0316 22.1918 27.1192C21.9995 27.1825 21.8096 27.2458 21.6174 27.3115C21.6539 27.0292 21.6149 26.7249 21.5638 26.4475C21.3862 25.2305 21.2426 24.0087 21.1063 22.7869C21.0819 22.3586 20.9894 21.9156 21.0503 21.4848ZM28.1742 24.2935C28.274 24.4322 28.4881 24.4541 28.6196 24.3495C28.6999 24.2935 28.7413 24.201 28.7413 24.1085C28.7778 23.9917 28.8313 23.8773 28.8849 23.7678C29.2013 23.1472 29.6394 22.5776 30.2429 22.2101C30.4839 22.0519 30.7322 21.8937 30.9999 21.7745C31.3771 21.6041 31.1362 21.0443 30.7541 21.1952C29.8389 21.6211 29.0017 22.2564 28.51 23.152C28.3616 23.4319 27.9624 23.9941 28.1742 24.2935Z" fill="white"/>
<path id="Vector_4" d="M29.2528 25.5055C30.5817 25.1696 31.8935 24.7583 33.2321 24.4614C34.4028 24.201 35.5808 23.96 36.7612 23.7458C36.6566 24.7535 36.4789 25.7538 36.2964 26.7468C36.1868 27.2579 36.0822 27.7714 35.941 28.2752C35.9386 28.2801 35.9362 28.2826 35.9337 28.2874C34.4272 28.6184 32.9011 28.8423 31.3873 29.1441C31.0636 29.2025 30.735 29.2464 30.4089 29.2853C30.3894 29.2877 30.3724 29.2926 30.3529 29.2926C30.2093 29.0103 30.073 28.7255 29.9416 28.4383C29.669 27.842 29.4451 27.2336 29.2212 26.6154C29.1043 26.2795 28.9607 25.9388 28.8707 25.5883C28.9997 25.5639 29.1262 25.5372 29.2528 25.5055ZM32.4728 27.4964C32.5555 27.5402 32.6529 27.55 32.7405 27.5183C33.1397 27.6108 33.5753 27.2822 33.6094 26.8758C33.6556 26.3866 33.512 25.727 32.9547 25.6126C31.9884 25.4812 31.7645 27.0462 32.4728 27.4964Z" fill="white"/>
<path id="Vector_5" d="M38.4811 23.4537C38.5127 23.4488 38.5395 23.4439 38.5711 23.4391C38.6442 23.4269 38.7172 23.4172 38.7902 23.405C39.5714 23.2833 40.3576 23.1738 41.1462 23.0764C41.7911 23.0132 42.441 22.9401 43.0908 22.9255C43.1005 23.5291 43.0981 24.1352 43.0421 24.7339C42.9788 25.3594 42.9302 25.9898 42.8839 26.6177C42.8718 26.8124 42.8547 27.0095 42.8328 27.2018C42.8328 27.2042 42.8328 27.2042 42.8328 27.2042C42.7403 27.2262 42.6478 27.2456 42.5554 27.2675C42.2463 27.3381 41.9347 27.4014 41.6232 27.4598C41.3944 27.5012 41.1656 27.5426 40.9368 27.5791C40.9271 27.5815 40.9149 27.5815 40.9052 27.5839C40.9052 27.5864 40.9028 27.5864 40.9028 27.5864C40.6448 27.6253 40.3868 27.6642 40.1264 27.691C40.0144 27.7032 39.9025 27.7129 39.7905 27.7202C39.6299 27.4574 39.513 27.1677 39.3913 26.883C39.0482 26.0555 38.7366 25.2158 38.4786 24.3591C38.464 24.3153 38.4519 24.2715 38.4373 24.2252C38.43 24.1984 38.4202 24.1717 38.4129 24.1449C38.4008 24.0986 38.3862 24.0524 38.3716 24.0086L38.3472 23.9161C38.3351 23.8747 38.3229 23.8309 38.3107 23.7871C38.3058 23.7676 38.301 23.7506 38.2961 23.7336C38.2912 23.7165 38.2864 23.6971 38.2815 23.6776C38.2766 23.6606 38.2718 23.6411 38.2669 23.6241C38.262 23.6046 38.2572 23.5875 38.2523 23.5681C38.2523 23.5656 38.2523 23.5656 38.2523 23.5656C38.2499 23.5535 38.245 23.5389 38.2426 23.5291C38.2401 23.517 38.2353 23.5024 38.2353 23.4926C38.3156 23.4805 38.3983 23.4658 38.4811 23.4537ZM39.9098 26.2964C40.0095 26.3086 40.1118 26.2696 40.1799 26.1991C40.3868 26.2064 40.6618 26.1114 40.6813 25.8729C41.0877 25.2815 40.5499 24.2179 39.7759 24.5246C39.0847 24.8045 39.2234 26.1041 39.9098 26.2964Z" fill="white"/>
</g>
<g id="Group_3">
<path id="Vector_6" d="M1.01196 65.6666C1.03386 65.4694 1.06063 65.2625 1.09713 65.0362C1.65449 61.4949 3.41174 57.5691 4.90856 55.2497C8.58855 50.0388 14.3324 46.0935 20.6824 44.419C20.6264 44.0272 20.5704 43.6377 20.5144 43.2459L20.3757 42.2918C20.2418 41.3572 20.1055 40.4202 19.9692 39.4856L19.5019 36.2291C19.4387 35.8032 19.3778 35.3797 19.317 34.9538L19.261 34.5595C19.2294 34.3331 19.1977 34.1068 19.1612 33.878C19.132 33.878 19.1028 33.878 19.0712 33.878C18.7864 33.878 18.3069 33.8512 17.4478 33.6176C16.6495 33.3377 15.9193 32.8874 15.3352 32.313C14.5125 31.3955 14.0112 30.2175 13.9649 29.0809C13.9576 28.2972 14.0891 27.6279 14.3543 27.09C13.7629 26.2819 13.4684 25.2743 13.2396 24.3056C12.9281 22.9378 12.9135 21.4945 13.1934 20.0148C12.9816 19.8468 12.7894 19.6594 12.6214 19.4574C11.4045 17.9825 11.2001 15.6776 12.1128 13.7232C13.0839 11.6423 14.9701 10.3597 16.3817 9.64897C18.2753 8.6949 20.4073 8.18866 22.5443 8.18866C22.9093 8.18866 23.2768 8.20326 23.6371 8.23247C25.0195 6.31459 26.5991 5.02465 28.3295 4.39672C29.0451 4.1363 29.8288 4 30.593 4C32.0119 4 33.3092 4.46243 34.2462 5.29968C35.0762 6.03957 35.6384 7.091 35.8039 8.20814C36.1982 7.37089 37.05 6.72592 38.0187 6.54338C38.228 6.50444 38.4471 6.48496 38.6661 6.48496C39.5666 6.48496 40.5085 6.81597 41.319 7.41956C42.1295 8.02316 42.8377 8.89448 43.4827 10.0871C43.9865 11.0168 44.3005 11.8565 44.4416 12.6523C44.4976 12.9541 44.5293 13.2608 44.5341 13.5626C44.5609 15.2395 43.7018 16.8994 42.295 17.9022V17.9119C42.2974 17.9655 42.2974 18.019 42.2974 18.0701C42.3291 19.4112 42.11 20.633 41.6451 21.699C41.6305 21.7331 41.6111 21.7647 41.5892 21.7915C41.6573 21.9667 41.7109 22.1176 41.7547 22.2515C42.3607 22.1979 42.9108 22.1711 43.4365 22.1663C43.5801 22.176 43.6993 22.2417 43.7748 22.3537C43.8502 22.4632 43.8697 22.6068 43.8356 22.7236C43.8819 23.7069 43.7967 24.6999 43.7139 25.6589C43.6798 26.041 43.6458 26.4377 43.6214 26.8295C43.6044 27.0559 43.5801 27.2822 43.5606 27.4258C43.5655 27.5816 43.5143 27.7203 43.4219 27.8177C43.3391 27.9029 43.232 27.9467 43.1079 27.9467C43.0884 27.9467 43.069 27.9467 43.0397 27.9418C43.069 28.3726 43.0933 28.801 43.1176 29.2318C43.232 31.2665 43.2491 33.4253 42.5968 35.4186C42.1344 36.767 41.4334 38.4731 40.1167 39.6803C39.4644 40.3034 38.6539 40.7974 37.4833 41.2818C37.218 41.3913 36.9356 41.5008 36.5973 41.6249C36.5341 41.6493 36.4708 41.6712 36.3953 41.698C35.2611 41.9998 34.0418 42.287 32.8005 42.3429C32.8151 42.6228 32.8273 42.9052 32.8419 43.1923C35.2563 43.2897 37.4005 43.6499 39.3938 44.2949C44.887 45.7649 49.3264 49.9487 51.8917 56.0772C53.1694 59.1633 53.7536 62.393 53.6246 65.6739L53.6221 65.7201H45.9263L45.9214 65.6763C45.8387 64.9632 45.7243 64.2379 45.6148 63.5394C45.5369 63.0429 45.4566 62.5293 45.3884 62.0231C44.9771 59.4797 44.2202 56.8268 43.142 54.1398C43.0811 54.0011 42.974 53.9792 42.9132 53.9792C42.8183 53.9792 42.7233 54.0303 42.6698 54.1082C42.6357 54.1569 42.6065 54.2396 42.6503 54.3467C43.8502 57.316 44.6558 60.3413 45.0477 63.3398C45.0988 63.7633 45.1645 64.1916 45.2302 64.6054C45.2838 64.9534 45.3397 65.3112 45.386 65.6666L45.3933 65.7201H1.07524C1.0655 65.7201 1.05333 65.7201 1.04116 65.7177L0.99979 65.7079L1.01196 65.6666ZM42.0467 34.0386C42.4167 32.2108 42.3023 30.3075 42.1903 28.4651L42.1709 28.1244C41.8131 28.1974 41.4894 28.2582 41.1827 28.3069L41.0732 28.3239L41.044 28.3288L40.9345 28.3458C40.8395 28.3604 40.7446 28.3726 40.6521 28.3872L40.6181 28.3921C40.4258 28.4213 40.2749 28.3921 40.068 28.4091C39.9926 28.4164 39.9171 28.4213 39.8368 28.4262L39.7832 28.4286L39.7273 28.431L39.7175 28.4359H39.6591C39.462 28.4359 39.2892 28.3069 39.2332 28.1195C39.2283 28.1146 39.2235 28.1073 39.2186 28.0976C38.929 27.5767 38.6539 27.0924 38.4836 26.6592C38.6296 27.679 38.9557 28.6549 39.6299 29.407C40.8225 30.6312 40.5256 31.0036 39.5642 32.0258C39.1845 32.3982 38.8219 32.6976 38.4544 32.941L38.4057 32.975C38.2426 33.0919 38.0406 33.2379 37.8313 33.2379C37.6828 33.2379 37.5611 33.1649 37.4662 33.0164C37.2618 32.6319 37.6001 32.4298 37.8021 32.3082C37.8532 32.2765 37.9019 32.2473 37.9481 32.2132C38.3813 31.9236 38.7805 31.5756 39.1383 31.1813C39.1797 31.1302 39.2235 31.0815 39.2673 31.0304C39.3841 30.899 39.5034 30.7627 39.5837 30.6142C39.5739 30.5266 39.4961 30.439 39.4157 30.3465C39.3744 30.2978 39.333 30.2515 39.3111 30.2175C38.8852 29.7526 38.5761 29.3437 38.3375 28.9324C37.5757 27.6206 37.3518 26.0045 37.7023 24.3811C37.6463 24.1937 37.5928 24.0038 37.5441 23.8091C37.5392 23.7872 37.5344 23.7678 37.5295 23.7459C37.3835 25.0796 37.1595 26.4255 36.8578 27.7495C36.8334 27.8177 36.8115 27.9248 36.7896 28.0392C36.7385 28.302 36.6777 28.6014 36.5341 28.7815C36.4781 28.8837 36.3832 28.9567 36.2542 28.9932C35.3658 29.1904 34.4069 29.3729 33.3214 29.5555C32.9636 29.6114 32.6009 29.6845 32.2432 29.7526C31.5617 29.8865 30.8559 30.0252 30.133 30.069C29.9724 30.0593 29.8337 29.9546 29.7631 29.7915C29.4369 29.1636 29.1741 28.5892 28.955 28.0343L28.8723 27.8201C28.6192 27.163 28.3806 26.5424 28.1665 25.856C28.1665 25.8536 28.1665 25.8536 28.1665 25.8511L22.9507 27.5865C22.3544 27.7836 21.7557 27.9832 21.1594 28.1828L21.1886 28.2461L21.1521 28.268C20.9793 28.3677 20.787 28.431 20.6264 28.4821C20.5655 28.5065 20.4438 28.5503 20.3416 28.5576C20.3002 28.5698 20.2564 28.5771 20.2126 28.5771C20.0276 28.5771 19.8719 28.4627 19.8013 28.2801C18.9811 26.8904 18.0733 26.1846 17.1046 26.1846C17.0705 26.1846 17.0364 26.1846 17.0145 26.1846C15.8828 26.3671 15.1429 27.0778 14.9263 28.1852C14.6342 29.6966 15.3985 31.4806 16.6689 32.2497C17.3772 32.7341 18.2436 32.9896 19.1709 32.9896C19.2756 32.9896 19.3803 32.9872 19.4946 32.9799L19.5117 32.9823C19.9425 33.0456 20.1883 33.3474 20.3562 33.6005C20.439 33.7247 20.5096 33.8537 20.5826 33.9826C20.6556 34.1141 20.7262 34.2406 20.8089 34.3623C22.1792 36.9398 24.0386 38.8625 26.1804 39.9212C28.4561 40.9556 30.4738 41.4594 32.3454 41.4594C32.8589 41.4594 33.3652 41.4205 33.8495 41.3426C34.7573 41.1966 35.7211 41.0141 36.6119 40.6855C36.8407 40.6003 37.0646 40.5078 37.2739 40.4056L37.4881 40.3107C38.138 40.0186 38.817 39.6779 39.3671 39.1716C40.6278 38.0545 41.5064 36.3727 42.0467 34.0386ZM42.9132 24.7243C42.9667 24.1304 42.9692 23.5268 42.9619 23.0595C42.4508 23.079 41.9323 23.1301 41.431 23.1788L41.1584 23.2055C40.3747 23.3029 39.5837 23.4124 38.8073 23.5341L38.5882 23.5682L38.3911 23.5998L38.4325 23.7532C38.4325 23.7532 38.4617 23.8578 38.4714 23.8846L38.4957 23.9722L38.5614 24.1912C38.5736 24.2351 38.5858 24.2764 38.6004 24.3227C38.8365 25.1064 39.1334 25.929 39.5082 26.8344L39.5447 26.9172C39.6396 27.1411 39.737 27.3723 39.8611 27.5865C39.9463 27.5792 40.0291 27.5719 40.1142 27.5646C40.3382 27.5402 40.5694 27.5086 40.7763 27.477V27.4745L40.9174 27.4526C41.1438 27.4185 41.3701 27.3772 41.6013 27.3334C41.9615 27.2652 42.256 27.2044 42.5286 27.1411L42.716 27.0997C42.7306 26.9488 42.7452 26.7882 42.755 26.6105C42.7988 25.9753 42.8475 25.3522 42.9132 24.7243ZM37.8921 17.8608C37.6488 17.8243 37.4054 17.7951 37.1596 17.7659C36.9308 17.7391 36.702 17.7099 36.4805 17.6783C35.5654 17.5833 34.7573 17.5371 34.0126 17.5371C33.5234 17.5371 33.0488 17.5566 32.6034 17.5979C31.8294 17.6783 31.0433 17.8073 30.1987 17.9922C29.5903 18.1261 28.9672 18.2819 28.2979 18.4717C27.1759 18.7857 25.8762 19.1653 24.6495 19.7057C23.9024 20.0391 23.1113 20.4407 22.167 20.9737L21.9528 21.0954C21.7143 21.2317 21.4661 21.3729 21.2397 21.5116C21.2178 21.5286 21.1935 21.5457 21.1716 21.5603C21.1424 21.8304 21.174 22.1127 21.2032 22.3926C21.2178 22.5216 21.23 22.6531 21.2373 22.7747C21.3638 23.8821 21.5123 25.1721 21.6948 26.4255C21.7338 26.6275 21.78 26.922 21.7606 27.2165L22.9751 26.8125C23.7928 26.5399 24.6106 26.2673 25.4259 25.9972L26.0271 25.7976C26.2875 25.71 27.4266 25.3303 27.4266 25.3303L27.76 25.2208C27.9815 25.1478 28.2054 25.0747 28.4244 24.9993C28.4244 24.9993 28.461 24.9896 28.4683 24.9896L28.4585 24.9141L28.5023 24.9044C28.9915 24.7973 29.3834 24.6999 29.7363 24.605C32.2188 23.8749 34.8182 23.2956 37.6877 22.8283L38.2645 22.7334C38.4957 22.249 38.7756 21.7939 39.092 21.3899C39.2721 21.0832 39.4912 21.037 39.6056 21.037C39.7711 21.037 39.9195 21.1295 39.9926 21.2779C40.068 21.4361 40.0412 21.6235 39.9171 21.7817C39.7151 22.0251 39.5301 22.2855 39.3646 22.5581C39.9341 22.4705 40.4112 22.4048 40.8566 22.3513C40.3625 20.9737 39.7078 19.7324 38.9119 18.6615L38.8754 18.6104C38.7245 18.3962 38.5663 18.1748 38.3935 17.9679C38.2451 17.9265 38.0869 17.9022 37.9335 17.8754L37.8921 17.8608ZM29.0329 25.6905C29.0913 25.8925 29.1668 26.0921 29.2374 26.2892C29.2739 26.3866 29.3104 26.4839 29.342 26.5789C29.5684 27.2019 29.7923 27.808 30.06 28.3921C30.1768 28.6501 30.2985 28.9081 30.4275 29.1587C30.7463 29.1198 31.0579 29.0784 31.3645 29.0225C32.0047 28.8959 32.6496 28.7815 33.2727 28.6695C34.1148 28.5211 34.9837 28.3653 35.8331 28.1828C35.9499 27.7593 36.0424 27.3261 36.13 26.905L36.169 26.7273C36.3515 25.7295 36.5121 24.8241 36.6144 23.9065C35.5191 24.1085 34.3898 24.3397 33.2581 24.5904C32.4476 24.7705 31.6347 24.9944 30.851 25.211C30.3423 25.3522 29.8142 25.4982 29.2836 25.6321C29.1984 25.6516 29.1157 25.671 29.0329 25.6905ZM31.9949 43.9103C31.9949 43.9103 31.9292 42.4768 31.9219 42.3405C29.8775 42.2334 27.7868 41.6736 25.7034 40.6782C23.8001 39.7168 22.0989 38.1275 20.7797 36.0806C20.5874 35.7715 20.4122 35.4795 20.2467 35.1947C20.3927 36.2048 20.933 39.9529 20.933 39.9529C21.0693 40.8875 21.2032 41.8197 21.3371 42.7591L21.359 42.91C21.3663 42.9514 21.3711 42.9952 21.3809 43.0561L21.6194 44.7062L21.5561 44.7232C21.5683 44.75 21.6097 44.8474 21.6194 44.8717C22.8022 47.6074 24.5838 49.9877 26.7719 51.7522C27.7673 52.4994 28.9696 53.3148 30.3448 53.6993C30.503 53.7455 30.7123 53.8015 30.9216 53.8356L30.9678 53.838C30.9703 53.8307 30.9873 53.804 30.9873 53.804C31.1382 53.4218 31.2112 53.0835 31.2867 52.7258C31.5763 51.0513 31.7832 49.3111 31.9146 47.4078C31.9779 46.259 32.0363 45.1346 32.0728 44.0272C32.0728 43.9907 32.0752 43.9517 32.0752 43.9128L31.9949 43.9103Z" fill="#2D1600"/>
<path id="Vector_7" d="M17.7569 30.5435C17.898 30.6604 18.0367 30.7699 18.1901 30.8453C18.2047 30.8526 18.2217 30.8575 18.2363 30.8624C18.2923 30.8818 18.3531 30.9013 18.4043 30.9573C18.5113 31.0692 18.5406 31.2104 18.4821 31.3443C18.4213 31.4854 18.2801 31.5779 18.1268 31.5779C18.0587 31.5779 17.9929 31.5584 17.937 31.5268C17.2263 31.2591 15.9607 29.7793 15.8706 28.6792C15.8341 28.2484 15.9923 27.9198 16.3306 27.7251C16.4499 27.6813 16.5716 27.657 16.6933 27.657C17.2384 27.657 17.7106 28.0878 18.1268 28.4675C18.1998 28.5356 18.2728 28.6013 18.3434 28.6622C18.4505 28.7717 18.4797 28.9104 18.4237 29.0443C18.3653 29.1854 18.2242 29.2828 18.0781 29.2828C17.9881 29.2828 17.9029 29.2463 17.8323 29.1781L17.7909 29.1416C17.2531 28.6354 16.888 28.3798 16.703 28.3798C16.6592 28.3798 16.6105 28.392 16.5959 28.4796C16.5935 29.1806 17.219 30.03 17.7569 30.5435Z" fill="#2D1600"/>
<path id="Vector_8" d="M31.0165 21.8183C30.7488 21.9351 30.5006 22.0957 30.2669 22.2491C29.7315 22.5752 29.2812 23.0936 28.921 23.7994C28.8699 23.9041 28.8188 24.0112 28.7871 24.1085C28.7871 24.2229 28.7336 24.3276 28.6484 24.3884C28.5876 24.4371 28.5072 24.4639 28.4245 24.4639C28.3077 24.4639 28.1981 24.4103 28.1349 24.3227C27.9401 24.0477 28.1933 23.6096 28.3758 23.2908C28.4099 23.2324 28.4415 23.1764 28.4659 23.1301C28.9113 22.3197 29.695 21.6357 30.7342 21.1538C30.7829 21.1344 30.8316 21.1246 30.8802 21.1246C31.0457 21.1246 31.1893 21.2463 31.2258 21.4191C31.2624 21.5846 31.1796 21.7428 31.0165 21.8183Z" fill="#2D1600"/>
<path id="Vector_9" d="M32.8416 25.5566C32.8805 25.5566 32.9195 25.5591 32.9633 25.5664C33.5182 25.6808 33.7105 26.3111 33.6569 26.8807C33.6253 27.2603 33.2699 27.584 32.8781 27.584C32.8319 27.584 32.7856 27.5792 32.7418 27.5694C32.7053 27.5816 32.6688 27.5865 32.6298 27.5865C32.5666 27.5865 32.5033 27.5694 32.4449 27.5378C32.0262 27.2725 31.9362 26.664 32.0628 26.226C32.1844 25.8049 32.4765 25.5566 32.8416 25.5566Z" fill="#2D1600"/>
<path id="Vector_10" d="M34.5409 35.6644C34.5117 35.718 34.4849 35.774 34.4606 35.8324C34.4435 35.8811 34.4314 35.9322 34.4192 35.9857C34.3681 36.1926 34.3097 36.4262 34.0322 36.4262C34.0152 36.4262 33.9982 36.4262 33.9738 36.4214C33.8424 36.3922 33.7523 36.324 33.7061 36.2194C33.616 36.0173 33.6988 35.6912 33.9495 35.2458C34.0152 35.129 34.0955 35.0122 34.1904 34.8953C34.3997 34.6374 34.6699 34.3988 34.9936 34.1847C35.0764 34.1238 35.1615 34.0922 35.2492 34.0922C35.4195 34.0922 35.5729 34.2163 35.6118 34.3867C35.641 34.5181 35.5996 34.6909 35.3952 34.7882C35.2516 34.8807 35.1177 34.9805 35.0009 35.09C35.8552 35.7642 37.1135 36.1975 38.2209 36.1975C38.3109 36.1975 38.3986 36.195 38.4862 36.1902C38.6711 36.1804 38.8415 36.1658 39.0095 36.1463C39.0241 36.1439 39.0387 36.1439 39.0508 36.1439C39.2772 36.1439 39.394 36.3191 39.4062 36.4822C39.4183 36.6428 39.3259 36.8327 39.0922 36.8668C38.7539 36.9057 38.4497 36.9252 38.16 36.9252C38.053 36.9252 37.9434 36.9227 37.8363 36.9154C37.0015 36.857 36.1253 36.5869 35.2321 36.1147C35.0033 36.0052 34.777 35.8567 34.5409 35.6644Z" fill="#2D1600"/>
<path id="Vector_11" d="M40.1995 26.2479C40.1313 26.3087 40.0364 26.3452 39.9439 26.3452C39.9318 26.3452 39.9172 26.3452 39.8953 26.3404C39.4961 26.2284 39.2965 25.7879 39.2746 25.4009C39.2552 25.0553 39.372 24.6318 39.759 24.4785C39.8563 24.4395 39.9537 24.42 40.0486 24.42C40.3309 24.42 40.5889 24.5953 40.7422 24.8873C40.9175 25.2208 40.9126 25.6126 40.7276 25.8877C40.7009 26.1359 40.4356 26.2479 40.1995 26.2479Z" fill="#2D1600"/>
</g>
<path id="Vector_12" d="M43.1956 54.1204C43.0326 53.7407 42.4631 53.9914 42.6164 54.3662C43.7798 57.2406 44.6097 60.2658 45.0089 63.3471C45.1014 64.1235 45.2449 64.8975 45.3472 65.6739C45.554 65.6739 45.7658 65.6739 45.9775 65.6739C45.8364 64.4521 45.61 63.2376 45.4445 62.0182C45.004 59.3069 44.2154 56.6686 43.1956 54.1204Z" fill="white"/>
<path id="Vector_13" d="M14.5388 65.9999H15.1814C15.1984 65.8904 15.213 65.7809 15.2252 65.6714C15.2325 65.6276 15.2374 65.5837 15.2422 65.5399C15.2471 65.5034 15.252 65.4693 15.2568 65.4328C15.6608 62.3881 16.4859 59.4018 17.6347 56.559C17.788 56.1866 17.2185 55.9335 17.0554 56.3156C16.0332 58.8614 15.2471 61.5022 14.8066 64.2111C14.7506 64.6199 14.6897 65.0264 14.6265 65.4353C14.6143 65.5132 14.5997 65.5935 14.5899 65.6714C14.5729 65.7809 14.5559 65.8904 14.5388 65.9999Z" fill="white"/>
</g>
</g>
<rect x="0.5" y="0.5" width="59" height="59" rx="29.5" stroke="#2D1600"/>
</g>
<defs>
<clipPath id="clip0_6474_7670">
<rect width="60" height="60" rx="30" fill="white"/>
</clipPath>
</defs>
</svg>
