<svg width="60" height="60" viewBox="0 0 60 60" fill="none" xmlns="http://www.w3.org/2000/svg">
<g id="expert ava">
<g clip-path="url(#clip0_6474_3304)">
<g id="Group">
<path id="Vector" d="M38.2024 50.5698L36.5613 43.6978C42.0299 42.2919 44.4567 36.2263 44.7461 26.8837C44.7694 26.111 43.9036 24.55 43.8984 23.7333C43.8933 22.7797 44.7435 22.56 44.6996 21.5469L36.8921 14.171L13.3585 22.8055L13.3818 26.3617L12.0353 27.2765L11.6968 29.8377L12.6323 32.1688L15.6328 34.6188L18.0466 35.7405L19.2407 38.0173C20.3959 41.5916 20.7758 45.6155 20.7034 49.9004" fill="white"/>
<path id="Vector_2" d="M-12.7104 97.2723C-12.7234 98.9806 -12.7544 100.722 -12.5916 102.42C-12.5424 102.821 -12.5993 103.446 -12.191 103.581C-12.1238 103.604 -12.0437 103.612 -11.948 103.602C-11.8524 103.583 -11.7775 103.552 -11.718 103.506C-11.4622 103.423 -11.1934 103.273 -10.9686 103.24C-9.62726 102.875 -8.26528 102.578 -6.90071 102.327C-3.6728 101.712 -0.346664 101.444 2.93295 101.71C4.3492 101.816 5.75511 102.028 7.14552 102.351C8.0268 102.565 8.90291 102.821 9.75318 103.144C10.009 103.245 10.2649 103.346 10.5104 103.48C10.5311 103.493 10.5543 103.511 10.5776 103.524L10.5802 103.527C10.5905 103.534 10.6009 103.537 10.6138 103.547C10.6551 103.943 10.6939 104.338 10.7378 104.733C10.7637 104.982 10.7869 105.227 10.8154 105.473V105.475C10.8774 106.145 10.9446 106.814 11.0144 107.486C11.1927 109.21 11.3659 110.941 11.5442 112.665C11.5545 112.774 11.5648 112.877 11.5778 112.985C11.5829 113.019 11.5829 113.058 11.5881 113.091V113.094C11.614 113.337 11.6346 113.572 11.6605 113.812C11.6656 113.864 11.676 113.913 11.6992 113.957V113.96C11.6992 113.965 11.7044 113.97 11.7044 113.973C11.8569 113.973 12.0042 113.975 12.1593 113.975C12.3117 113.975 12.4616 113.978 12.6141 113.978C13.0173 113.98 13.423 113.983 13.834 113.983C14.6093 113.988 15.3846 113.991 16.1625 113.993C16.1677 113.986 16.1728 113.983 16.1806 113.973L21.2331 113.988C25.9651 114.004 30.6972 114.019 35.4292 114.032C36.6982 114.035 37.9671 114.04 39.2386 114.045C42.8826 114.055 46.5266 114.066 50.1707 114.079C53.0109 114.086 55.8486 114.097 58.6888 114.105C58.8181 114.107 58.9473 114.105 59.0765 114.107C59.0713 114.045 59.0713 113.983 59.0662 113.913C59.0558 113.823 59.0507 113.732 59.0455 113.645C59.0403 113.582 59.0377 113.518 59.0326 113.451C59.0274 113.383 59.0222 113.314 59.0171 113.244V113.205C58.924 112.058 58.7948 110.915 58.7018 109.763C58.4769 107.109 58.327 104.447 58.1668 101.787C58.1668 101.777 58.1668 101.764 58.1642 101.754C58.1358 101.214 58.1074 100.676 58.0712 100.136C58.7741 99.8205 59.49 99.5724 60.2214 99.3605H60.224C61.0768 99.1098 61.9374 98.9108 62.8084 98.7196C66.7341 97.7969 70.7942 97.6496 74.8129 97.8073C74.8155 97.8073 74.8155 97.8073 74.8181 97.8073C75.0274 97.8099 75.2342 97.8228 75.4461 97.8305C75.5211 97.8538 75.5934 97.8719 75.6632 97.8745C75.8519 97.8926 75.9992 97.8486 76.1026 97.7737C76.1697 97.7168 76.2188 97.6496 76.2499 97.5799C76.2809 97.5514 76.3093 97.5178 76.33 97.4791C76.3713 97.4067 76.3972 97.3266 76.4023 97.2335C76.4023 97.1405 76.3791 97.0501 76.3326 96.9725C76.3274 96.8821 76.3016 96.7968 76.2447 96.7167C75.7175 95.732 75.3453 94.6672 74.9008 93.6412C74.1151 91.7598 73.3915 89.8499 72.7041 87.9271V87.9245C72.0399 86.0767 71.4067 84.2159 70.7787 82.3577C68.8585 76.7366 67.3259 70.9372 64.8242 65.541C63.9714 63.7138 62.997 62.1373 61.8883 60.7443C61.5808 60.3541 61.2577 59.9742 60.9269 59.6124C58.8077 57.2967 56.2388 55.498 53.1065 53.8388C52.4294 53.4227 51.7213 53.0867 50.9925 52.8102C50.5428 52.6345 50.088 52.4794 49.6228 52.3476C47.5552 51.7403 45.3714 51.4767 43.247 51.1665C41.7248 50.9572 40.2 50.7892 38.6727 50.629H38.6701C38.5176 50.6109 38.3625 50.5928 38.21 50.5773C38.1919 50.5721 38.1739 50.5721 38.1609 50.5721C38.0265 50.1948 37.8896 49.8226 37.7578 49.4505C37.6983 49.298 37.6001 49.2101 37.4864 49.174H37.4838C37.4192 49.1455 37.3598 49.1404 37.2977 49.1455C37.2202 49.0809 37.1323 49.0396 37.0264 49.0344C36.2562 48.993 35.4809 48.9362 34.7159 48.8871C33.6899 48.8277 32.6691 48.763 31.6482 48.6984C29.6789 48.5744 27.7122 48.4503 25.7455 48.3263C24.324 48.2358 22.9026 48.1479 21.4864 48.0575C21.4011 48.0523 21.3158 48.0678 21.2434 48.1014C21.2176 48.1144 21.1917 48.1299 21.1685 48.1428C20.954 48.179 20.7576 48.3702 20.7602 48.6028C20.7627 48.9233 20.7757 49.2489 20.786 49.5668C20.7963 49.8407 20.8041 50.1095 20.8144 50.3835C20.6955 50.3447 20.5793 50.324 20.4526 50.3085H20.45C20.0288 50.2775 19.561 50.3783 19.1656 50.3757C17.1394 50.585 15.1261 50.9314 13.1284 51.319C5.61296 53.0092 -2.56409 55.3688 -7.50288 61.6928C-11.4286 67.3707 -13.2971 74.3952 -13.2222 81.2619C-13.6615 86.6065 -12.7776 91.9278 -12.7104 97.2723Z" fill="#FFE86E"/>
<path id="Vector_3" d="M12.1135 16.0318C12.2324 14.2951 12.8372 12.3853 14.5118 11.5841C16.4424 10.5426 18.7425 11.2197 20.7558 10.5038C22.3814 9.81635 23.7873 8.67405 25.4465 8.0357C28.7777 6.62461 32.5484 6.84946 36.0528 7.34566C39.8752 8.06671 44.3694 9.6432 46.3801 13.2174C47.7602 16.0939 48.1737 20.0273 46.0131 22.6272C45.8167 22.8986 45.0259 23.5266 44.3798 23.767H44.3772C43.8887 23.9556 43.4856 23.9169 43.4933 23.338C43.3176 22.6195 42.9454 21.7227 42.4156 21.1154C42.4131 21.1128 42.4131 21.1128 42.4131 21.1128C42.4131 21.1102 42.4105 21.1076 42.4079 21.105C41.8083 20.415 41.002 20.1049 40.0509 20.8854C38.707 22.1 38.1953 23.2036 36.1846 23.524C34.4376 23.8419 32.7035 23.3044 31.1244 22.5885C25.9478 20.0713 23.3117 19.9937 21.5027 26.0671C21.0168 27.3412 21.0788 29.3493 20.1045 30.3003C18.7994 30.993 18.0344 28.791 17.2177 28.1036C16.8326 27.7366 16.3959 27.336 15.9152 27.0259C15.9126 27.0233 15.91 27.0207 15.9048 27.0181C15.9023 27.0156 15.8971 27.013 15.8945 27.0104C15.2872 26.6124 14.6152 26.3772 13.8916 26.5504C13.5272 26.5349 13.261 26.3178 13.062 26.0025C12.695 25.4236 12.5374 24.5216 12.3926 24.0073C11.9559 21.3841 11.8809 18.686 12.1135 16.0318Z" fill="#2D1600"/>
<path id="Vector_4" d="M30.7437 45.6337C31.1185 45.6182 31.4932 45.6027 31.8654 45.5768C32.4184 45.5277 32.3797 44.6904 31.8085 44.7162C30.2863 44.8093 28.7279 44.8842 27.2445 44.4655C25.0891 43.7884 23.1146 42.4471 21.7578 40.6355C20.5457 38.9323 19.8712 36.8467 18.2869 35.4201C17.3462 34.5673 16.1134 34.1745 15.0357 33.5335C13.759 32.7246 12.6116 31.5099 12.2187 30.0213C11.5545 27.9667 12.8907 26.1421 15.0978 26.7288C15.6327 26.8709 16.1419 27.0984 16.62 27.3749C17.0464 27.5636 17.6873 28.326 18.0802 27.7186C18.2326 27.4266 18.0052 27.1552 17.7364 27.0544C17.4366 26.8709 17.1472 26.6693 16.8345 26.5039C14.2785 24.9585 11.0092 25.8785 11.2082 29.2512C11.3323 31.0034 12.3764 32.5204 13.6867 33.6291C14.5886 34.3941 15.6973 34.8257 16.7259 35.3814C17.8372 35.9448 18.6022 36.9785 19.2431 38.0175C20.021 39.4234 20.7163 40.9042 21.8405 42.075C23.2981 43.6024 25.1743 44.7757 27.2083 45.3468C28.3583 45.6518 29.5601 45.6751 30.7437 45.6337Z" fill="#2D1600"/>
<path id="Vector_5" d="M32.0261 45.6103C33.6336 45.4294 35.223 45.0108 36.7013 44.3543C39.0479 43.1965 41.0353 41.3177 42.4593 39.1338C44.3072 36.1669 45.0385 32.5979 45.1859 29.1425C45.3693 26.5659 44.594 24.0771 43.6094 21.7304C43.1726 20.6269 42.6893 19.5285 41.9812 18.5697C41.6659 18.1097 40.9552 18.5413 41.2524 19.0297C41.4979 19.3786 41.7331 19.7353 41.9398 20.11C42.4102 21.0017 42.8134 22.0432 43.1623 22.9555C44.4519 25.9715 44.5656 28.7394 44.0616 31.9466C43.5344 35.3968 42.2112 38.8728 39.5829 41.2608C37.934 42.8993 35.8639 44.0106 33.6026 44.468C32.9461 44.6309 32.2768 44.7187 31.6074 44.7937C31.5092 44.8014 31.4136 44.8273 31.3335 44.8945C31.044 45.1167 31.1965 45.6362 31.5661 45.6543C31.7185 45.6595 31.8736 45.6259 32.0261 45.6103Z" fill="#2D1600"/>
<path id="Vector_6" d="M39.7296 31.1221C40.4998 30.8818 40.5411 29.2588 40.2206 28.6566C40.0139 28.1836 39.36 27.9743 38.9724 28.3594C38.396 28.9719 38.5459 29.9462 38.7708 30.6854C38.9 31.0653 39.3704 31.2229 39.7296 31.1221Z" fill="#2D1600"/>
<path id="Vector_7" d="M32.1588 31.1221C32.929 30.8818 32.9703 29.2588 32.6498 28.6566C32.4431 28.1836 31.7892 27.9743 31.4016 28.3594C30.8252 28.9719 30.9751 29.9462 31.2 30.6854C31.3292 31.0653 31.7996 31.2229 32.1588 31.1221Z" fill="#2D1600"/>
<path id="Vector_8" d="M39.5653 25.8475C39.9452 25.3022 40.5809 25.9844 40.966 26.2067C41.4752 26.5866 42.403 27.6049 42.2479 28.2768C42.1652 28.4965 41.8912 28.5921 41.6819 28.5042C41.5346 28.4422 41.4596 28.3156 41.4286 28.1786V28.1734C41.426 28.1579 41.4235 28.1424 41.4235 28.1269C41.4235 28.1372 41.4209 28.1476 41.4235 28.1579C41.3046 27.8349 41.103 27.5506 40.8885 27.2921C40.5654 26.9252 40.1416 26.6719 39.7229 26.4341C39.5136 26.3204 39.449 26.0465 39.5653 25.8475ZM41.4235 28.0752C41.4235 28.0597 41.426 28.0442 41.4286 28.0261C41.4286 28.0313 41.4235 28.0365 41.4235 28.039C41.4209 28.052 41.4235 28.0649 41.4235 28.0752Z" fill="#2D1600"/>
<path id="Vector_9" d="M28.5167 26.4106C29.0749 25.873 29.7856 25.4466 30.5816 25.457C30.9331 25.4518 31.3699 25.6689 31.5327 25.2166C31.7136 24.3844 30.2741 24.586 29.796 24.6868C29.3928 24.7798 29.0181 24.9556 28.6744 25.183C28.4133 25.3536 28.1756 25.5552 27.9456 25.7645C27.5295 26.1418 28.0903 26.7802 28.5167 26.4106Z" fill="#2D1600"/>
<path id="Vector_10" d="M35.5582 36.4614C36.088 36.2857 36.6746 36.0531 36.946 35.5285C37.3647 34.4508 36.9408 33.2594 36.8142 32.1584C36.7108 31.5717 36.7108 30.967 36.6178 30.3829C36.4214 29.8841 35.677 30.1064 35.7908 30.631C35.8244 32.055 36.2947 33.4429 36.243 34.8669C36.2275 35.3734 35.6564 35.5078 35.2635 35.6499C34.7337 35.8515 35.0232 36.6398 35.5582 36.4614Z" fill="#2D1600"/>
<path id="Vector_11" d="M37.1459 39.0252C37.1691 38.7977 36.996 38.5651 36.7608 38.5522C35.9777 38.4979 35.1972 38.4152 34.4219 38.2912C33.4941 38.131 32.5921 37.8544 31.7315 37.4745C31.4085 37.322 31.0854 37.167 30.796 36.9551C30.6642 36.8129 30.4652 36.7406 30.2739 36.8284C29.602 37.2755 30.3825 37.7666 30.8166 37.9862C32.3001 38.7796 33.967 39.1673 35.634 39.3198C36.0914 39.3017 37.0373 39.6816 37.1459 39.0252Z" fill="#2D1600"/>
<path id="Vector_12" d="M29.6559 38.051C29.7748 38.0484 29.873 37.9915 29.9686 37.9269C30.3769 37.6401 30.7749 37.3377 31.1677 37.0301C31.5968 36.6657 31.054 36.0119 30.6147 36.3685C30.2115 36.6838 29.8678 36.9449 29.4879 37.2136C29.3225 37.2782 29.2088 37.4436 29.2114 37.6271C29.2165 37.8597 29.4233 38.0587 29.6559 38.051Z" fill="#2D1600"/>
<path id="Vector_13" d="M15.649 31.8717C15.8454 31.59 15.6283 31.3186 15.4009 31.1506C15.2174 30.9594 15.0907 30.7216 14.9538 30.4968C14.4886 29.6672 15.2794 29.0831 15.9875 29.6594C15.9617 29.6336 15.9384 29.6103 15.9203 29.5793C16.2486 30.0419 16.9438 29.5793 16.6388 29.1038C16.0366 28.4138 14.7496 28.3543 14.212 29.1555C13.8296 29.7085 13.9045 30.4839 14.2663 31.0292C14.5248 31.4427 15.1088 32.479 15.649 31.8717Z" fill="#2D1600"/>
<path id="Vector_14" d="M19.1197 36.7251C18.595 36.9318 18.9543 37.4901 19.0447 37.8674C19.8045 40.7852 20.0785 43.7908 20.3214 46.7836C20.3938 47.8871 20.3886 48.9855 20.4015 50.0813C20.3679 50.5697 21.089 50.717 21.2414 50.2389C21.3371 46.7577 20.9287 43.261 20.3653 39.8264C20.2077 38.9916 20.0345 38.1568 19.789 37.3427C19.7813 37.3117 19.7709 37.2781 19.7606 37.2445C19.652 37.0714 19.5409 36.9008 19.422 36.7302C19.3419 36.6941 19.2411 36.6863 19.1197 36.7251Z" fill="#2D1600"/>
<path id="Vector_15" d="M38.4125 50.8954C38.6477 50.7998 38.7485 50.5259 38.6451 50.2958C38.5236 49.8798 38.4461 49.4533 38.3349 49.0347C37.9757 47.6675 37.6914 46.2823 37.3296 44.9151C37.159 44.499 37.203 43.5945 36.5595 43.6979C36.3398 43.7521 36.177 43.9951 36.2416 44.2199C36.3501 44.5791 36.4432 44.9435 36.5362 45.3054C36.8877 46.6854 37.1875 48.0784 37.5467 49.4585C37.7173 49.8979 37.7069 51.1461 38.4125 50.8954Z" fill="#2D1600"/>
</g>
</g>
<rect x="0.5" y="0.5" width="59" height="59" rx="29.5" stroke="#2D1600"/>
</g>
<defs>
<clipPath id="clip0_6474_3304">
<rect width="60" height="60" rx="30" fill="white"/>
</clipPath>
</defs>
</svg>
