<svg width="100" height="60" viewBox="0 0 100 60" fill="none" xmlns="http://www.w3.org/2000/svg">
<g id="Icon">
<g id="Group">
<path id="Vector" d="M77.4093 16.9778C76.1431 16.9778 75.1084 15.943 75.1084 14.6769C75.1084 13.4107 76.1431 12.376 77.4093 12.376C78.6755 12.376 79.7102 13.4107 79.7102 14.6769C79.7102 15.943 78.6755 16.9778 77.4093 16.9778ZM77.4093 13.7374C76.8919 13.7374 76.4699 14.1595 76.4699 14.6769C76.4699 15.1942 76.8919 15.6163 77.4093 15.6163C77.9266 15.6163 78.3487 15.1942 78.3487 14.6769C78.3487 14.1595 77.9266 13.7374 77.4093 13.7374Z" fill="#FFE86E"/>
<path id="Vector_2" d="M7.62015 13.9962C8.51494 13.9962 9.24026 13.2708 9.24026 12.376C9.24026 11.4812 8.51494 10.7559 7.62015 10.7559C6.72537 10.7559 6 11.4812 6 12.376C6 13.2708 6.72537 13.9962 7.62015 13.9962Z" fill="#FFE86E"/>
<path id="Vector_3" d="M79.991 50.9338L77.8057 48.7485L75.6203 50.9339L77.8056 53.1192L79.991 50.9338Z" fill="#231F20"/>
<path id="Vector_4" d="M10.5609 55.1122L9.59431 54.1592L8.45068 55.3028L7.32068 54.1592L6.354 55.1122L7.49763 56.2558L6.354 57.3995L7.32068 58.3661L8.45068 57.2225L9.59431 58.3661L10.5609 57.3995L9.41731 56.2558L10.5609 55.1122Z" fill="#231F20"/>
<path id="Vector_5" d="M93.0934 34.6768H90.3296V37.4405H93.0934V34.6768Z" fill="#FFE86E"/>
<path id="Vector_6" d="M19.6828 40.9937H17.981V42.6955H19.6828V40.9937Z" fill="#FFE86E"/>
<path id="Vector_7" d="M44.8027 55.1122C32.318 47.0795 24.6665 33.1653 24.6665 18.23V12.4437C31.8959 11.7494 38.7713 9.24428 44.8027 5.0918C50.834 9.24428 57.7094 11.7494 64.9388 12.4437V18.23C64.9388 33.1789 57.2873 47.0932 44.8027 55.1122Z" fill="#FFE86E"/>
<g id="Group_2">
<path id="Vector_8" d="M44.8027 60L44.4623 59.8094C29.6631 51.4091 20.4731 35.6297 20.4731 18.6113V8.41389H21.1539C28.9006 8.41389 36.3343 6.03131 42.6379 1.53846L44.8027 0L46.9674 1.53846C53.271 6.04492 60.7046 8.41389 68.4514 8.41389H69.1321V18.6113C69.1321 35.6297 59.9422 51.4227 45.143 59.8094L44.8027 60ZM21.8346 9.76174V18.5977C21.8346 34.9898 30.6297 50.2246 44.8027 58.4207C58.9756 50.211 67.7707 34.9898 67.7707 18.5977V9.76174C59.983 9.62559 52.5222 7.16133 46.1777 2.62764L44.8027 1.64738L43.4276 2.62764C37.0695 7.17495 29.6222 9.62559 21.8346 9.76174Z" fill="#231F20"/>
<path id="Vector_9" d="M44.8029 53.8052L44.4217 53.5466C32.7403 45.7181 25.7695 32.648 25.7695 18.5976V13.4649L26.3686 13.3968C32.8628 12.5935 38.935 10.3607 44.4217 6.73921L44.8029 6.49414L45.1841 6.73921C50.6708 10.3607 56.743 12.5935 63.2372 13.3968L63.8362 13.4649V18.5976C63.8362 32.648 56.8655 45.7181 45.1841 53.5466L44.8029 53.8052ZM27.131 14.6766V18.6112C27.131 32.0489 33.7205 44.5609 44.7893 52.1715C55.858 44.5745 62.4475 32.0626 62.4475 18.6112V14.6766C56.1167 13.8052 50.1807 11.6133 44.7893 8.12791C39.4115 11.5997 33.4755 13.8052 27.131 14.6766Z" fill="#231F20"/>
<path id="Vector_10" d="M41.8891 34.2L36.9878 29.2987L37.9545 28.3456L41.8891 32.2803L51.6509 22.5186L52.6039 23.4852L41.8891 34.2Z" fill="#231F20"/>
</g>
</g>
</g>
</svg>
