<svg width="100" height="60" viewBox="0 0 100 60" fill="none" xmlns="http://www.w3.org/2000/svg">
<g id="Icon">
<g id="Group">
<path id="Vector" d="M93.5267 14.1027C92.344 14.1027 91.3774 13.1362 91.3774 11.9535C91.3774 10.7707 92.344 9.8042 93.5267 9.8042C94.7094 9.8042 95.676 10.7707 95.676 11.9535C95.676 13.1362 94.7094 14.1027 93.5267 14.1027ZM93.5267 11.0759C93.0434 11.0759 92.6492 11.4702 92.6492 11.9535C92.6492 12.4367 93.0434 12.831 93.5267 12.831C94.01 12.831 94.4042 12.4367 94.4042 11.9535C94.4042 11.4702 94.01 11.0759 93.5267 11.0759Z" fill="#FFE86E"/>
<path id="Vector_2" d="M8.10323 18.1215C8.93905 18.1215 9.61661 17.4439 9.61661 16.6081C9.61661 15.7723 8.93905 15.0947 8.10323 15.0947C7.26741 15.0947 6.58984 15.7723 6.58984 16.6081C6.58984 17.4439 7.26741 18.1215 8.10323 18.1215Z" fill="#FFE86E"/>
<path id="Vector_3" d="M79.1541 20.6692L77.1128 18.6279L75.0715 20.6692L77.1128 22.7105L79.1541 20.6692Z" fill="#231F20"/>
<path id="Vector_4" d="M29.5703 52.4332L28.6674 51.543L27.5991 52.5985L26.5436 51.543L25.6406 52.4332L26.7089 53.5015L25.6406 54.5697L26.5436 55.4727L27.5991 54.4044L28.6674 55.4727L29.5703 54.5697L28.5021 53.5015L29.5703 52.4332Z" fill="#231F20"/>
<path id="Vector_5" d="M93.5392 49.6353H90.9575V52.2169H93.5392V49.6353Z" fill="#FFE86E"/>
<path id="Vector_6" d="M6.58969 38.4565H5V40.0462H6.58969V38.4565Z" fill="#FFE86E"/>
<path id="Vector_7" d="M60.957 3.82666H59.3037V5.36548H60.957V3.82666Z" fill="#FFE86E"/>
<path id="Vector_8" d="M75.061 39.9956C75.061 42.6154 74.4378 45.1335 73.2169 47.4608L72.9626 49.7626C73.4967 51.7339 73.9418 53.6669 74.2979 55.3075C72.6573 54.9514 70.7243 54.4935 68.7531 53.9721L66.4512 54.2265C63.6533 55.7017 60.4867 56.3122 57.32 55.9815C49.9312 55.2312 43.9285 49.3684 43.0383 42.0304C42.962 41.3564 42.9111 40.6696 42.9111 39.9956C42.9111 35.3919 44.8823 31.0043 48.3288 27.9521C51.8261 24.8618 56.3281 23.4629 61.0208 24.0351C68.3588 24.9254 74.2343 30.928 74.9847 38.3169C75.0355 38.8892 75.061 39.4488 75.061 39.9956Z" fill="#FFE86E"/>
<path id="Vector_9" d="M35.7 0.761805C26.8995 1.83007 19.854 9.05362 18.9637 17.8796C18.5568 21.8474 19.3834 25.5991 21.0748 28.8166C19.6632 34.0816 18.7857 39.0287 18.7476 39.2322C18.7476 39.2449 18.7476 39.2449 18.7476 39.2322C18.9638 39.1941 23.8981 38.3293 29.1632 36.9049C32.3807 38.5964 36.1323 39.423 40.1002 39.016C48.9261 38.1131 56.1497 31.0803 57.218 22.2671C58.7568 9.76579 48.2394 -0.764295 35.7 0.761805Z" fill="white"/>
<path id="Vector_10" d="M38.0656 36.0146C35.4458 36.0146 32.9278 35.3914 30.6005 34.1705L28.2986 33.9162C26.3274 34.4503 24.3943 34.8954 22.7538 35.2515C23.1099 33.611 23.5677 31.6779 24.0891 29.7067L23.8348 27.4048C22.3595 24.607 21.7491 21.4403 22.0797 18.2737C22.8301 10.8848 28.6928 4.88214 36.0308 3.99192C36.7049 3.91561 37.3916 3.86475 38.0656 3.86475C42.6694 3.86475 47.0569 5.83596 50.1091 9.2824C53.1995 12.7797 54.5984 17.2817 54.0261 21.9745C53.1359 29.3125 47.1332 35.1879 39.7443 35.9383C39.1847 35.9891 38.6252 36.0146 38.0656 36.0146Z" fill="#FFE86E"/>
<g id="Group_2">
<path id="Vector_11" d="M18.5316 39.9318L18.0356 39.4104L18.1501 39.0543C18.1501 39.0543 18.9894 34.1962 20.4011 28.9057C18.6588 25.4974 17.9466 21.6695 18.3409 17.8415C19.2692 8.69762 26.5436 1.25789 35.6367 0.151469C41.8046 -0.598864 47.8454 1.46137 52.1948 5.82347C56.5569 10.1856 58.6171 16.2137 57.8668 22.3816C56.7604 31.4747 49.3207 38.7491 40.1768 39.6775C36.3361 40.0717 32.5208 39.3595 29.0998 37.6172C23.8475 39.0161 18.9131 39.8809 18.8623 39.8809L18.5316 39.9318ZM29.2652 36.2437L29.4814 36.3582C32.7244 38.0623 36.387 38.7745 40.0623 38.393C48.6212 37.5282 55.5777 30.7116 56.6078 22.2036C57.3073 16.4299 55.3742 10.7706 51.2919 6.70098C47.2096 2.61866 41.5503 0.685603 35.7765 1.39778C27.2685 2.44062 20.4647 9.39709 19.5999 17.956C19.2311 21.6313 19.9305 25.2812 21.6347 28.5242L21.7491 28.7404L21.6856 28.982C20.6173 32.988 19.8542 36.7779 19.5363 38.4566C21.2532 38.1259 25.0557 37.3756 29.0108 36.3073L29.2652 36.2437Z" fill="#231F20"/>
<g id="Group_3">
<path id="Vector_12" d="M63.7548 46.8503H62.483V36.4983C62.483 35.5826 61.7454 34.845 60.8298 34.845H57.7649C56.8492 34.845 56.1116 35.5826 56.1116 36.4983V46.8503H54.8398V36.4983C54.8398 34.8831 56.1497 33.5732 57.7649 33.5732H60.8298C62.4449 33.5732 63.7548 34.8831 63.7548 36.4983V46.8503Z" fill="#231F20"/>
<path id="Vector_13" d="M63.132 40.7207H55.4761V41.9925H63.132V40.7207Z" fill="#231F20"/>
</g>
<g id="Group_4">
<path id="Vector_14" d="M40.1259 26.7439H36.3616C34.7464 26.7439 33.4365 25.434 33.4365 23.8188V16.3918C33.4365 14.7767 34.7464 13.4668 36.3616 13.4668H40.1259C41.7411 13.4668 43.0509 14.7767 43.0509 16.3918V23.8188C43.0509 25.434 41.7411 26.7439 40.1259 26.7439ZM36.3616 14.7385C35.4459 14.7385 34.7083 15.4762 34.7083 16.3918V23.8188C34.7083 24.7345 35.4459 25.4721 36.3616 25.4721H40.1259C41.0416 25.4721 41.7792 24.7345 41.7792 23.8188V16.3918C41.7792 15.4762 41.0416 14.7385 40.1259 14.7385H36.3616Z" fill="#231F20"/>
<path id="Vector_15" d="M39.4968 22.2896L38.5977 23.189L43.3194 27.9094L44.2185 27.01L39.4968 22.2896Z" fill="#231F20"/>
</g>
<path id="Vector_16" d="M78.5075 59.9999L78.1768 59.9364C78.1387 59.9364 73.217 59.0588 67.952 57.6726C64.5437 59.4149 60.7284 60.1271 56.8877 59.7329C47.7439 58.8045 40.3041 51.5301 39.1977 42.4371C39.0578 41.2798 39.0069 40.1225 39.0705 38.9779L40.3423 39.0415C40.2914 40.1098 40.3296 41.2035 40.4695 42.2845C41.5123 50.7925 48.4688 57.5963 57.0277 58.4611C60.6903 58.8299 64.3529 58.1305 67.5959 56.4263L67.8121 56.3119L68.0537 56.3755C72.0216 57.4437 75.8495 58.2068 77.5283 58.5247C77.2103 56.8079 76.4473 53.018 75.379 49.0502L75.3154 48.8085L75.4299 48.5923C77.134 45.3494 77.8462 41.6867 77.4646 38.0114C76.5999 29.4525 69.7833 22.496 61.2753 21.4659C59.9908 21.3133 58.6936 21.2752 57.4346 21.3896L57.3329 20.1179C58.6809 20.0161 60.0671 20.0416 61.4406 20.2069C70.5336 21.3133 77.808 28.7531 78.7364 37.8969C79.1306 41.7376 78.4185 45.5529 76.6762 48.9739C78.0115 53.9846 78.8509 58.6773 78.9399 59.1987L79.0035 59.5294L78.5075 59.9999Z" fill="#231F20"/>
</g>
</g>
</g>
</svg>
