<svg width="100" height="61" viewBox="0 0 100 61" fill="none" xmlns="http://www.w3.org/2000/svg">
<g id="Icon">
<g id="Group">
<path id="Vector" d="M80.512 10.6152C79.2539 10.6152 78.2422 9.5906 78.2422 8.34546C78.2422 7.08736 79.2668 6.07568 80.512 6.07568C81.7701 6.07568 82.7817 7.10033 82.7817 8.34546C82.7817 9.5906 81.7701 10.6152 80.512 10.6152ZM80.512 7.41161C80.0061 7.41161 79.5782 7.82666 79.5782 8.34546C79.5782 8.8513 79.9932 9.27932 80.512 9.27932C81.0178 9.27932 81.4458 8.86427 81.4458 8.34546C81.4458 7.82666 81.0308 7.41161 80.512 7.41161Z" fill="#FFE86E"/>
<path id="Vector_2" d="M8.95579 8.33263C8.95579 9.2146 8.24241 9.92797 7.36044 9.92797C6.47847 9.92797 5.76514 9.2146 5.76514 8.33263C5.76514 7.45066 6.47847 6.7373 7.36044 6.7373C8.24241 6.7373 8.95579 7.45066 8.95579 8.33263Z" fill="#FFE86E"/>
<path id="Vector_3" d="M84.8441 54.9701L82.6797 52.8057L80.5153 54.9701L82.6797 57.1345L84.8441 54.9701Z" fill="#231F20"/>
<path id="Vector_4" d="M9.16341 50.7584L8.20359 49.8115L7.0752 50.9399L5.9468 49.8115L5 50.7584L6.1284 51.8867L5 53.0152L5.9468 53.9749L7.0752 52.8465L8.20359 53.9749L9.16341 53.0152L8.03501 51.8867L9.16341 50.7584Z" fill="#231F20"/>
<path id="Vector_5" d="M95.4151 27.6973H92.6914V30.421H95.4151V27.6973Z" fill="#FFE86E"/>
<path id="Vector_6" d="M20.3438 23.7803H18.6577V25.4664H20.3438V23.7803Z" fill="#FFE86E"/>
<path id="Vector_7" d="M29.5268 52.1978H26.6733V36.5039H35.5709L46.6863 41.8217H63.4308C63.2492 42.4053 62.9639 42.9631 62.5359 43.3132L64.8575 46.6077L75.0391 40.356C76.1286 39.6816 77.3867 39.3314 78.6578 39.3314C80.6292 39.3314 82.458 40.1485 83.755 41.5493L53.8329 57.6193L29.5268 52.1978Z" fill="#FFE86E"/>
<path id="Vector_8" d="M22.6395 33.6763H17.3477V54.5323H22.6395V33.6763Z" fill="#FFE86E"/>
<path id="Vector_9" d="M30.5254 32.8075C27.6849 24.4677 29.812 15.1811 36.0766 8.91648C40.4605 4.53257 46.2841 2.12012 52.4709 2.12012C58.6706 2.12012 64.4942 4.53257 68.8652 8.91648C73.2361 13.3004 75.6616 19.124 75.6616 25.3108V26.6597H76.7121H77.646L74.4294 30.4859L71.2128 26.6597L73.1972 26.6726V25.4794L73.2102 25.2459C73.2102 13.8062 63.8976 4.50662 52.4709 4.50662C41.0312 4.50662 31.7316 13.8192 31.7316 25.2459C31.7316 27.8659 32.1985 30.3821 33.1324 32.7686L30.5254 32.8075Z" fill="#FFE86E"/>
<g id="Group_2">
<g id="Group_3">
<path id="Vector_10" d="M74.3902 33.6505L66.8674 24.7011L71.1476 24.74C70.7974 14.714 62.5354 6.65956 52.4316 6.65956V5.36254C63.4693 5.36254 72.4576 14.3509 72.4576 25.3885V26.037L69.669 26.024L74.3902 31.6401L79.1113 26.024L76.3227 26.05V25.4014C76.3227 12.2238 65.6093 1.5104 52.4316 1.5104V0.213379C66.1022 0.213379 77.2695 11.1602 77.6197 24.7529L81.9258 24.714L74.3902 33.6505Z" fill="#231F20"/>
<path id="Vector_11" d="M72.4708 25.3883H71.1738C71.1738 15.0511 62.7562 6.63344 52.4189 6.63344V5.33643C63.4695 5.33643 72.4708 14.3377 72.4708 25.3883Z" fill="#231F20"/>
<g id="Group_4">
<path id="Vector_12" d="M54.3513 60.2131L29.3837 54.623H24.1567V33.6113L36.4654 33.6762L47.4382 38.9291H66.5432V39.5776C66.5432 40.693 66.2968 41.7566 65.8688 42.7164L73.7806 37.8655C76.0634 36.4648 78.8649 36.0757 81.446 36.815C84.027 37.5543 86.1931 39.3571 87.3993 41.7566L87.6846 42.3143L54.3513 60.2131ZM25.4667 53.326L29.6042 53.339L54.1697 58.8383L85.9466 41.7696C84.8701 39.9667 83.1321 38.6308 81.1088 38.0471C78.8779 37.4116 76.4654 37.7358 74.481 38.955L63.184 45.8941C61.9777 46.6982 60.5251 47.1652 58.9687 47.1652H46.0893L43.2358 48.0731L42.8468 46.8409L45.9985 45.8811H58.9817C60.1879 45.8811 61.3292 45.5439 62.289 44.9473L62.5095 44.8176C64.0271 43.7929 65.0647 42.1457 65.2592 40.2391L47.0491 40.1742L36.0763 34.9213H25.4927V53.326H25.4667Z" fill="#231F20"/>
<path id="Vector_13" d="M25.4668 56.9578H14.8442V30.771H25.4668V56.9578ZM16.1413 55.6608H24.1698V32.068H16.1413V55.6608Z" fill="#231F20"/>
<path id="Vector_14" d="M20.797 50.4858H19.5V52.8205H20.797V50.4858Z" fill="#231F20"/>
</g>
<path id="Vector_15" d="M28.9173 34.4678C25.3245 25.1682 27.5684 14.6234 34.6112 7.58061C44.4296 -2.23781 60.4088 -2.23781 70.2273 7.58061C74.9873 12.3407 77.6073 18.6571 77.6073 25.3886H76.3103C76.3103 19.0073 73.82 13.0021 69.3194 8.50149C60.0068 -0.81109 44.8446 -0.81109 35.5321 8.50149C28.8524 15.1811 26.7383 25.1941 30.1365 34.0138L28.9173 34.4678Z" fill="#231F20"/>
<path id="Vector_16" d="M34.5716 34.5323C33.106 31.6918 32.3667 28.6049 32.3667 25.3883C32.3667 14.3377 41.3551 5.33643 52.4186 5.33643C63.4692 5.33643 72.4705 14.3248 72.4705 25.3883H71.1735C71.1735 15.0511 62.7558 6.63344 52.4186 6.63344C42.0814 6.63344 33.6637 15.0511 33.6637 25.3883C33.6637 28.3974 34.3511 31.2768 35.726 33.9357L34.5716 34.5323Z" fill="#231F20"/>
</g>
<g id="Group_5">
<path id="Vector_17" d="M52.4185 25.272C50.3822 25.272 48.709 23.6118 48.709 21.5625C48.709 19.5262 50.3692 17.853 52.4185 17.853C54.4678 17.853 56.1279 19.5132 56.1279 21.5625H54.8309C54.8309 20.2395 53.7544 19.15 52.4185 19.15C51.0955 19.15 50.006 20.2266 50.006 21.5625C50.006 22.8855 51.0825 23.9749 52.4185 23.9749V25.272Z" fill="#231F20"/>
<path id="Vector_18" d="M52.4185 31.394C50.3822 31.394 48.709 29.7339 48.709 27.6846H50.006C50.006 29.0075 51.0825 30.097 52.4185 30.097C53.7414 30.097 54.8309 29.0205 54.8309 27.6846C54.8309 26.3616 53.7544 25.2721 52.4185 25.2721V23.9751C54.4678 23.9751 56.1279 25.6353 56.1279 27.6846C56.1279 29.7339 54.4678 31.394 52.4185 31.394Z" fill="#231F20"/>
<path id="Vector_19" d="M53.067 16.2188H51.77V18.5145H53.067V16.2188Z" fill="#231F20"/>
<path id="Vector_20" d="M53.067 30.7451H51.77V33.0408H53.067V30.7451Z" fill="#231F20"/>
</g>
</g>
</g>
</g>
</svg>
