<svg width="180" height="21" viewBox="0 0 180 21" fill="none" xmlns="http://www.w3.org/2000/svg">
<path d="M46.14 16.66C45.78 16.66 45.48 16.58 45.24 16.42C45.0133 16.2467 44.8267 15.9933 44.68 15.66L39.46 3.94C39.3133 3.60667 39.2733 3.31333 39.34 3.06C39.4067 2.80667 39.5467 2.60667 39.76 2.46C39.9733 2.31333 40.2267 2.24 40.52 2.24C40.9067 2.24 41.1933 2.32667 41.38 2.5C41.58 2.66 41.7467 2.90667 41.88 3.24L46.62 14.22H45.76L50.48 3.22C50.6267 2.9 50.8 2.66 51 2.5C51.2 2.32667 51.48 2.24 51.84 2.24C52.1333 2.24 52.3733 2.31333 52.56 2.46C52.76 2.60667 52.8867 2.80667 52.94 3.06C52.9933 3.31333 52.9467 3.60667 52.8 3.94L47.58 15.66C47.4333 15.9933 47.2467 16.2467 47.02 16.42C46.8067 16.58 46.5133 16.66 46.14 16.66ZM56.0778 16.66C55.6645 16.66 55.3445 16.5467 55.1178 16.32C54.9045 16.08 54.7978 15.7533 54.7978 15.34V3.56C54.7978 3.13333 54.9045 2.80667 55.1178 2.58C55.3445 2.35333 55.6645 2.24 56.0778 2.24C56.4911 2.24 56.8045 2.35333 57.0178 2.58C57.2445 2.80667 57.3578 3.13333 57.3578 3.56V15.34C57.3578 15.7533 57.2511 16.08 57.0378 16.32C56.8245 16.5467 56.5045 16.66 56.0778 16.66ZM66.0423 16.66C65.6823 16.66 65.3823 16.58 65.1423 16.42C64.9157 16.2467 64.729 15.9933 64.5823 15.66L59.3623 3.94C59.2157 3.60667 59.1757 3.31333 59.2423 3.06C59.309 2.80667 59.449 2.60667 59.6623 2.46C59.8757 2.31333 60.129 2.24 60.4223 2.24C60.809 2.24 61.0957 2.32667 61.2823 2.5C61.4823 2.66 61.649 2.90667 61.7823 3.24L66.5223 14.22H65.6623L70.3823 3.22C70.529 2.9 70.7023 2.66 70.9023 2.5C71.1023 2.32667 71.3823 2.24 71.7423 2.24C72.0357 2.24 72.2757 2.31333 72.4623 2.46C72.6623 2.60667 72.789 2.80667 72.8423 3.06C72.8957 3.31333 72.849 3.60667 72.7023 3.94L67.4823 15.66C67.3357 15.9933 67.149 16.2467 66.9223 16.42C66.709 16.58 66.4157 16.66 66.0423 16.66ZM73.6488 16.66C73.3288 16.66 73.0688 16.5867 72.8688 16.44C72.6821 16.2933 72.5688 16.1 72.5288 15.86C72.4888 15.6067 72.5354 15.3267 72.6688 15.02L77.9488 3.32C78.1221 2.93333 78.3288 2.66 78.5688 2.5C78.8221 2.32667 79.1088 2.24 79.4288 2.24C79.7354 2.24 80.0088 2.32667 80.2488 2.5C80.5021 2.66 80.7154 2.93333 80.8888 3.32L86.1888 15.02C86.3354 15.3267 86.3888 15.6067 86.3488 15.86C86.3088 16.1133 86.1954 16.3133 86.0088 16.46C85.8221 16.5933 85.5754 16.66 85.2688 16.66C84.8954 16.66 84.6021 16.5733 84.3888 16.4C84.1888 16.2133 84.0088 15.9333 83.8488 15.56L82.5488 12.54L83.6288 13.24H75.1888L76.2688 12.54L74.9888 15.56C74.8154 15.9467 74.6354 16.2267 74.4488 16.4C74.2621 16.5733 73.9954 16.66 73.6488 16.66ZM79.3888 5.18L76.5888 11.84L76.0688 11.2H82.7488L82.2487 11.84L79.4288 5.18H79.3888Z" fill="#FF6A6A"/>
<path d="M89.7516 16.5C89.3116 16.5 88.9716 16.3867 88.7316 16.16C88.5049 15.92 88.3916 15.58 88.3916 15.14V3.76C88.3916 3.32 88.5049 2.98667 88.7316 2.76C88.9716 2.52 89.3116 2.4 89.7516 2.4H96.8916C97.2249 2.4 97.4782 2.48667 97.6516 2.66C97.8382 2.83333 97.9316 3.08 97.9316 3.4C97.9316 3.73333 97.8382 3.99333 97.6516 4.18C97.4782 4.35333 97.2249 4.44 96.8916 4.44H90.8516V8.32H96.4516C96.7982 8.32 97.0582 8.40667 97.2316 8.58C97.4049 8.75333 97.4916 9.00667 97.4916 9.34C97.4916 9.67333 97.4049 9.92667 97.2316 10.1C97.0582 10.2733 96.7982 10.36 96.4516 10.36H90.8516V14.46H96.8916C97.2249 14.46 97.4782 14.5467 97.6516 14.72C97.8382 14.8933 97.9316 15.1467 97.9316 15.48C97.9316 15.8133 97.8382 16.0667 97.6516 16.24C97.4782 16.4133 97.2249 16.5 96.8916 16.5H89.7516ZM104.99 16.7C104.403 16.7 103.817 16.6533 103.23 16.56C102.643 16.48 102.09 16.3533 101.57 16.18C101.05 15.9933 100.583 15.7667 100.17 15.5C99.9298 15.34 99.7632 15.1467 99.6698 14.92C99.5765 14.6933 99.5432 14.4733 99.5698 14.26C99.6098 14.0333 99.6965 13.84 99.8298 13.68C99.9765 13.5067 100.157 13.4 100.37 13.36C100.583 13.32 100.817 13.38 101.07 13.54C101.657 13.8867 102.277 14.14 102.93 14.3C103.583 14.46 104.27 14.54 104.99 14.54C106.043 14.54 106.81 14.3667 107.29 14.02C107.77 13.66 108.01 13.2 108.01 12.64C108.01 12.1733 107.837 11.8067 107.49 11.54C107.157 11.2733 106.577 11.0533 105.75 10.88L103.55 10.42C102.283 10.1533 101.337 9.70667 100.71 9.08C100.097 8.44 99.7898 7.6 99.7898 6.56C99.7898 5.90667 99.9232 5.31333 100.19 4.78C100.457 4.24667 100.83 3.78667 101.31 3.4C101.803 3.01333 102.383 2.72 103.05 2.52C103.73 2.30667 104.477 2.2 105.29 2.2C106.09 2.2 106.85 2.3 107.57 2.5C108.29 2.7 108.937 2.99333 109.51 3.38C109.723 3.52667 109.863 3.70667 109.93 3.92C110.01 4.13333 110.03 4.34667 109.99 4.56C109.95 4.76 109.857 4.93333 109.71 5.08C109.563 5.22667 109.377 5.31333 109.15 5.34C108.937 5.36667 108.69 5.3 108.41 5.14C107.917 4.86 107.417 4.66 106.91 4.54C106.403 4.42 105.857 4.36 105.27 4.36C104.657 4.36 104.13 4.44667 103.69 4.62C103.25 4.79333 102.91 5.04 102.67 5.36C102.443 5.66667 102.33 6.03333 102.33 6.46C102.33 6.94 102.49 7.32667 102.81 7.62C103.13 7.9 103.677 8.12 104.45 8.28L106.63 8.74C107.95 9.02 108.93 9.46 109.57 10.06C110.223 10.66 110.55 11.46 110.55 12.46C110.55 13.1 110.417 13.68 110.15 14.2C109.897 14.72 109.523 15.1667 109.03 15.54C108.55 15.9133 107.97 16.2 107.29 16.4C106.61 16.6 105.843 16.7 104.99 16.7ZM117.607 16.7C117.02 16.7 116.434 16.6533 115.847 16.56C115.26 16.48 114.707 16.3533 114.187 16.18C113.667 15.9933 113.2 15.7667 112.787 15.5C112.547 15.34 112.38 15.1467 112.287 14.92C112.194 14.6933 112.16 14.4733 112.187 14.26C112.227 14.0333 112.314 13.84 112.447 13.68C112.594 13.5067 112.774 13.4 112.987 13.36C113.2 13.32 113.434 13.38 113.687 13.54C114.274 13.8867 114.894 14.14 115.547 14.3C116.2 14.46 116.887 14.54 117.607 14.54C118.66 14.54 119.427 14.3667 119.907 14.02C120.387 13.66 120.627 13.2 120.627 12.64C120.627 12.1733 120.454 11.8067 120.107 11.54C119.774 11.2733 119.194 11.0533 118.367 10.88L116.167 10.42C114.9 10.1533 113.954 9.70667 113.327 9.08C112.714 8.44 112.407 7.6 112.407 6.56C112.407 5.90667 112.54 5.31333 112.807 4.78C113.074 4.24667 113.447 3.78667 113.927 3.4C114.42 3.01333 115 2.72 115.667 2.52C116.347 2.30667 117.094 2.2 117.907 2.2C118.707 2.2 119.467 2.3 120.187 2.5C120.907 2.7 121.554 2.99333 122.127 3.38C122.34 3.52667 122.48 3.70667 122.547 3.92C122.627 4.13333 122.647 4.34667 122.607 4.56C122.567 4.76 122.474 4.93333 122.327 5.08C122.18 5.22667 121.994 5.31333 121.767 5.34C121.554 5.36667 121.307 5.3 121.027 5.14C120.534 4.86 120.034 4.66 119.527 4.54C119.02 4.42 118.474 4.36 117.887 4.36C117.274 4.36 116.747 4.44667 116.307 4.62C115.867 4.79333 115.527 5.04 115.287 5.36C115.06 5.66667 114.947 6.03333 114.947 6.46C114.947 6.94 115.107 7.32667 115.427 7.62C115.747 7.9 116.294 8.12 117.067 8.28L119.247 8.74C120.567 9.02 121.547 9.46 122.187 10.06C122.84 10.66 123.167 11.46 123.167 12.46C123.167 13.1 123.034 13.68 122.767 14.2C122.514 14.72 122.14 15.1667 121.647 15.54C121.167 15.9133 120.587 16.2 119.907 16.4C119.227 16.6 118.46 16.7 117.607 16.7ZM125.407 16.66C125.087 16.66 124.827 16.5867 124.627 16.44C124.44 16.2933 124.327 16.1 124.287 15.86C124.247 15.6067 124.293 15.3267 124.427 15.02L129.707 3.32C129.88 2.93333 130.087 2.66 130.327 2.5C130.58 2.32667 130.867 2.24 131.187 2.24C131.493 2.24 131.767 2.32667 132.007 2.5C132.26 2.66 132.473 2.93333 132.647 3.32L137.947 15.02C138.093 15.3267 138.147 15.6067 138.107 15.86C138.067 16.1133 137.953 16.3133 137.767 16.46C137.58 16.5933 137.333 16.66 137.027 16.66C136.653 16.66 136.36 16.5733 136.147 16.4C135.947 16.2133 135.767 15.9333 135.607 15.56L134.307 12.54L135.387 13.24H126.947L128.027 12.54L126.747 15.56C126.573 15.9467 126.393 16.2267 126.207 16.4C126.02 16.5733 125.753 16.66 125.407 16.66ZM131.147 5.18L128.347 11.84L127.827 11.2H134.507L134.007 11.84L131.187 5.18H131.147ZM143.481 16.66C143.067 16.66 142.747 16.5467 142.521 16.32C142.307 16.08 142.201 15.7467 142.201 15.32V9.24L142.741 10.78L137.921 4C137.747 3.76 137.667 3.50667 137.681 3.24C137.707 2.96 137.821 2.72667 138.021 2.54C138.221 2.34 138.501 2.24 138.861 2.24C139.127 2.24 139.367 2.30667 139.581 2.44C139.807 2.57333 140.021 2.78 140.221 3.06L143.801 8.14H143.241L146.841 3.06C147.054 2.76667 147.261 2.56 147.461 2.44C147.661 2.30667 147.907 2.24 148.201 2.24C148.547 2.24 148.814 2.33333 149.001 2.52C149.201 2.69333 149.301 2.91333 149.301 3.18C149.314 3.44667 149.221 3.72667 149.021 4.02L144.241 10.78L144.761 9.24V15.32C144.761 16.2133 144.334 16.66 143.481 16.66ZM155.595 16.7C155.009 16.7 154.422 16.6533 153.835 16.56C153.249 16.48 152.695 16.3533 152.175 16.18C151.655 15.9933 151.189 15.7667 150.775 15.5C150.535 15.34 150.369 15.1467 150.275 14.92C150.182 14.6933 150.149 14.4733 150.175 14.26C150.215 14.0333 150.302 13.84 150.435 13.68C150.582 13.5067 150.762 13.4 150.975 13.36C151.189 13.32 151.422 13.38 151.675 13.54C152.262 13.8867 152.882 14.14 153.535 14.3C154.189 14.46 154.875 14.54 155.595 14.54C156.649 14.54 157.415 14.3667 157.895 14.02C158.375 13.66 158.615 13.2 158.615 12.64C158.615 12.1733 158.442 11.8067 158.095 11.54C157.762 11.2733 157.182 11.0533 156.355 10.88L154.155 10.42C152.889 10.1533 151.942 9.70667 151.315 9.08C150.702 8.44 150.395 7.6 150.395 6.56C150.395 5.90667 150.529 5.31333 150.795 4.78C151.062 4.24667 151.435 3.78667 151.915 3.4C152.409 3.01333 152.989 2.72 153.655 2.52C154.335 2.30667 155.082 2.2 155.895 2.2C156.695 2.2 157.455 2.3 158.175 2.5C158.895 2.7 159.542 2.99333 160.115 3.38C160.329 3.52667 160.469 3.70667 160.535 3.92C160.615 4.13333 160.635 4.34667 160.595 4.56C160.555 4.76 160.462 4.93333 160.315 5.08C160.169 5.22667 159.982 5.31333 159.755 5.34C159.542 5.36667 159.295 5.3 159.015 5.14C158.522 4.86 158.022 4.66 157.515 4.54C157.009 4.42 156.462 4.36 155.875 4.36C155.262 4.36 154.735 4.44667 154.295 4.62C153.855 4.79333 153.515 5.04 153.275 5.36C153.049 5.66667 152.935 6.03333 152.935 6.46C152.935 6.94 153.095 7.32667 153.415 7.62C153.735 7.9 154.282 8.12 155.055 8.28L157.235 8.74C158.555 9.02 159.535 9.46 160.175 10.06C160.829 10.66 161.155 11.46 161.155 12.46C161.155 13.1 161.022 13.68 160.755 14.2C160.502 14.72 160.129 15.1667 159.635 15.54C159.155 15.9133 158.575 16.2 157.895 16.4C157.215 16.6 156.449 16.7 155.595 16.7Z" fill="#2D1600"/>
<path fill-rule="evenodd" clip-rule="evenodd" d="M16.3124 13.3501L16.9651 14.2853L17.6178 13.3501C17.4331 13.2193 17.2081 13.1431 16.9651 13.1431C16.7222 13.1423 16.4965 13.2193 16.3124 13.3501ZM4.98575 2.83894C5.11917 2.56737 5.38272 2.37516 5.68173 2.32883C15.0032 0.884525 15.5699 4.2503 15.5699 11.3956C15.5699 11.5997 15.7367 11.7665 15.9408 11.7665C16.1449 11.7665 16.3124 11.5997 16.3124 11.3956V2.52953C16.3124 2.29303 16.5942 2.29087 16.5942 2.53168V11.3949C16.5942 11.5983 16.761 11.7658 16.9651 11.7658C17.1693 11.7658 17.336 11.599 17.336 11.3949V2.54174C17.336 2.28728 17.6178 2.288 17.6178 2.54174V11.3956C17.6178 11.5997 17.7846 11.7665 17.9887 11.7665C18.1929 11.7665 18.3604 11.5997 18.3604 11.3956C18.3604 4.2503 18.9271 0.884526 28.2485 2.32883C28.5476 2.37516 28.8111 2.56737 28.9445 2.83894C30.4862 5.97706 31.7201 8.78304 33.1873 12.0028C33.5012 12.6916 32.9171 13.459 32.1658 13.3663C26.235 12.6345 21.2723 13.4073 17.5895 16.1702C17.2209 16.4467 16.7094 16.4467 16.3408 16.1702C12.658 13.4068 7.69527 12.6344 1.76444 13.3663C1.01313 13.459 0.429043 12.6916 0.742953 12.0028C2.21018 8.78304 3.44408 5.97706 4.98575 2.83894Z" fill="#FF6A6A"/>
<path fill-rule="evenodd" clip-rule="evenodd" d="M17.5896 17.3499C17.221 17.6264 16.7096 17.6264 16.341 17.3498C12.8255 14.7118 8.14388 13.888 2.56746 14.4551C2.26786 14.4855 2.00267 14.6616 1.85415 14.9236L1.80675 15.0072C1.41162 15.7042 2.01419 16.5551 2.80898 16.4538C8.27716 15.7565 12.8647 16.5832 16.298 19.4112C16.6835 19.7288 17.247 19.7288 17.6325 19.4112C21.0658 16.5832 25.6538 15.7565 31.1215 16.4538C31.9163 16.5551 32.5189 15.7042 32.1238 15.0072L32.0764 14.9237C31.9279 14.6616 31.6627 14.4855 31.363 14.4551C25.7867 13.8887 21.1051 14.7125 17.5896 17.3499Z" fill="#2D1600"/>
</svg>
