<svg width="39" height="20" viewBox="0 0 39 20" fill="none" xmlns="http://www.w3.org/2000/svg">
<g id="Payment methods">
<path id="Vector" d="M10.93 19.9012V18.5775C10.93 18.0699 10.6204 17.7391 10.0897 17.7391C9.82438 17.7391 9.53691 17.8273 9.33787 18.1142C9.18316 17.8715 8.96207 17.7391 8.63038 17.7391C8.40919 17.7391 8.18819 17.8052 8.01122 18.0479V17.7832H7.54688V19.9012H8.01122V18.7319C8.01122 18.3569 8.21025 18.1803 8.51988 18.1803C8.82931 18.1803 8.98423 18.3789 8.98423 18.7319V19.9012H9.44857V18.7319C9.44857 18.3569 9.66956 18.1803 9.95703 18.1803C10.2667 18.1803 10.4214 18.3789 10.4214 18.7319V19.9012H10.93ZM17.8067 17.7832H17.055V17.1434H16.5906V17.7832H16.1705V18.2023H16.5905V19.1732C16.5905 19.6586 16.7895 19.9453 17.3203 19.9453C17.5193 19.9453 17.7403 19.8792 17.8952 19.791L17.7625 19.3938C17.6298 19.482 17.4751 19.5041 17.3645 19.5041C17.1434 19.5041 17.055 19.3718 17.055 19.1511V18.2023H17.8067V17.7832ZM21.7426 17.739C21.4773 17.739 21.3004 17.8715 21.1898 18.0479V17.7832H20.7255V19.9012H21.1898V18.7098C21.1898 18.3569 21.3446 18.1583 21.632 18.1583C21.7205 18.1583 21.8311 18.1804 21.9195 18.2024L22.0521 17.7612C21.9637 17.7391 21.8311 17.7391 21.7426 17.7391V17.739ZM15.7946 17.9597C15.5734 17.8052 15.2639 17.7391 14.9322 17.7391C14.4015 17.7391 14.0478 18.0038 14.0478 18.423C14.0478 18.7761 14.3131 18.9746 14.7775 19.0408L14.9985 19.0629C15.2418 19.1069 15.3745 19.1732 15.3745 19.2835C15.3745 19.4379 15.1976 19.5482 14.8879 19.5482C14.5784 19.5482 14.3352 19.4379 14.1804 19.3276L13.9593 19.6806C14.2025 19.8571 14.5342 19.9453 14.8658 19.9453C15.4849 19.9453 15.8388 19.6586 15.8388 19.2614C15.8388 18.8863 15.5513 18.6877 15.109 18.6216L14.8879 18.5995C14.6889 18.5774 14.5342 18.5334 14.5342 18.401C14.5342 18.2465 14.6889 18.1583 14.9322 18.1583C15.1976 18.1583 15.4629 18.2685 15.5955 18.3348L15.7946 17.9597ZM28.1329 17.7391C27.8675 17.7391 27.6907 17.8715 27.5801 18.0479V17.7832H27.1157V19.9012H27.5801V18.7098C27.5801 18.3569 27.7349 18.1583 28.0222 18.1583C28.1108 18.1583 28.2214 18.1804 28.3098 18.2024L28.4425 17.7612C28.354 17.7391 28.2214 17.7391 28.1329 17.7391ZM22.207 18.8422C22.207 19.482 22.6491 19.9453 23.3347 19.9453C23.6442 19.9453 23.8653 19.8792 24.0864 19.7027L23.8653 19.3276C23.6884 19.46 23.5116 19.5261 23.3125 19.5261C22.9366 19.5261 22.6713 19.2614 22.6713 18.8422C22.6713 18.4451 22.9366 18.1803 23.3125 18.1583C23.5116 18.1583 23.6884 18.2244 23.8653 18.3569L24.0864 17.9818C23.8653 17.8052 23.6442 17.7391 23.3347 17.7391C22.6491 17.7391 22.207 18.2024 22.207 18.8422ZM26.4967 18.8422V17.7832H26.0323V18.0479C25.8775 17.8494 25.6564 17.7391 25.3689 17.7391C24.7719 17.7391 24.3076 18.2024 24.3076 18.8422C24.3076 19.482 24.7719 19.9453 25.3689 19.9453C25.6785 19.9453 25.8997 19.8351 26.0323 19.6365V19.9012H26.4967V18.8422ZM24.794 18.8422C24.794 18.4671 25.0372 18.1583 25.4352 18.1583C25.8111 18.1583 26.0765 18.4451 26.0765 18.8422C26.0765 19.2173 25.8111 19.5261 25.4352 19.5261C25.0372 19.504 24.794 19.2173 24.794 18.8422ZM19.244 17.7391C18.6249 17.7391 18.1826 18.1803 18.1826 18.8422C18.1826 19.5041 18.6248 19.9453 19.2661 19.9453C19.5756 19.9453 19.8852 19.8571 20.1285 19.6586L19.9073 19.3276C19.7304 19.46 19.5093 19.5482 19.2882 19.5482C19.0008 19.5482 18.7133 19.4159 18.6469 19.0407H20.2169V18.8643C20.2391 18.1803 19.8411 17.7391 19.244 17.7391ZM19.244 18.1362C19.5314 18.1362 19.7305 18.3128 19.7746 18.6437H18.6691C18.7133 18.3569 18.9123 18.1362 19.244 18.1362ZM30.7642 18.8422V16.9448H30.2999V18.0479C30.145 17.8494 29.9239 17.7391 29.6365 17.7391C29.0395 17.7391 28.5751 18.2024 28.5751 18.8422C28.5751 19.482 29.0395 19.9453 29.6365 19.9453C29.9461 19.9453 30.1672 19.8351 30.2999 19.6365V19.9012H30.7642V18.8422ZM29.0616 18.8422C29.0616 18.4671 29.3048 18.1583 29.7029 18.1583C30.0788 18.1583 30.3441 18.4451 30.3441 18.8422C30.3441 19.2173 30.0788 19.5261 29.7029 19.5261C29.3048 19.504 29.0616 19.2173 29.0616 18.8422ZM13.5391 18.8422V17.7832H13.0748V18.0479C12.92 17.8494 12.6989 17.7391 12.4114 17.7391C11.8144 17.7391 11.3501 18.2024 11.3501 18.8422C11.3501 19.482 11.8144 19.9453 12.4114 19.9453C12.721 19.9453 12.9421 19.8351 13.0748 19.6365V19.9012H13.5391V18.8422ZM11.8144 18.8422C11.8144 18.4671 12.0577 18.1583 12.4556 18.1583C12.8315 18.1583 13.0969 18.4451 13.0969 18.8422C13.0969 19.2173 12.8315 19.5261 12.4556 19.5261C12.0577 19.504 11.8144 19.2173 11.8144 18.8422Z" fill="white"/>
<path id="Vector_2" d="M15.6411 1.69824H22.6063V14.1858H15.6411V1.69824Z" fill="#EAEAEA"/>
<path id="Vector_3" d="M16.0829 7.94261C16.0829 5.40543 17.2769 3.15497 19.1121 1.69879C17.7634 0.639799 16.0609 0 14.2035 0C9.8031 0 6.24316 3.55206 6.24316 7.94261C6.24316 12.3331 9.8031 15.8852 14.2034 15.8852C16.0608 15.8852 17.7633 15.2454 19.1121 14.1863C17.2769 12.7523 16.0829 10.4798 16.0829 7.94261Z" fill="white"/>
<path id="Vector_4" d="M32.0038 7.94261C32.0038 12.3331 28.4438 15.8852 24.0435 15.8852C22.1861 15.8852 20.4836 15.2454 19.1348 14.1863C20.9921 12.7303 22.1641 10.4798 22.1641 7.94261C22.1641 5.40543 20.97 3.15497 19.1348 1.69879C20.4835 0.639799 22.1861 0 24.0435 0C28.4438 0 32.0038 3.57417 32.0038 7.94261Z" fill="#CCCCCC"/>
</g>
</svg>
