<svg width="39" height="20" viewBox="0 0 39 20" fill="none" xmlns="http://www.w3.org/2000/svg">
<g id="Payment methods" clip-path="url(#clip0_6430_13778)">
<path id="Vector" d="M14.5976 4.20906L9.62242 15.6316H6.37669L3.92836 6.51535C3.77992 5.9552 3.65093 5.74906 3.19923 5.5122C2.46091 5.1262 1.24164 4.7652 0.169922 4.54063L0.242211 4.20906H5.4678C6.1328 4.20906 6.7316 4.6352 6.8839 5.37306L8.17753 11.9835L11.3713 4.20906H14.5976ZM18.9854 4.20906L16.4467 15.6316H13.3758L15.9148 4.20906H18.9854ZM27.3151 11.9022C27.3279 8.88806 22.9846 8.72077 23.013 7.37406C23.0234 6.96463 23.4286 6.52877 24.3157 6.41735C24.755 6.36263 25.969 6.31906 27.3439 6.92877L27.8819 4.50506C27.1431 4.24792 26.1923 4.00049 25.0097 4.00049C21.9742 4.00049 19.8389 5.5522 19.8219 7.77592C19.802 9.42077 21.3471 10.3375 22.509 10.8853C23.7059 11.4448 24.1073 11.8043 24.1018 12.3043C24.0931 13.0708 23.1458 13.4101 22.2651 13.4226C20.7208 13.4462 19.8256 13.0209 19.1114 12.7008L18.5541 15.2048C19.2725 15.5216 20.5966 15.7969 21.968 15.8109C25.195 15.8109 27.3056 14.2769 27.3151 11.9022ZM35.3308 15.6316H38.1699L35.6895 4.20906H33.0701C32.4793 4.20906 31.9827 4.53906 31.7625 5.04635L27.155 15.6316H30.3795L31.0191 13.9253H34.9586L35.3308 15.6316ZM31.9033 11.5846L33.5201 7.29506L34.4489 11.5846H31.9033Z" fill="white"/>
</g>
<defs>
<clipPath id="clip0_6430_13778">
<rect width="38" height="20" fill="white" transform="translate(0.169922)"/>
</clipPath>
</defs>
</svg>
