<svg width="39" height="20" viewBox="0 0 39 20" fill="none" xmlns="http://www.w3.org/2000/svg">
<g id="Payment methods" clip-path="url(#clip0_6430_13788)">
<path id="Vector" d="M6.92501 4.57346C6.48523 5.06956 5.78142 5.46099 5.07769 5.40502C4.98974 4.73424 5.33424 4.02139 5.73744 3.58112C6.17723 3.07105 6.947 2.70764 7.5701 2.67969C7.6434 3.37849 7.35747 4.06332 6.92501 4.57346ZM7.56277 5.53785C6.54379 5.48196 5.67148 6.08985 5.18764 6.08985C4.69655 6.08985 3.9561 5.5658 3.14975 5.57978C2.10152 5.59375 1.12652 6.15973 0.591376 7.06123C-0.508233 8.86417 0.305516 11.5337 1.3684 13.0012C1.88889 13.7279 2.51199 14.5245 3.33299 14.4966C4.11009 14.4686 4.41794 14.0145 5.3563 14.0145C6.30191 14.0145 6.57318 14.4966 7.39419 14.4826C8.24451 14.4686 8.77966 13.7559 9.30014 13.0291C9.89385 12.2045 10.1358 11.4009 10.1505 11.3589C10.1358 11.345 8.50846 10.751 8.4938 8.96199C8.47914 7.46657 9.77665 6.75379 9.83529 6.71186C9.10217 5.6776 7.95865 5.5658 7.56277 5.53785ZM13.4493 3.51125V14.4058H15.2232V10.6812H17.679C19.9221 10.6812 21.4982 9.21368 21.4982 7.08925C21.4982 4.96489 19.9514 3.51132 17.7376 3.51132H13.4492L13.4493 3.51125ZM15.2232 4.93687H17.2685C18.8079 4.93687 19.6876 5.71952 19.6876 7.09617C19.6876 8.47281 18.8079 9.26252 17.2611 9.26252H15.2232V4.93687ZM24.7383 14.4896C25.8526 14.4896 26.8862 13.9516 27.3554 13.099H27.392V14.4058H29.0341V8.98296C29.0341 7.41067 27.7146 6.39736 25.684 6.39736C23.8 6.39736 22.4072 7.42464 22.3559 8.83622H23.954C24.0859 8.16537 24.7383 7.7251 25.6326 7.7251C26.7176 7.7251 27.326 8.20729 27.326 9.09482V9.69573L25.1122 9.8215C23.0523 9.94029 21.9381 10.744 21.9381 12.1416C21.9381 13.5532 23.0889 14.4896 24.7383 14.4896ZM25.2148 13.1968C24.2692 13.1968 23.6681 12.7636 23.6681 12.0997C23.6681 11.4149 24.2472 11.0165 25.3541 10.9537L27.326 10.8349V11.4498C27.326 12.4701 26.4171 13.1968 25.2149 13.1968H25.2148ZM31.2259 17.3687C32.9559 17.3687 33.7696 16.7399 34.4807 14.832L37.5962 6.50217H35.7928L33.7037 12.9382H33.667L31.5778 6.50217H29.7232L32.7286 14.4337L32.5674 14.9159C32.2962 15.7335 31.8563 16.048 31.072 16.048C30.9327 16.048 30.6615 16.034 30.5515 16.02V17.3268C30.6541 17.3548 31.0939 17.3687 31.2259 17.3687Z" fill="white"/>
</g>
<defs>
<clipPath id="clip0_6430_13788">
<rect width="38" height="20" fill="white" transform="translate(0.0678711)"/>
</clipPath>
</defs>
</svg>
