<svg width="39" height="20" viewBox="0 0 39 20" fill="none" xmlns="http://www.w3.org/2000/svg">
<g id="Payment methods" clip-path="url(#clip0_6430_13790)">
<g id="Vector">
<path d="M26.6351 6.8396C27.6667 6.8396 28.464 7.12966 29.0737 7.70978C29.6833 8.28982 29.9646 9.06328 29.9646 10.0301V14.6707H28.6516V13.6074H28.6046C28.0419 14.4775 27.2447 14.9126 26.3068 14.9126C25.5095 14.9126 24.8061 14.6708 24.2434 14.1875C23.7275 13.7041 23.3992 13.0273 23.3992 12.3022C23.3992 11.5287 23.6807 10.9003 24.2434 10.4169C24.8061 9.93346 25.6033 9.74011 26.5413 9.74011C27.3853 9.74011 28.0419 9.88518 28.5577 10.2235V9.88518C28.5577 9.43396 28.3944 8.98282 28.0675 8.68883L27.995 8.62831C27.6198 8.28989 27.1509 8.09655 26.6351 8.09655C25.8378 8.09655 25.2282 8.43496 24.8061 9.11172L23.5868 8.3381C24.3371 7.32293 25.3219 6.8396 26.6351 6.8396ZM20.0228 3.55246C20.8642 3.55246 21.6639 3.85431 22.3033 4.4172L22.4145 4.5192C23.071 5.09932 23.3992 5.9695 23.3992 6.88795C23.3992 7.80641 23.071 8.62823 22.4145 9.25663C21.7579 9.88511 20.9607 10.2234 20.0228 10.2234L17.7718 10.1751V14.6708H16.3648V3.55239L20.0228 3.55246ZM26.8226 10.9003C26.2599 10.9003 25.7909 11.0453 25.4158 11.3353C25.0406 11.577 24.853 11.9154 24.853 12.3504C24.853 12.7372 25.0406 13.0755 25.3219 13.269C25.6502 13.5107 26.0254 13.6556 26.4006 13.6556C26.9258 13.6556 27.451 13.4451 27.8618 13.0633L27.9481 12.9789C28.4171 12.5438 28.6516 12.0121 28.6516 11.432C28.2295 11.0936 27.6197 10.9003 26.8226 10.9003ZM20.1166 4.90597H17.7718V8.7733H20.1166C20.6324 8.7733 21.1482 8.57995 21.4765 8.19326C22.2268 7.46815 22.2268 6.25963 21.5235 5.53444L21.4765 5.48609C21.1013 5.09939 20.6324 4.85761 20.1166 4.90597ZM37.5617 7.0813L32.9191 18.0547H31.5122L33.2473 14.2358L30.1991 7.12966H31.6998L33.9038 12.5921H33.9507L36.108 7.12966H37.5617V7.0813Z" fill="white"/>
<path d="M12.191 9.20827C12.191 8.77322 12.1441 8.33816 12.0972 7.90311H6.2354V10.3685H9.56494C9.42428 11.1419 9.00224 11.867 8.34571 12.3021V13.8973H10.3622C11.5346 12.7855 12.191 11.1418 12.191 9.20827Z" fill="white"/>
<path d="M6.23642 15.4442C7.92461 15.4442 9.33148 14.8641 10.3632 13.8973L8.34673 12.302C7.78395 12.6887 7.08051 12.9304 6.23642 12.9304C4.64191 12.9304 3.23503 11.8186 2.76608 10.2717H0.702753V11.9153C1.78133 14.0906 3.89163 15.4442 6.23642 15.4442Z" fill="white"/>
<path d="M2.76608 10.2717C2.48476 9.49824 2.48423 8.62818 2.76555 7.80636V6.16279H0.702222C-0.188855 7.95143 -0.188324 10.0784 0.702753 11.9153L2.76608 10.2717Z" fill="white"/>
<path d="M6.23539 5.19603C7.1264 5.19603 7.97049 5.53444 8.62709 6.16284L10.4091 4.32593C9.28354 3.2624 7.78292 2.634 6.28223 2.68228C3.93744 2.68228 1.7803 4.03587 0.748564 6.2112L2.81196 7.85476C3.23401 6.30783 4.64088 5.19603 6.23539 5.19603Z" fill="white"/>
</g>
</g>
<defs>
<clipPath id="clip0_6430_13790">
<rect width="38" height="20" fill="white" transform="translate(0.0341797)"/>
</clipPath>
</defs>
</svg>
