<svg width="39" height="20" viewBox="0 0 39 20" fill="none" xmlns="http://www.w3.org/2000/svg">
<g id="Payment methods" clip-path="url(#clip0_6430_13786)">
<path id="Vector" fill-rule="evenodd" clip-rule="evenodd" d="M6.42327 10.5412L5.06849 7.61339L3.72196 10.5412H6.42327ZM19.4077 13.7095L19.3994 7.95939L16.5313 13.7095H14.7965L11.9184 7.95352V13.7095H7.89701L7.13701 12.0718H3.01814L2.24988 13.7095H0.102051L3.64431 6.36719H6.58188L9.9457 13.3195V6.36719H13.1741L15.763 11.3476L18.1405 6.36719H21.4349V13.7095H19.4077ZM24.584 12.2082V10.7465H28.9259V9.24811H24.584V7.91247H29.5421L31.7065 10.053L29.4463 12.2082H24.584ZM37.9847 13.7388H35.414L32.9787 11.3065L30.4475 13.7388H22.6129V6.39358H30.5681L33.0018 8.80094L35.518 6.39358H38.1021L34.2574 10.0662L37.9847 13.7388Z" fill="white"/>
</g>
<defs>
<clipPath id="clip0_6430_13786">
<rect width="38" height="20" fill="white" transform="translate(0.102051)"/>
</clipPath>
</defs>
</svg>
