<svg width="92" height="22" viewBox="0 0 92 22" fill="none" xmlns="http://www.w3.org/2000/svg">
<g id="trustpilot logo" clip-path="url(#clip0_6439_1506)">
<path id="Vector" d="M24.2995 7.79639H33.5201V9.4884H29.8946V19H27.9009V9.4884H24.2915V7.79639H24.2995ZM33.1262 10.8879H34.8304V12.4534H34.8626C34.9188 12.232 35.0234 12.0185 35.1761 11.8129C35.3288 11.6074 35.5137 11.4097 35.7308 11.2437C35.9478 11.0697 36.189 10.9353 36.4543 10.8246C36.7195 10.7218 36.9929 10.6665 37.2662 10.6665C37.4752 10.6665 37.6279 10.6744 37.7083 10.6823C37.7887 10.6902 37.8691 10.706 37.9575 10.7139V12.4376C37.8289 12.4138 37.7003 12.398 37.5636 12.3822C37.427 12.3664 37.2983 12.3585 37.1697 12.3585C36.8642 12.3585 36.5748 12.4217 36.3015 12.5403C36.0282 12.6589 35.7951 12.8408 35.5941 13.0701C35.3931 13.3073 35.2324 13.5919 35.1118 13.9398C34.9912 14.2877 34.9349 14.683 34.9349 15.1337V18.9921H33.1181V10.8879H33.1262ZM46.3099 19H44.5253V17.8694H44.4931C44.268 18.2805 43.9384 18.6047 43.4963 18.8498C43.0541 19.0949 42.604 19.2214 42.1458 19.2214C41.0605 19.2214 40.2727 18.9605 39.7904 18.4307C39.308 17.901 39.0669 17.1024 39.0669 16.035V10.8879H40.8837V15.8611C40.8837 16.5727 41.0203 17.0787 41.3017 17.3713C41.575 17.6638 41.9689 17.814 42.4673 17.814C42.8532 17.814 43.1667 17.7587 43.4239 17.6401C43.6812 17.5215 43.8902 17.3713 44.0429 17.1736C44.2037 16.9838 44.3162 16.7466 44.3886 16.4778C44.4609 16.209 44.4931 15.9164 44.4931 15.6002V10.8958H46.3099V19ZM49.4048 16.3988C49.4611 16.9206 49.6621 17.2843 50.0077 17.4978C50.3615 17.7033 50.7795 17.814 51.2698 17.814C51.4387 17.814 51.6316 17.7982 51.8486 17.7745C52.0657 17.7508 52.2747 17.6954 52.4596 17.6243C52.6525 17.5531 52.8053 17.4424 52.9339 17.3001C53.0545 17.1578 53.1107 16.9759 53.1027 16.7466C53.0947 16.5174 53.0062 16.3276 52.8454 16.1853C52.6847 16.035 52.4837 15.9244 52.2345 15.8295C51.9853 15.7425 51.7039 15.6634 51.3824 15.6002C51.0608 15.5369 50.7393 15.4658 50.4097 15.3946C50.0721 15.3235 49.7425 15.2286 49.4289 15.1258C49.1154 15.023 48.8341 14.8807 48.5849 14.6988C48.3357 14.5249 48.1347 14.2956 47.99 14.0189C47.8373 13.7421 47.7649 13.4022 47.7649 12.991C47.7649 12.5482 47.8775 12.1845 48.0945 11.8841C48.3115 11.5836 48.5929 11.3464 48.9225 11.1646C49.2601 10.9827 49.6299 10.8562 50.0399 10.7772C50.4499 10.706 50.8438 10.6665 51.2136 10.6665C51.6396 10.6665 52.0496 10.7139 52.4355 10.8009C52.8213 10.8879 53.175 11.0302 53.4886 11.2358C53.8021 11.4334 54.0593 11.6943 54.2683 12.0106C54.4773 12.3269 54.606 12.7143 54.6622 13.165H52.7651C52.6766 12.738 52.4837 12.4455 52.1702 12.3031C51.8567 12.1529 51.4949 12.0818 51.093 12.0818C50.9644 12.0818 50.8116 12.0897 50.6348 12.1134C50.4579 12.1371 50.2971 12.1766 50.1364 12.232C49.9836 12.2873 49.855 12.3743 49.7425 12.485C49.638 12.5957 49.5817 12.738 49.5817 12.9199C49.5817 13.1412 49.6621 13.3152 49.8148 13.4496C49.9675 13.584 50.1685 13.6947 50.4177 13.7896C50.6669 13.8766 50.9483 13.9556 51.2698 14.0189C51.5914 14.0821 51.921 14.1533 52.2586 14.2244C52.5882 14.2956 52.9098 14.3905 53.2313 14.4933C53.5529 14.5961 53.8342 14.7384 54.0834 14.9202C54.3326 15.1021 54.5336 15.3235 54.6863 15.5923C54.8391 15.8611 54.9195 16.2011 54.9195 16.5964C54.9195 17.0787 54.8069 17.482 54.5818 17.8219C54.3568 18.154 54.0674 18.4307 53.7136 18.6363C53.3599 18.8419 52.958 19 52.5239 19.0949C52.0898 19.1898 51.6557 19.2372 51.2296 19.2372C50.7071 19.2372 50.2248 19.1819 49.7827 19.0633C49.3405 18.9447 48.9547 18.7707 48.6331 18.5414C48.3116 18.3042 48.0543 18.0117 47.8694 17.6638C47.6845 17.3159 47.5881 16.8969 47.572 16.4146H49.4048V16.3988ZM55.4018 10.8879H56.7764V8.45263H58.5932V10.8879H60.2331V12.2241H58.5932V16.5569C58.5932 16.7466 58.6013 16.9048 58.6173 17.0471C58.6334 17.1815 58.6736 17.3001 58.7299 17.395C58.7862 17.4899 58.8746 17.561 58.9952 17.6085C59.1157 17.6559 59.2685 17.6796 59.4775 17.6796C59.6061 17.6796 59.7347 17.6796 59.8634 17.6717C59.992 17.6638 60.1206 17.648 60.2492 17.6164V19C60.0483 19.0237 59.8473 19.0396 59.6624 19.0633C59.4694 19.087 59.2765 19.0949 59.0755 19.0949C58.5932 19.0949 58.2074 19.0475 57.918 18.9605C57.6286 18.8735 57.3954 18.7391 57.2347 18.5652C57.0658 18.3912 56.9613 18.1777 56.897 17.9168C56.8408 17.6559 56.8006 17.3554 56.7925 17.0234V12.2399H55.4179V10.8879H55.4018ZM61.5194 10.8879H63.2397V11.9869H63.2718C63.5291 11.5125 63.8828 11.1804 64.341 10.9748C64.7992 10.7693 65.2896 10.6665 65.8282 10.6665C66.4793 10.6665 67.042 10.7772 67.5244 11.0065C68.0067 11.2278 68.4086 11.5362 68.7302 11.9315C69.0518 12.3269 69.2849 12.7854 69.4456 13.3073C69.6064 13.8291 69.6868 14.3905 69.6868 14.9835C69.6868 15.529 69.6145 16.0588 69.4698 16.5648C69.3251 17.0787 69.108 17.5294 68.8186 17.9247C68.5292 18.3201 68.1594 18.6284 67.7093 18.8656C67.2591 19.1028 66.7366 19.2214 66.1256 19.2214C65.8603 19.2214 65.595 19.1977 65.3298 19.1502C65.0645 19.1028 64.8072 19.0237 64.5661 18.921C64.3249 18.8182 64.0918 18.6838 63.8908 18.5177C63.6818 18.3517 63.513 18.1619 63.3683 17.9484H63.3361V21.9966H61.5194V10.8879ZM67.87 14.9518C67.87 14.5881 67.8218 14.2323 67.7253 13.8845C67.6289 13.5366 67.4842 13.2361 67.2912 12.9673C67.0983 12.6985 66.8571 12.485 66.5758 12.3269C66.2864 12.1687 65.9568 12.0818 65.587 12.0818C64.8233 12.0818 64.2445 12.3427 63.8587 12.8645C63.4728 13.3863 63.2799 14.0821 63.2799 14.9518C63.2799 15.363 63.3281 15.7425 63.4326 16.0904C63.5371 16.4383 63.6818 16.7387 63.8908 16.9917C64.0918 17.2448 64.333 17.4424 64.6143 17.5847C64.8957 17.735 65.2253 17.8061 65.5951 17.8061C66.0131 17.8061 66.3587 17.7192 66.6481 17.5531C66.9375 17.3871 67.1707 17.1657 67.3555 16.9048C67.5404 16.6359 67.6771 16.3355 67.7575 15.9955C67.8298 15.6555 67.87 15.3076 67.87 14.9518ZM71.0775 7.79639H72.8943V9.4884H71.0775V7.79639ZM71.0775 10.8879H72.8943V19H71.0775V10.8879ZM74.5182 7.79639H76.3349V19H74.5182V7.79639ZM81.9058 19.2214C81.2467 19.2214 80.6598 19.1107 80.1453 18.8972C79.6309 18.6838 79.1968 18.3833 78.835 18.0117C78.4813 17.6322 78.208 17.1815 78.0231 16.6597C77.8382 16.1378 77.7417 15.5607 77.7417 14.936C77.7417 14.3193 77.8382 13.75 78.0231 13.2282C78.208 12.7064 78.4813 12.2557 78.835 11.8762C79.1887 11.4967 79.6309 11.2041 80.1453 10.9906C80.6598 10.7772 81.2467 10.6665 81.9058 10.6665C82.565 10.6665 83.1519 10.7772 83.6663 10.9906C84.1808 11.2041 84.6149 11.5046 84.9767 11.8762C85.3304 12.2557 85.6037 12.7064 85.7886 13.2282C85.9735 13.75 86.07 14.3193 86.07 14.936C86.07 15.5607 85.9735 16.1378 85.7886 16.6597C85.6037 17.1815 85.3304 17.6322 84.9767 18.0117C84.623 18.3912 84.1808 18.6838 83.6663 18.8972C83.1519 19.1107 82.565 19.2214 81.9058 19.2214ZM81.9058 17.8061C82.3078 17.8061 82.6615 17.7192 82.9589 17.5531C83.2564 17.3871 83.4975 17.1657 83.6905 16.8969C83.8834 16.628 84.0201 16.3197 84.1165 15.9797C84.205 15.6397 84.2532 15.2918 84.2532 14.936C84.2532 14.5881 84.205 14.2482 84.1165 13.9003C84.0281 13.5524 83.8834 13.2519 83.6905 12.9831C83.4975 12.7143 83.2564 12.5008 82.9589 12.3348C82.6615 12.1687 82.3078 12.0818 81.9058 12.0818C81.5039 12.0818 81.1502 12.1687 80.8528 12.3348C80.5553 12.5008 80.3142 12.7222 80.1212 12.9831C79.9283 13.2519 79.7916 13.5524 79.6952 13.9003C79.6067 14.2482 79.5585 14.5881 79.5585 14.936C79.5585 15.2918 79.6067 15.6397 79.6952 15.9797C79.7836 16.3197 79.9283 16.628 80.1212 16.8969C80.3142 17.1657 80.5553 17.3871 80.8528 17.5531C81.1502 17.7271 81.5039 17.8061 81.9058 17.8061ZM86.6005 10.8879H87.9752V8.45263H89.792V10.8879H91.4319V12.2241H89.792V16.5569C89.792 16.7466 89.8 16.9048 89.8161 17.0471C89.8321 17.1815 89.8723 17.3001 89.9286 17.395C89.9849 17.4899 90.0733 17.561 90.1939 17.6085C90.3145 17.6559 90.4672 17.6796 90.6762 17.6796C90.8048 17.6796 90.9335 17.6796 91.0621 17.6717C91.1907 17.6638 91.3193 17.648 91.4479 17.6164V19C91.247 19.0237 91.046 19.0396 90.8611 19.0633C90.6682 19.087 90.4753 19.0949 90.2743 19.0949C89.7919 19.0949 89.4061 19.0475 89.1167 18.9605C88.8273 18.8735 88.5942 18.7391 88.4334 18.5652C88.2646 18.3912 88.1601 18.1777 88.0958 17.9168C88.0395 17.6559 87.9993 17.3554 87.9912 17.0234V12.2399H86.6166V10.8879H86.6005Z" fill="#191919"/>
<g id="Group">
<path id="Vector_2" d="M22.177 7.79589H13.8488L11.2764 0L8.69591 7.79589L0.367676 7.78799L7.11226 12.611L4.53179 20.399L11.2764 15.5839L18.0129 20.399L15.4405 12.611L22.177 7.79589Z" fill="#00B67A"/>
<path id="Vector_3" d="M16.0193 14.3743L15.4405 12.6111L11.2764 15.584L16.0193 14.3743Z" fill="#005128"/>
</g>
</g>
<defs>
<clipPath id="clip0_6439_1506">
<rect width="92" height="22" fill="white"/>
</clipPath>
</defs>
</svg>
