<svg width="124" height="16" viewBox="0 0 124 16" fill="none" xmlns="http://www.w3.org/2000/svg">
<path d="M35.44 13.1219C35.1657 13.1219 34.9371 13.061 34.7543 12.939C34.5816 12.807 34.4394 12.614 34.3276 12.36L30.3505 3.43048C30.2387 3.17651 30.2083 2.95302 30.259 2.76C30.3098 2.56698 30.4165 2.4146 30.579 2.30286C30.7416 2.19111 30.9346 2.13524 31.1581 2.13524C31.4527 2.13524 31.6711 2.20127 31.8133 2.33333C31.9657 2.45524 32.0927 2.64317 32.1943 2.89714L35.8057 11.2629H35.1505L38.7467 2.8819C38.8584 2.6381 38.9905 2.45524 39.1429 2.33333C39.2952 2.20127 39.5086 2.13524 39.7829 2.13524C40.0063 2.13524 40.1892 2.19111 40.3314 2.30286C40.4838 2.4146 40.5803 2.56698 40.621 2.76C40.6616 2.95302 40.626 3.17651 40.5143 3.43048L36.5371 12.36C36.4254 12.614 36.2832 12.807 36.1105 12.939C35.9479 13.061 35.7244 13.1219 35.44 13.1219ZM43.0117 13.1219C42.6967 13.1219 42.4529 13.0356 42.2802 12.8629C42.1177 12.68 42.0364 12.4311 42.0364 12.1162V3.14095C42.0364 2.81587 42.1177 2.56698 42.2802 2.39429C42.4529 2.22159 42.6967 2.13524 43.0117 2.13524C43.3266 2.13524 43.5653 2.22159 43.7279 2.39429C43.9006 2.56698 43.9869 2.81587 43.9869 3.14095V12.1162C43.9869 12.4311 43.9056 12.68 43.7431 12.8629C43.5806 13.0356 43.3367 13.1219 43.0117 13.1219ZM50.6037 13.1219C50.3294 13.1219 50.1008 13.061 49.918 12.939C49.7453 12.807 49.6031 12.614 49.4913 12.36L45.5142 3.43048C45.4024 3.17651 45.3719 2.95302 45.4227 2.76C45.4735 2.56698 45.5802 2.4146 45.7427 2.30286C45.9053 2.19111 46.0983 2.13524 46.3218 2.13524C46.6164 2.13524 46.8348 2.20127 46.977 2.33333C47.1294 2.45524 47.2564 2.64317 47.358 2.89714L50.9694 11.2629H50.3142L53.9104 2.8819C54.0221 2.6381 54.1542 2.45524 54.3065 2.33333C54.4589 2.20127 54.6723 2.13524 54.9465 2.13524C55.17 2.13524 55.3529 2.19111 55.4951 2.30286C55.6475 2.4146 55.744 2.56698 55.7846 2.76C55.8253 2.95302 55.7897 3.17651 55.678 3.43048L51.7008 12.36C51.5891 12.614 51.4469 12.807 51.2742 12.939C51.1116 13.061 50.8881 13.1219 50.6037 13.1219ZM56.399 13.1219C56.1552 13.1219 55.9571 13.066 55.8048 12.9543C55.6625 12.8425 55.5762 12.6952 55.5457 12.5124C55.5152 12.3194 55.5508 12.106 55.6524 11.8724L59.6752 2.9581C59.8073 2.66349 59.9648 2.45524 60.1476 2.33333C60.3406 2.20127 60.559 2.13524 60.8029 2.13524C61.0365 2.13524 61.2448 2.20127 61.4276 2.33333C61.6206 2.45524 61.7832 2.66349 61.9152 2.9581L65.9533 11.8724C66.0651 12.106 66.1057 12.3194 66.0752 12.5124C66.0448 12.7054 65.9584 12.8578 65.8162 12.9695C65.674 13.0711 65.486 13.1219 65.2524 13.1219C64.9679 13.1219 64.7444 13.0559 64.5819 12.9238C64.4295 12.7816 64.2924 12.5683 64.1705 12.2838L63.18 9.98286L64.0029 10.5162H57.5724L58.3952 9.98286L57.42 12.2838C57.2879 12.5784 57.1508 12.7917 57.0086 12.9238C56.8663 13.0559 56.6632 13.1219 56.399 13.1219ZM60.7724 4.37524L58.639 9.44952L58.2429 8.9619H63.3324L62.9514 9.44952L60.8029 4.37524H60.7724Z" fill="#FF6A6A"/>
<path d="M68.6679 13C68.3326 13 68.0736 12.9137 67.8907 12.741C67.718 12.5581 67.6317 12.299 67.6317 11.9638V3.29333C67.6317 2.9581 67.718 2.70413 67.8907 2.53143C68.0736 2.34857 68.3326 2.25714 68.6679 2.25714H74.1079C74.3618 2.25714 74.5548 2.32317 74.6869 2.45524C74.8291 2.5873 74.9002 2.77524 74.9002 3.01905C74.9002 3.27302 74.8291 3.47111 74.6869 3.61333C74.5548 3.7454 74.3618 3.81143 74.1079 3.81143H69.506V6.76762H73.7726C74.0367 6.76762 74.2348 6.83365 74.3669 6.96571C74.499 7.09778 74.565 7.29079 74.565 7.54476C74.565 7.79873 74.499 7.99175 74.3669 8.12381C74.2348 8.25587 74.0367 8.3219 73.7726 8.3219H69.506V11.4457H74.1079C74.3618 11.4457 74.5548 11.5117 74.6869 11.6438C74.8291 11.7759 74.9002 11.9689 74.9002 12.2229C74.9002 12.4768 74.8291 12.6698 74.6869 12.8019C74.5548 12.934 74.3618 13 74.1079 13H68.6679ZM80.278 13.1524C79.831 13.1524 79.384 13.1168 78.937 13.0457C78.49 12.9848 78.0684 12.8883 77.6723 12.7562C77.2761 12.614 76.9205 12.4413 76.6056 12.2381C76.4227 12.1162 76.2958 11.9689 76.2246 11.7962C76.1535 11.6235 76.1281 11.4559 76.1484 11.2933C76.1789 11.1206 76.245 10.9733 76.3465 10.8514C76.4583 10.7194 76.5954 10.6381 76.758 10.6076C76.9205 10.5771 77.0983 10.6229 77.2913 10.7448C77.7383 11.0089 78.2107 11.2019 78.7084 11.3238C79.2062 11.4457 79.7294 11.5067 80.278 11.5067C81.0805 11.5067 81.6646 11.3746 82.0304 11.1105C82.3961 10.8362 82.5789 10.4857 82.5789 10.059C82.5789 9.70349 82.4469 9.42413 82.1827 9.22095C81.9288 9.01778 81.4869 8.85016 80.857 8.7181L79.1808 8.36762C78.2158 8.16444 77.4945 7.82413 77.017 7.34667C76.5497 6.85905 76.3161 6.21905 76.3161 5.42667C76.3161 4.92889 76.4177 4.47683 76.6208 4.07048C76.824 3.66413 77.1084 3.31365 77.4742 3.01905C77.85 2.72444 78.2919 2.50095 78.7999 2.34857C79.318 2.18603 79.8869 2.10476 80.5065 2.10476C81.1161 2.10476 81.6951 2.18095 82.2437 2.33333C82.7923 2.48571 83.285 2.70921 83.7218 3.00381C83.8843 3.11556 83.991 3.2527 84.0418 3.41524C84.1027 3.57778 84.118 3.74032 84.0875 3.90286C84.057 4.05524 83.9859 4.1873 83.8742 4.29905C83.7624 4.41079 83.6202 4.47683 83.4475 4.49714C83.285 4.51746 83.097 4.46667 82.8837 4.34476C82.5078 4.13143 82.1269 3.97905 81.7408 3.88762C81.3548 3.79619 80.9383 3.75048 80.4913 3.75048C80.024 3.75048 79.6227 3.81651 79.2875 3.94857C78.9523 4.08063 78.6932 4.26857 78.5104 4.51238C78.3377 4.74603 78.2513 5.0254 78.2513 5.35048C78.2513 5.71619 78.3732 6.01079 78.617 6.23429C78.8608 6.44762 79.2773 6.61524 79.8665 6.73714L81.5275 7.08762C82.5332 7.30095 83.2799 7.63619 83.7675 8.09333C84.2653 8.55048 84.5142 9.16 84.5142 9.9219C84.5142 10.4095 84.4126 10.8514 84.2094 11.2476C84.0164 11.6438 83.7319 11.9841 83.3561 12.2686C82.9904 12.553 82.5484 12.7714 82.0304 12.9238C81.5123 13.0762 80.9281 13.1524 80.278 13.1524ZM89.8911 13.1524C89.4441 13.1524 88.9971 13.1168 88.5501 13.0457C88.1031 12.9848 87.6815 12.8883 87.2854 12.7562C86.8892 12.614 86.5336 12.4413 86.2187 12.2381C86.0358 12.1162 85.9088 11.9689 85.8377 11.7962C85.7666 11.6235 85.7412 11.4559 85.7615 11.2933C85.792 11.1206 85.8581 10.9733 85.9596 10.8514C86.0714 10.7194 86.2085 10.6381 86.3711 10.6076C86.5336 10.5771 86.7114 10.6229 86.9044 10.7448C87.3514 11.0089 87.8238 11.2019 88.3215 11.3238C88.8193 11.4457 89.3425 11.5067 89.8911 11.5067C90.6936 11.5067 91.2777 11.3746 91.6434 11.1105C92.0092 10.8362 92.192 10.4857 92.192 10.059C92.192 9.70349 92.06 9.42413 91.7958 9.22095C91.5419 9.01778 91.1 8.85016 90.4701 8.7181L88.7939 8.36762C87.8288 8.16444 87.1076 7.82413 86.6301 7.34667C86.1628 6.85905 85.9292 6.21905 85.9292 5.42667C85.9292 4.92889 86.0308 4.47683 86.2339 4.07048C86.4371 3.66413 86.7215 3.31365 87.0873 3.01905C87.4631 2.72444 87.905 2.50095 88.413 2.34857C88.9311 2.18603 89.5 2.10476 90.1196 2.10476C90.7292 2.10476 91.3082 2.18095 91.8568 2.33333C92.4054 2.48571 92.8981 2.70921 93.3349 3.00381C93.4974 3.11556 93.6041 3.2527 93.6549 3.41524C93.7158 3.57778 93.7311 3.74032 93.7006 3.90286C93.6701 4.05524 93.599 4.1873 93.4873 4.29905C93.3755 4.41079 93.2333 4.47683 93.0606 4.49714C92.8981 4.51746 92.7101 4.46667 92.4968 4.34476C92.1209 4.13143 91.74 3.97905 91.3539 3.88762C90.9679 3.79619 90.5514 3.75048 90.1044 3.75048C89.6371 3.75048 89.2358 3.81651 88.9006 3.94857C88.5654 4.08063 88.3063 4.26857 88.1234 4.51238C87.9508 4.74603 87.8644 5.0254 87.8644 5.35048C87.8644 5.71619 87.9863 6.01079 88.2301 6.23429C88.4739 6.44762 88.8904 6.61524 89.4796 6.73714L91.1406 7.08762C92.1463 7.30095 92.893 7.63619 93.3806 8.09333C93.8784 8.55048 94.1273 9.16 94.1273 9.9219C94.1273 10.4095 94.0257 10.8514 93.8225 11.2476C93.6295 11.6438 93.345 11.9841 92.9692 12.2686C92.6034 12.553 92.1615 12.7714 91.6434 12.9238C91.1254 13.0762 90.5412 13.1524 89.8911 13.1524ZM95.8336 13.1219C95.5898 13.1219 95.3917 13.066 95.2393 12.9543C95.0971 12.8425 95.0107 12.6952 94.9802 12.5124C94.9498 12.3194 94.9853 12.106 95.0869 11.8724L99.1098 2.9581C99.2418 2.66349 99.3993 2.45524 99.5821 2.33333C99.7752 2.20127 99.9936 2.13524 100.237 2.13524C100.471 2.13524 100.679 2.20127 100.862 2.33333C101.055 2.45524 101.218 2.66349 101.35 2.9581L105.388 11.8724C105.5 12.106 105.54 12.3194 105.51 12.5124C105.479 12.7054 105.393 12.8578 105.251 12.9695C105.108 13.0711 104.921 13.1219 104.687 13.1219C104.402 13.1219 104.179 13.0559 104.016 12.9238C103.864 12.7816 103.727 12.5683 103.605 12.2838L102.615 9.98286L103.437 10.5162H97.0069L97.8298 9.98286L96.8545 12.2838C96.7225 12.5784 96.5853 12.7917 96.4431 12.9238C96.3009 13.0559 96.0977 13.1219 95.8336 13.1219ZM100.207 4.37524L98.0736 9.44952L97.6774 8.9619H102.767L102.386 9.44952L100.237 4.37524H100.207ZM109.604 13.1219C109.289 13.1219 109.046 13.0356 108.873 12.8629C108.71 12.68 108.629 12.426 108.629 12.101V7.46857L109.041 8.6419L105.368 3.47619C105.236 3.29333 105.175 3.10032 105.185 2.89714C105.206 2.68381 105.292 2.50603 105.444 2.36381C105.597 2.21143 105.81 2.13524 106.084 2.13524C106.288 2.13524 106.47 2.18603 106.633 2.28762C106.806 2.38921 106.968 2.54667 107.121 2.76L109.848 6.63048H109.422L112.164 2.76C112.327 2.53651 112.484 2.37905 112.637 2.28762C112.789 2.18603 112.977 2.13524 113.201 2.13524C113.465 2.13524 113.668 2.20635 113.81 2.34857C113.962 2.48063 114.039 2.64825 114.039 2.85143C114.049 3.0546 113.978 3.26794 113.825 3.49143L110.183 8.6419L110.58 7.46857V12.101C110.58 12.7816 110.255 13.1219 109.604 13.1219ZM118.835 13.1524C118.388 13.1524 117.941 13.1168 117.494 13.0457C117.047 12.9848 116.625 12.8883 116.229 12.7562C115.833 12.614 115.477 12.4413 115.162 12.2381C114.979 12.1162 114.852 11.9689 114.781 11.7962C114.71 11.6235 114.685 11.4559 114.705 11.2933C114.735 11.1206 114.802 10.9733 114.903 10.8514C115.015 10.7194 115.152 10.6381 115.315 10.6076C115.477 10.5771 115.655 10.6229 115.848 10.7448C116.295 11.0089 116.767 11.2019 117.265 11.3238C117.763 11.4457 118.286 11.5067 118.835 11.5067C119.637 11.5067 120.221 11.3746 120.587 11.1105C120.953 10.8362 121.135 10.4857 121.135 10.059C121.135 9.70349 121.003 9.42413 120.739 9.22095C120.485 9.01778 120.043 8.85016 119.414 8.7181L117.737 8.36762C116.772 8.16444 116.051 7.82413 115.574 7.34667C115.106 6.85905 114.873 6.21905 114.873 5.42667C114.873 4.92889 114.974 4.47683 115.177 4.07048C115.381 3.66413 115.665 3.31365 116.031 3.01905C116.407 2.72444 116.848 2.50095 117.356 2.34857C117.875 2.18603 118.443 2.10476 119.063 2.10476C119.673 2.10476 120.252 2.18095 120.8 2.33333C121.349 2.48571 121.842 2.70921 122.278 3.00381C122.441 3.11556 122.548 3.2527 122.598 3.41524C122.659 3.57778 122.675 3.74032 122.644 3.90286C122.614 4.05524 122.542 4.1873 122.431 4.29905C122.319 4.41079 122.177 4.47683 122.004 4.49714C121.842 4.51746 121.654 4.46667 121.44 4.34476C121.064 4.13143 120.683 3.97905 120.297 3.88762C119.911 3.79619 119.495 3.75048 119.048 3.75048C118.581 3.75048 118.179 3.81651 117.844 3.94857C117.509 4.08063 117.25 4.26857 117.067 4.51238C116.894 4.74603 116.808 5.0254 116.808 5.35048C116.808 5.71619 116.93 6.01079 117.174 6.23429C117.417 6.44762 117.834 6.61524 118.423 6.73714L120.084 7.08762C121.09 7.30095 121.836 7.63619 122.324 8.09333C122.822 8.55048 123.071 9.16 123.071 9.9219C123.071 10.4095 122.969 10.8514 122.766 11.2476C122.573 11.6438 122.288 11.9841 121.913 12.2686C121.547 12.553 121.105 12.7714 120.587 12.9238C120.069 13.0762 119.485 13.1524 118.835 13.1524Z" fill="#2D1600"/>
<path fill-rule="evenodd" clip-rule="evenodd" d="M12.4742 9.63769L12.9733 10.3391L13.4725 9.63769C13.3312 9.53957 13.1591 9.48242 12.9733 9.48242C12.7875 9.48188 12.6149 9.53957 12.4742 9.63769ZM3.81163 1.75634C3.91434 1.55126 4.11486 1.40672 4.34161 1.37224C11.4729 0.287751 11.9064 2.81204 11.9064 8.17182C11.9064 8.32493 12.0339 8.45 12.19 8.45C12.3461 8.45 12.4742 8.32493 12.4742 8.17182V1.52227C12.4742 1.34489 12.6897 1.34328 12.6897 1.52388V8.17128C12.6897 8.32385 12.8172 8.44946 12.9733 8.44946C13.1295 8.44946 13.257 8.32439 13.257 8.17128V1.53143C13.257 1.34058 13.4725 1.34112 13.4725 1.53143V8.17182C13.4725 8.32493 13.6 8.45 13.7561 8.45C13.9122 8.45 14.0403 8.32493 14.0403 8.17182C14.0403 2.81204 14.4738 0.287751 21.6051 1.37224C21.8318 1.40672 22.0323 1.55126 22.135 1.75634C23.31 4.10211 24.2512 6.20055 25.3685 8.60564C25.6121 9.12999 25.1688 9.71896 24.5948 9.64955C20.0565 9.10071 16.2597 9.68208 13.4432 11.7584C13.1648 11.9636 12.7819 11.9636 12.5035 11.7583C9.68703 9.68163 5.89016 9.10063 1.35191 9.64954C0.777918 9.71896 0.334565 9.12999 0.578156 8.60564C1.69544 6.20055 2.63668 4.10211 3.81163 1.75634Z" fill="#FF6A6A"/>
<path fill-rule="evenodd" clip-rule="evenodd" d="M13.4435 12.643C13.1651 12.8483 12.7822 12.8483 12.5038 12.643C9.81379 10.6594 6.22963 10.0402 1.95954 10.4667C1.73278 10.4894 1.53153 10.6215 1.41749 10.8188L1.39523 10.8573C1.08892 11.3873 1.54583 12.0406 2.15323 11.9648C6.33665 11.4424 9.84579 12.0645 12.471 14.1897C12.7626 14.4257 13.1847 14.4257 13.4763 14.1897C16.1015 12.0645 19.611 11.4424 23.794 11.9648C24.4014 12.0406 24.8584 11.3872 24.552 10.8573L24.5298 10.8188C24.4158 10.6215 24.2145 10.4894 23.9877 10.4668C19.7177 10.0408 16.1335 10.66 13.4435 12.643Z" fill="#2D1600"/>
</svg>
